<ttFont>
<head>
    <!-- Most of this table will be recalculated by the compiler -->
    <tableVersion value="1.0"/>
    <fontRevision value="2.20299"/>
    <checkSumAdjustment value="0x9360f057"/>
    <magicNumber value="0x5f0f3cf5"/>
    <flags value="00000000 00011011"/>
    <unitsPerEm value="1000"/>
    <created value="Mon Dec 12 17:21:14 2016"/>
    <modified value="Mon Dec 12 11:51:20 2016"/>
    <xMin value="-179"/>
    <yMin value="-361"/>
    <xMax value="2243"/>
    <yMax value="935"/>
    <macStyle value="00000000 00000000"/>
    <lowestRecPPEM value="9"/>
    <fontDirectionHint value="2"/>
    <indexToLocFormat value="0"/>
    <glyphDataFormat value="0"/>
  </head>
    <TTGlyph name=".notdef" xMin="0" yMin="0" xMax="506" yMax="699">
      <contour>
        <pt x="0" y="699" on="1"/>
        <pt x="506" y="699" on="1"/>
        <pt x="506" y="0" on="1"/>
        <pt x="0" y="0" on="1"/>
      </contour>
      <contour>
        <pt x="415" y="645" on="1"/>
        <pt x="91" y="645" on="1"/>
        <pt x="253" y="402" on="1"/>
      </contour>
      <contour>
        <pt x="447" y="112" on="1"/>
        <pt x="447" y="588" on="1"/>
        <pt x="288" y="350" on="1"/>
      </contour>
      <contour>
        <pt x="415" y="54" on="1"/>
        <pt x="253" y="297" on="1"/>
        <pt x="91" y="54" on="1"/>
      </contour>
      <contour>
        <pt x="59" y="112" on="1"/>
        <pt x="218" y="350" on="1"/>
        <pt x="59" y="588" on="1"/>
      </contour>
    </TTGlyph>
    <TTGlyph name="A" xMin="3" yMin="0" xMax="598" yMax="630">
      <contour>
        <pt x="203" y="247" on="1"/>
        <pt x="394" y="247" on="1"/>
        <pt x="357" y="349" on="1"/>
        <pt x="340" y="391" on="0"/>
        <pt x="315" y="464" on="0"/>
        <pt x="301" y="511" on="1"/>
        <pt x="299" y="511" on="1"/>
        <pt x="284" y="467" on="0"/>
        <pt x="258" y="392" on="0"/>
        <pt x="241" y="348" on="1"/>
      </contour>
      <contour>
        <pt x="251" y="630" on="1"/>
        <pt x="353" y="630" on="1"/>
        <pt x="598" y="0" on="1"/>
        <pt x="486" y="0" on="1"/>
        <pt x="423" y="165" on="1"/>
        <pt x="176" y="165" on="1"/>
        <pt x="114" y="0" on="1"/>
        <pt x="3" y="0" on="1"/>
      </contour>
    </TTGlyph>
    <TTGlyph name="AE" xMin="5" yMin="0" xMax="762" yMax="630">
      <contour>
        <pt x="327" y="630" on="1"/>
        <pt x="759" y="630" on="1"/>
        <pt x="759" y="544" on="1"/>
        <pt x="498" y="544" on="1"/>
        <pt x="498" y="370" on="1"/>
        <pt x="733" y="370" on="1"/>
        <pt x="733" y="285" on="1"/>
        <pt x="498" y="285" on="1"/>
        <pt x="498" y="86" on="1"/>
        <pt x="762" y="86" on="1"/>
        <pt x="762" y="0" on="1"/>
        <pt x="394" y="0" on="1"/>
        <pt x="394" y="166" on="1"/>
        <pt x="210" y="166" on="1"/>
        <pt x="129" y="0" on="1"/>
        <pt x="5" y="0" on="1"/>
      </contour>
      <contour>
        <pt x="394" y="551" on="1"/>
        <pt x="245" y="247" on="1"/>
        <pt x="394" y="247" on="1"/>
      </contour>
    </TTGlyph>
    <TTGlyph name="AEacute" xMin="5" yMin="0" xMax="762" yMax="829">
      <contour>
        <pt x="327" y="630" on="1"/>
        <pt x="759" y="630" on="1"/>
        <pt x="759" y="544" on="1"/>
        <pt x="498" y="544" on="1"/>
        <pt x="498" y="370" on="1"/>
        <pt x="733" y="370" on="1"/>
        <pt x="733" y="285" on="1"/>
        <pt x="498" y="285" on="1"/>
        <pt x="498" y="86" on="1"/>
        <pt x="762" y="86" on="1"/>
        <pt x="762" y="0" on="1"/>
        <pt x="394" y="0" on="1"/>
        <pt x="394" y="166" on="1"/>
        <pt x="210" y="166" on="1"/>
        <pt x="129" y="0" on="1"/>
        <pt x="5" y="0" on="1"/>
      </contour>
      <contour>
        <pt x="394" y="551" on="1"/>
        <pt x="245" y="247" on="1"/>
        <pt x="394" y="247" on="1"/>
      </contour>
      <contour>
        <pt x="443" y="705" on="1"/>
        <pt x="358" y="705" on="1"/>
        <pt x="438" y="829" on="1"/>
        <pt x="555" y="829" on="1"/>
      </contour>
    </TTGlyph>
    <TTGlyph name="Aacute" xMin="3" yMin="0" xMax="598" yMax="829">
      <contour>
        <pt x="340" y="705" on="1"/>
        <pt x="255" y="705" on="1"/>
        <pt x="335" y="829" on="1"/>
        <pt x="452" y="829" on="1"/>
      </contour>
      <contour>
        <pt x="203" y="247" on="1"/>
        <pt x="394" y="247" on="1"/>
        <pt x="357" y="349" on="1"/>
        <pt x="340" y="391" on="0"/>
        <pt x="315" y="464" on="0"/>
        <pt x="301" y="511" on="1"/>
        <pt x="299" y="511" on="1"/>
        <pt x="284" y="467" on="0"/>
        <pt x="258" y="392" on="0"/>
        <pt x="241" y="348" on="1"/>
      </contour>
      <contour>
        <pt x="251" y="630" on="1"/>
        <pt x="353" y="630" on="1"/>
        <pt x="598" y="0" on="1"/>
        <pt x="486" y="0" on="1"/>
        <pt x="423" y="165" on="1"/>
        <pt x="176" y="165" on="1"/>
        <pt x="114" y="0" on="1"/>
        <pt x="3" y="0" on="1"/>
      </contour>
    </TTGlyph>
    <TTGlyph name="Aaytam.tm" xMin="15" yMin="-15" xMax="621" yMax="529">
      <contour>
        <pt x="320" y="529" on="1"/>
        <pt x="348" y="529" on="0"/>
        <pt x="397" y="510" on="0"/>
        <pt x="433" y="476" on="0"/>
        <pt x="454" y="428" on="0"/>
        <pt x="454" y="399" on="1"/>
        <pt x="454" y="367" on="0"/>
        <pt x="430" y="320" on="0"/>
        <pt x="392" y="288" on="0"/>
        <pt x="342" y="272" on="0"/>
        <pt x="317" y="272" on="1"/>
        <pt x="291" y="272" on="0"/>
        <pt x="242" y="288" on="0"/>
        <pt x="204" y="319" on="0"/>
        <pt x="180" y="367" on="0"/>
        <pt x="180" y="399" on="1"/>
        <pt x="180" y="458" on="0"/>
        <pt x="257" y="529" on="0"/>
      </contour>
      <contour>
        <pt x="316" y="461" on="1"/>
        <pt x="291" y="461" on="0"/>
        <pt x="263" y="428" on="0"/>
        <pt x="263" y="399" on="1"/>
        <pt x="263" y="370" on="0"/>
        <pt x="294" y="338" on="0"/>
        <pt x="319" y="338" on="1"/>
        <pt x="343" y="338" on="0"/>
        <pt x="373" y="371" on="0"/>
        <pt x="373" y="399" on="1"/>
        <pt x="373" y="430" on="0"/>
        <pt x="339" y="461" on="0"/>
      </contour>
      <contour>
        <pt x="154" y="244" on="1"/>
        <pt x="182" y="244" on="0"/>
        <pt x="231" y="225" on="0"/>
        <pt x="267" y="191" on="0"/>
        <pt x="288" y="143" on="0"/>
        <pt x="288" y="115" on="1"/>
        <pt x="288" y="86" on="0"/>
        <pt x="267" y="38" on="0"/>
        <pt x="230" y="4" on="0"/>
        <pt x="180" y="-15" on="0"/>
        <pt x="150" y="-15" on="1"/>
        <pt x="120" y="-15" on="0"/>
        <pt x="71" y="4" on="0"/>
        <pt x="35" y="38" on="0"/>
        <pt x="15" y="86" on="0"/>
        <pt x="15" y="115" on="1"/>
        <pt x="15" y="143" on="0"/>
        <pt x="35" y="191" on="0"/>
        <pt x="72" y="225" on="0"/>
        <pt x="123" y="244" on="0"/>
      </contour>
      <contour>
        <pt x="150" y="176" on="1"/>
        <pt x="126" y="176" on="0"/>
        <pt x="97" y="143" on="0"/>
        <pt x="97" y="115" on="1"/>
        <pt x="97" y="85" on="0"/>
        <pt x="128" y="54" on="0"/>
        <pt x="153" y="54" on="1"/>
        <pt x="177" y="54" on="0"/>
        <pt x="207" y="87" on="0"/>
        <pt x="207" y="115" on="1"/>
        <pt x="207" y="146" on="0"/>
        <pt x="173" y="176" on="0"/>
      </contour>
      <contour>
        <pt x="487" y="245" on="1"/>
        <pt x="515" y="245" on="0"/>
        <pt x="564" y="226" on="0"/>
        <pt x="600" y="192" on="0"/>
        <pt x="621" y="144" on="0"/>
        <pt x="621" y="115" on="1"/>
        <pt x="621" y="86" on="0"/>
        <pt x="600" y="38" on="0"/>
        <pt x="563" y="4" on="0"/>
        <pt x="513" y="-15" on="0"/>
        <pt x="483" y="-15" on="1"/>
        <pt x="453" y="-15" on="0"/>
        <pt x="404" y="4" on="0"/>
        <pt x="368" y="38" on="0"/>
        <pt x="348" y="86" on="0"/>
        <pt x="348" y="115" on="1"/>
        <pt x="348" y="173" on="0"/>
        <pt x="424" y="245" on="0"/>
      </contour>
      <contour>
        <pt x="483" y="177" on="1"/>
        <pt x="459" y="177" on="0"/>
        <pt x="430" y="144" on="0"/>
        <pt x="430" y="115" on="1"/>
        <pt x="430" y="85" on="0"/>
        <pt x="461" y="54" on="0"/>
        <pt x="487" y="54" on="1"/>
        <pt x="510" y="54" on="0"/>
        <pt x="540" y="87" on="0"/>
        <pt x="540" y="115" on="1"/>
        <pt x="540" y="146" on="0"/>
        <pt x="506" y="177" on="0"/>
      </contour>
    </TTGlyph>
    <TTGlyph name="Abreve" xMin="3" yMin="0" xMax="598" yMax="829">
      <contour>
        <pt x="233" y="829" on="1"/>
        <pt x="236" y="799" on="0"/>
        <pt x="262" y="764" on="0"/>
        <pt x="300" y="764" on="1"/>
        <pt x="361" y="764" on="0"/>
        <pt x="367" y="829" on="1"/>
        <pt x="434" y="829" on="1"/>
        <pt x="434" y="773" on="0"/>
        <pt x="365" y="704" on="0"/>
        <pt x="300" y="704" on="1"/>
        <pt x="264" y="704" on="0"/>
        <pt x="213" y="725" on="0"/>
        <pt x="180" y="760" on="0"/>
        <pt x="165" y="805" on="0"/>
        <pt x="165" y="829" on="1"/>
      </contour>
      <contour>
        <pt x="203" y="247" on="1"/>
        <pt x="394" y="247" on="1"/>
        <pt x="357" y="349" on="1"/>
        <pt x="340" y="391" on="0"/>
        <pt x="315" y="464" on="0"/>
        <pt x="301" y="511" on="1"/>
        <pt x="299" y="511" on="1"/>
        <pt x="284" y="467" on="0"/>
        <pt x="258" y="392" on="0"/>
        <pt x="241" y="348" on="1"/>
      </contour>
      <contour>
        <pt x="251" y="630" on="1"/>
        <pt x="353" y="630" on="1"/>
        <pt x="598" y="0" on="1"/>
        <pt x="486" y="0" on="1"/>
        <pt x="423" y="165" on="1"/>
        <pt x="176" y="165" on="1"/>
        <pt x="114" y="0" on="1"/>
        <pt x="3" y="0" on="1"/>
      </contour>
    </TTGlyph>
    <TTGlyph name="Acircumflex" xMin="3" yMin="0" xMax="598" yMax="836">
      <contour>
        <pt x="261" y="836" on="1"/>
        <pt x="340" y="836" on="1"/>
        <pt x="462" y="705" on="1"/>
        <pt x="375" y="705" on="1"/>
        <pt x="300" y="784" on="1"/>
        <pt x="225" y="705" on="1"/>
        <pt x="141" y="705" on="1"/>
      </contour>
      <contour>
        <pt x="203" y="247" on="1"/>
        <pt x="394" y="247" on="1"/>
        <pt x="357" y="349" on="1"/>
        <pt x="340" y="391" on="0"/>
        <pt x="315" y="464" on="0"/>
        <pt x="301" y="511" on="1"/>
        <pt x="299" y="511" on="1"/>
        <pt x="284" y="467" on="0"/>
        <pt x="258" y="392" on="0"/>
        <pt x="241" y="348" on="1"/>
      </contour>
      <contour>
        <pt x="251" y="630" on="1"/>
        <pt x="353" y="630" on="1"/>
        <pt x="598" y="0" on="1"/>
        <pt x="486" y="0" on="1"/>
        <pt x="423" y="165" on="1"/>
        <pt x="176" y="165" on="1"/>
        <pt x="114" y="0" on="1"/>
        <pt x="3" y="0" on="1"/>
      </contour>
    </TTGlyph>
    <TTGlyph name="Adieresis" xMin="3" yMin="0" xMax="598" yMax="811">
      <contour>
        <pt x="158" y="758" on="1"/>
        <pt x="158" y="779" on="0"/>
        <pt x="189" y="811" on="0"/>
        <pt x="212" y="811" on="1"/>
        <pt x="235" y="811" on="0"/>
        <pt x="266" y="779" on="0"/>
        <pt x="266" y="758" on="1"/>
        <pt x="266" y="735" on="0"/>
        <pt x="235" y="702" on="0"/>
        <pt x="212" y="702" on="1"/>
        <pt x="189" y="702" on="0"/>
        <pt x="158" y="735" on="0"/>
      </contour>
      <contour>
        <pt x="333" y="758" on="1"/>
        <pt x="333" y="779" on="0"/>
        <pt x="365" y="811" on="0"/>
        <pt x="388" y="811" on="1"/>
        <pt x="411" y="811" on="0"/>
        <pt x="442" y="779" on="0"/>
        <pt x="442" y="758" on="1"/>
        <pt x="442" y="735" on="0"/>
        <pt x="411" y="702" on="0"/>
        <pt x="388" y="702" on="1"/>
        <pt x="365" y="702" on="0"/>
        <pt x="333" y="735" on="0"/>
      </contour>
      <contour>
        <pt x="203" y="247" on="1"/>
        <pt x="394" y="247" on="1"/>
        <pt x="357" y="349" on="1"/>
        <pt x="340" y="391" on="0"/>
        <pt x="315" y="464" on="0"/>
        <pt x="301" y="511" on="1"/>
        <pt x="299" y="511" on="1"/>
        <pt x="284" y="467" on="0"/>
        <pt x="258" y="392" on="0"/>
        <pt x="241" y="348" on="1"/>
      </contour>
      <contour>
        <pt x="251" y="630" on="1"/>
        <pt x="353" y="630" on="1"/>
        <pt x="598" y="0" on="1"/>
        <pt x="486" y="0" on="1"/>
        <pt x="423" y="165" on="1"/>
        <pt x="176" y="165" on="1"/>
        <pt x="114" y="0" on="1"/>
        <pt x="3" y="0" on="1"/>
      </contour>
    </TTGlyph>
    <TTGlyph name="Agrave" xMin="3" yMin="0" xMax="598" yMax="829">
      <contour>
        <pt x="150" y="829" on="1"/>
        <pt x="267" y="829" on="1"/>
        <pt x="347" y="705" on="1"/>
        <pt x="262" y="705" on="1"/>
      </contour>
      <contour>
        <pt x="203" y="247" on="1"/>
        <pt x="394" y="247" on="1"/>
        <pt x="357" y="349" on="1"/>
        <pt x="340" y="391" on="0"/>
        <pt x="315" y="464" on="0"/>
        <pt x="301" y="511" on="1"/>
        <pt x="299" y="511" on="1"/>
        <pt x="284" y="467" on="0"/>
        <pt x="258" y="392" on="0"/>
        <pt x="241" y="348" on="1"/>
      </contour>
      <contour>
        <pt x="251" y="630" on="1"/>
        <pt x="353" y="630" on="1"/>
        <pt x="598" y="0" on="1"/>
        <pt x="486" y="0" on="1"/>
        <pt x="423" y="165" on="1"/>
        <pt x="176" y="165" on="1"/>
        <pt x="114" y="0" on="1"/>
        <pt x="3" y="0" on="1"/>
      </contour>
    </TTGlyph>
    <TTGlyph name="Amacron" xMin="3" yMin="0" xMax="598" yMax="772">
      <contour>
        <pt x="423" y="772" on="1"/>
        <pt x="423" y="705" on="1"/>
        <pt x="174" y="705" on="1"/>
        <pt x="174" y="772" on="1"/>
      </contour>
      <contour>
        <pt x="203" y="247" on="1"/>
        <pt x="394" y="247" on="1"/>
        <pt x="357" y="349" on="1"/>
        <pt x="340" y="391" on="0"/>
        <pt x="315" y="464" on="0"/>
        <pt x="301" y="511" on="1"/>
        <pt x="299" y="511" on="1"/>
        <pt x="284" y="467" on="0"/>
        <pt x="258" y="392" on="0"/>
        <pt x="241" y="348" on="1"/>
      </contour>
      <contour>
        <pt x="251" y="630" on="1"/>
        <pt x="353" y="630" on="1"/>
        <pt x="598" y="0" on="1"/>
        <pt x="486" y="0" on="1"/>
        <pt x="423" y="165" on="1"/>
        <pt x="176" y="165" on="1"/>
        <pt x="114" y="0" on="1"/>
        <pt x="3" y="0" on="1"/>
      </contour>
    </TTGlyph>
    <TTGlyph name="Anusvara.tm" xMin="2" yMin="530" xMax="275" yMax="788">
      <contour>
        <pt x="141" y="788" on="1"/>
        <pt x="169" y="788" on="0"/>
        <pt x="218" y="769" on="0"/>
        <pt x="254" y="735" on="0"/>
        <pt x="275" y="687" on="0"/>
        <pt x="275" y="658" on="1"/>
        <pt x="275" y="626" on="0"/>
        <pt x="252" y="579" on="0"/>
        <pt x="213" y="546" on="0"/>
        <pt x="164" y="530" on="0"/>
        <pt x="138" y="530" on="1"/>
        <pt x="113" y="530" on="0"/>
        <pt x="64" y="546" on="0"/>
        <pt x="26" y="578" on="0"/>
        <pt x="2" y="626" on="0"/>
        <pt x="2" y="658" on="1"/>
        <pt x="2" y="716" on="0"/>
        <pt x="78" y="788" on="0"/>
      </contour>
      <contour>
        <pt x="137" y="720" on="1"/>
        <pt x="113" y="720" on="0"/>
        <pt x="84" y="687" on="0"/>
        <pt x="84" y="658" on="1"/>
        <pt x="84" y="629" on="0"/>
        <pt x="115" y="597" on="0"/>
        <pt x="141" y="597" on="1"/>
        <pt x="164" y="597" on="0"/>
        <pt x="195" y="630" on="0"/>
        <pt x="195" y="658" on="1"/>
        <pt x="195" y="689" on="0"/>
        <pt x="161" y="720" on="0"/>
      </contour>
    </TTGlyph>
    <TTGlyph name="Aogonek" xMin="3" yMin="-206" xMax="607" yMax="630">
      <contour>
        <pt x="251" y="630" on="1"/>
        <pt x="353" y="630" on="1"/>
        <pt x="598" y="0" on="1"/>
        <pt x="576" y="0" on="1"/>
        <pt x="533" y="-20" on="0"/>
        <pt x="493" y="-65" on="0"/>
        <pt x="493" y="-89" on="1"/>
        <pt x="493" y="-112" on="0"/>
        <pt x="522" y="-139" on="0"/>
        <pt x="545" y="-139" on="1"/>
        <pt x="559" y="-139" on="0"/>
        <pt x="583" y="-134" on="0"/>
        <pt x="592" y="-131" on="1"/>
        <pt x="607" y="-185" on="1"/>
        <pt x="572" y="-206" on="0"/>
        <pt x="525" y="-206" on="1"/>
        <pt x="479" y="-206" on="0"/>
        <pt x="418" y="-155" on="0"/>
        <pt x="418" y="-108" on="1"/>
        <pt x="418" y="-70" on="0"/>
        <pt x="459" y="-17" on="0"/>
        <pt x="486" y="0" on="1"/>
        <pt x="423" y="165" on="1"/>
        <pt x="176" y="165" on="1"/>
        <pt x="114" y="0" on="1"/>
        <pt x="3" y="0" on="1"/>
      </contour>
      <contour>
        <pt x="203" y="247" on="1"/>
        <pt x="394" y="247" on="1"/>
        <pt x="357" y="349" on="1"/>
        <pt x="340" y="391" on="0"/>
        <pt x="315" y="464" on="0"/>
        <pt x="301" y="511" on="1"/>
        <pt x="299" y="511" on="1"/>
        <pt x="284" y="467" on="0"/>
        <pt x="258" y="392" on="0"/>
        <pt x="241" y="348" on="1"/>
      </contour>
    </TTGlyph>
    <TTGlyph name="Aring" xMin="3" yMin="0" xMax="598" yMax="846">
      <contour>
        <pt x="201" y="761" on="1"/>
        <pt x="201" y="805" on="0"/>
        <pt x="258" y="846" on="0"/>
        <pt x="300" y="846" on="1"/>
        <pt x="344" y="846" on="0"/>
        <pt x="400" y="806" on="0"/>
        <pt x="400" y="761" on="1"/>
        <pt x="400" y="716" on="0"/>
        <pt x="340" y="675" on="0"/>
        <pt x="300" y="675" on="1"/>
        <pt x="260" y="675" on="0"/>
        <pt x="201" y="718" on="0"/>
      </contour>
      <contour>
        <pt x="255" y="761" on="1"/>
        <pt x="255" y="738" on="0"/>
        <pt x="278" y="712" on="0"/>
        <pt x="300" y="712" on="1"/>
        <pt x="322" y="712" on="0"/>
        <pt x="346" y="738" on="0"/>
        <pt x="346" y="761" on="1"/>
        <pt x="346" y="783" on="0"/>
        <pt x="321" y="809" on="0"/>
        <pt x="300" y="809" on="1"/>
        <pt x="279" y="809" on="0"/>
        <pt x="255" y="783" on="0"/>
      </contour>
      <contour>
        <pt x="203" y="247" on="1"/>
        <pt x="394" y="247" on="1"/>
        <pt x="357" y="349" on="1"/>
        <pt x="340" y="391" on="0"/>
        <pt x="315" y="464" on="0"/>
        <pt x="301" y="511" on="1"/>
        <pt x="299" y="511" on="1"/>
        <pt x="284" y="467" on="0"/>
        <pt x="258" y="392" on="0"/>
        <pt x="241" y="348" on="1"/>
      </contour>
      <contour>
        <pt x="251" y="630" on="1"/>
        <pt x="353" y="630" on="1"/>
        <pt x="598" y="0" on="1"/>
        <pt x="486" y="0" on="1"/>
        <pt x="423" y="165" on="1"/>
        <pt x="176" y="165" on="1"/>
        <pt x="114" y="0" on="1"/>
        <pt x="3" y="0" on="1"/>
      </contour>
    </TTGlyph>
    <TTGlyph name="AsAboveSign.tm" xMin="36" yMin="-205" xMax="1763" yMax="735">
      <contour>
        <pt x="938" y="147" on="1"/>
        <pt x="938" y="174" on="0"/>
        <pt x="913" y="218" on="0"/>
        <pt x="874" y="257" on="0"/>
        <pt x="827" y="294" on="0"/>
        <pt x="806" y="314" on="1"/>
        <pt x="778" y="263" on="0"/>
        <pt x="778" y="185" on="1"/>
        <pt x="778" y="126" on="0"/>
        <pt x="829" y="68" on="0"/>
        <pt x="864" y="68" on="1"/>
        <pt x="898" y="68" on="0"/>
        <pt x="938" y="109" on="0"/>
      </contour>
      <contour>
        <pt x="363" y="182" on="1"/>
        <pt x="363" y="161" on="0"/>
        <pt x="379" y="125" on="0"/>
        <pt x="408" y="97" on="0"/>
        <pt x="445" y="79" on="0"/>
        <pt x="466" y="77" on="1"/>
        <pt x="494" y="88" on="0"/>
        <pt x="529" y="142" on="0"/>
        <pt x="529" y="177" on="1"/>
        <pt x="529" y="219" on="0"/>
        <pt x="480" y="266" on="0"/>
        <pt x="445" y="266" on="1"/>
        <pt x="409" y="266" on="0"/>
        <pt x="363" y="220" on="0"/>
      </contour>
      <contour>
        <pt x="1143" y="0" on="1"/>
        <pt x="1117" y="56" on="1"/>
        <pt x="1168" y="125" on="0"/>
        <pt x="1168" y="229" on="1"/>
        <pt x="1168" y="272" on="0"/>
        <pt x="1143" y="345" on="0"/>
        <pt x="1095" y="397" on="0"/>
        <pt x="1025" y="426" on="0"/>
        <pt x="980" y="426" on="1"/>
        <pt x="941" y="426" on="0"/>
        <pt x="875" y="400" on="0"/>
        <pt x="852" y="377" on="1"/>
        <pt x="879" y="351" on="0"/>
        <pt x="942" y="306" on="0"/>
        <pt x="994" y="253" on="0"/>
        <pt x="1029" y="189" on="0"/>
        <pt x="1029" y="146" on="1"/>
        <pt x="1029" y="110" on="0"/>
        <pt x="1004" y="53" on="0"/>
        <pt x="959" y="13" on="0"/>
        <pt x="898" y="-8" on="0"/>
        <pt x="862" y="-8" on="1"/>
        <pt x="827" y="-8" on="0"/>
        <pt x="764" y="16" on="0"/>
        <pt x="716" y="65" on="0"/>
        <pt x="688" y="139" on="0"/>
        <pt x="688" y="188" on="1"/>
        <pt x="688" y="245" on="0"/>
        <pt x="724" y="340" on="0"/>
        <pt x="747" y="372" on="1"/>
        <pt x="732" y="391" on="0"/>
        <pt x="697" y="446" on="0"/>
        <pt x="673" y="484" on="1"/>
        <pt x="653" y="514" on="0"/>
        <pt x="605" y="575" on="0"/>
        <pt x="540" y="624" on="0"/>
        <pt x="458" y="655" on="0"/>
        <pt x="405" y="655" on="1"/>
        <pt x="346" y="655" on="0"/>
        <pt x="246" y="613" on="0"/>
        <pt x="173" y="535" on="0"/>
        <pt x="131" y="423" on="0"/>
        <pt x="131" y="352" on="1"/>
        <pt x="131" y="286" on="0"/>
        <pt x="170" y="178" on="0"/>
        <pt x="239" y="100" on="0"/>
        <pt x="330" y="57" on="0"/>
        <pt x="383" y="57" on="1"/>
        <pt x="384" y="57" on="1"/>
        <pt x="365" y="62" on="0"/>
        <pt x="328" y="85" on="0"/>
        <pt x="298" y="119" on="0"/>
        <pt x="280" y="163" on="0"/>
        <pt x="280" y="190" on="1"/>
        <pt x="280" y="223" on="0"/>
        <pt x="305" y="279" on="0"/>
        <pt x="349" y="321" on="0"/>
        <pt x="410" y="344" on="0"/>
        <pt x="447" y="344" on="1"/>
        <pt x="482" y="344" on="0"/>
        <pt x="544" y="321" on="0"/>
        <pt x="590" y="278" on="0"/>
        <pt x="617" y="217" on="0"/>
        <pt x="617" y="180" on="1"/>
        <pt x="617" y="136" on="0"/>
        <pt x="580" y="66" on="0"/>
        <pt x="515" y="18" on="0"/>
        <pt x="430" y="-8" on="0"/>
        <pt x="382" y="-8" on="1"/>
        <pt x="308" y="-8" on="0"/>
        <pt x="182" y="43" on="0"/>
        <pt x="89" y="137" on="0"/>
        <pt x="36" y="270" on="0"/>
        <pt x="36" y="352" on="1"/>
        <pt x="36" y="436" on="0"/>
        <pt x="91" y="577" on="0"/>
        <pt x="190" y="678" on="0"/>
        <pt x="326" y="735" on="0"/>
        <pt x="408" y="735" on="1"/>
        <pt x="479" y="735" on="0"/>
        <pt x="589" y="691" on="0"/>
        <pt x="671" y="624" on="0"/>
        <pt x="731" y="544" on="0"/>
        <pt x="752" y="509" on="1"/>
        <pt x="767" y="484" on="0"/>
        <pt x="789" y="447" on="0"/>
        <pt x="800" y="432" on="1"/>
        <pt x="835" y="464" on="0"/>
        <pt x="930" y="504" on="0"/>
        <pt x="986" y="504" on="1"/>
        <pt x="1046" y="504" on="0"/>
        <pt x="1147" y="465" on="0"/>
        <pt x="1221" y="394" on="0"/>
        <pt x="1263" y="296" on="0"/>
        <pt x="1263" y="236" on="1"/>
        <pt x="1263" y="184" on="0"/>
        <pt x="1237" y="98" on="0"/>
        <pt x="1223" y="75" on="1"/>
        <pt x="1416" y="75" on="1"/>
        <pt x="1487" y="225" on="1"/>
        <pt x="1409" y="227" on="0"/>
        <pt x="1319" y="304" on="0"/>
        <pt x="1319" y="364" on="1"/>
        <pt x="1319" y="395" on="0"/>
        <pt x="1343" y="447" on="0"/>
        <pt x="1385" y="484" on="0"/>
        <pt x="1441" y="504" on="0"/>
        <pt x="1473" y="504" on="1"/>
        <pt x="1506" y="504" on="0"/>
        <pt x="1561" y="484" on="0"/>
        <pt x="1602" y="448" on="0"/>
        <pt x="1624" y="398" on="0"/>
        <pt x="1624" y="368" on="1"/>
        <pt x="1624" y="349" on="0"/>
        <pt x="1614" y="311" on="0"/>
        <pt x="1606" y="293" on="1"/>
        <pt x="1676" y="288" on="0"/>
        <pt x="1763" y="219" on="0"/>
        <pt x="1763" y="153" on="1"/>
        <pt x="1763" y="84" on="0"/>
        <pt x="1660" y="0" on="0"/>
        <pt x="1563" y="0" on="1"/>
        <pt x="1475" y="0" on="1"/>
        <pt x="1379" y="-205" on="1"/>
        <pt x="1303" y="-174" on="1"/>
        <pt x="1384" y="0" on="1"/>
      </contour>
      <contour>
        <pt x="1577" y="225" on="1"/>
        <pt x="1507" y="75" on="1"/>
        <pt x="1566" y="75" on="1"/>
        <pt x="1620" y="75" on="0"/>
        <pt x="1671" y="121" on="0"/>
        <pt x="1671" y="154" on="1"/>
        <pt x="1671" y="189" on="0"/>
        <pt x="1623" y="225" on="0"/>
        <pt x="1581" y="225" on="1"/>
      </contour>
      <contour>
        <pt x="1407" y="366" on="1"/>
        <pt x="1407" y="331" on="0"/>
        <pt x="1462" y="295" on="0"/>
        <pt x="1509" y="295" on="1"/>
        <pt x="1516" y="295" on="1"/>
        <pt x="1525" y="313" on="0"/>
        <pt x="1536" y="347" on="0"/>
        <pt x="1536" y="363" on="1"/>
        <pt x="1536" y="390" on="0"/>
        <pt x="1500" y="427" on="0"/>
        <pt x="1471" y="427" on="1"/>
        <pt x="1442" y="427" on="0"/>
        <pt x="1407" y="393" on="0"/>
      </contour>
    </TTGlyph>
    <TTGlyph name="Asmall" xMin="5" yMin="0" xMax="477" yMax="472">
      <contour>
        <pt x="176" y="191" on="1"/>
        <pt x="305" y="191" on="1"/>
        <pt x="278" y="265" on="1"/>
        <pt x="268" y="291" on="0"/>
        <pt x="249" y="346" on="0"/>
        <pt x="242" y="369" on="1"/>
        <pt x="240" y="369" on="1"/>
        <pt x="233" y="346" on="0"/>
        <pt x="213" y="291" on="0"/>
        <pt x="203" y="265" on="1"/>
      </contour>
      <contour>
        <pt x="189" y="472" on="1"/>
        <pt x="291" y="472" on="1"/>
        <pt x="477" y="0" on="1"/>
        <pt x="372" y="0" on="1"/>
        <pt x="330" y="116" on="1"/>
        <pt x="150" y="116" on="1"/>
        <pt x="106" y="0" on="1"/>
        <pt x="5" y="0" on="1"/>
      </contour>
    </TTGlyph>
    <TTGlyph name="Atilde" xMin="3" yMin="0" xMax="598" yMax="821">
      <contour>
        <pt x="146" y="705" on="1"/>
        <pt x="146" y="752" on="0"/>
        <pt x="189" y="818" on="0"/>
        <pt x="234" y="818" on="1"/>
        <pt x="254" y="818" on="0"/>
        <pt x="286" y="805" on="0"/>
        <pt x="315" y="789" on="0"/>
        <pt x="342" y="776" on="0"/>
        <pt x="357" y="776" on="1"/>
        <pt x="376" y="776" on="0"/>
        <pt x="392" y="804" on="0"/>
        <pt x="394" y="821" on="1"/>
        <pt x="449" y="821" on="1"/>
        <pt x="449" y="798" on="0"/>
        <pt x="438" y="758" on="0"/>
        <pt x="417" y="726" on="0"/>
        <pt x="386" y="708" on="0"/>
        <pt x="365" y="708" on="1"/>
        <pt x="344" y="708" on="0"/>
        <pt x="308" y="721" on="0"/>
        <pt x="277" y="736" on="0"/>
        <pt x="250" y="749" on="0"/>
        <pt x="238" y="749" on="1"/>
        <pt x="218" y="749" on="0"/>
        <pt x="203" y="723" on="0"/>
        <pt x="201" y="705" on="1"/>
      </contour>
      <contour>
        <pt x="203" y="247" on="1"/>
        <pt x="394" y="247" on="1"/>
        <pt x="357" y="349" on="1"/>
        <pt x="340" y="391" on="0"/>
        <pt x="315" y="464" on="0"/>
        <pt x="301" y="511" on="1"/>
        <pt x="299" y="511" on="1"/>
        <pt x="284" y="467" on="0"/>
        <pt x="258" y="392" on="0"/>
        <pt x="241" y="348" on="1"/>
      </contour>
      <contour>
        <pt x="251" y="630" on="1"/>
        <pt x="353" y="630" on="1"/>
        <pt x="598" y="0" on="1"/>
        <pt x="486" y="0" on="1"/>
        <pt x="423" y="165" on="1"/>
        <pt x="176" y="165" on="1"/>
        <pt x="114" y="0" on="1"/>
        <pt x="3" y="0" on="1"/>
      </contour>
    </TTGlyph>
    <TTGlyph name="B" xMin="76" yMin="0" xMax="501" yMax="630">
      <contour>
        <pt x="277" y="630" on="1"/>
        <pt x="374" y="630" on="0"/>
        <pt x="482" y="547" on="0"/>
        <pt x="482" y="469" on="1"/>
        <pt x="482" y="440" on="0"/>
        <pt x="463" y="395" on="0"/>
        <pt x="432" y="362" on="0"/>
        <pt x="390" y="340" on="0"/>
        <pt x="367" y="334" on="1"/>
        <pt x="395" y="329" on="0"/>
        <pt x="444" y="304" on="0"/>
        <pt x="480" y="265" on="0"/>
        <pt x="501" y="211" on="0"/>
        <pt x="501" y="177" on="1"/>
        <pt x="501" y="138" on="0"/>
        <pt x="467" y="73" on="0"/>
        <pt x="406" y="26" on="0"/>
        <pt x="322" y="0" on="0"/>
        <pt x="271" y="0" on="1"/>
        <pt x="76" y="0" on="1"/>
        <pt x="76" y="630" on="1"/>
      </contour>
      <contour>
        <pt x="183" y="371" on="1"/>
        <pt x="255" y="371" on="1"/>
        <pt x="279" y="371" on="0"/>
        <pt x="322" y="379" on="0"/>
        <pt x="353" y="400" on="0"/>
        <pt x="372" y="435" on="0"/>
        <pt x="372" y="461" on="1"/>
        <pt x="372" y="505" on="0"/>
        <pt x="312" y="546" on="0"/>
        <pt x="261" y="546" on="1"/>
        <pt x="183" y="546" on="1"/>
      </contour>
      <contour>
        <pt x="183" y="84" on="1"/>
        <pt x="258" y="84" on="1"/>
        <pt x="285" y="84" on="0"/>
        <pt x="333" y="95" on="0"/>
        <pt x="369" y="119" on="0"/>
        <pt x="390" y="158" on="0"/>
        <pt x="390" y="187" on="1"/>
        <pt x="390" y="215" on="0"/>
        <pt x="366" y="254" on="0"/>
        <pt x="326" y="278" on="0"/>
        <pt x="274" y="288" on="0"/>
        <pt x="246" y="288" on="1"/>
        <pt x="183" y="288" on="1"/>
      </contour>
    </TTGlyph>
    <TTGlyph name="Bsmall" xMin="74" yMin="0" xMax="439" yMax="472">
      <contour>
        <pt x="258" y="472" on="1"/>
        <pt x="339" y="472" on="0"/>
        <pt x="418" y="407" on="0"/>
        <pt x="418" y="354" on="1"/>
        <pt x="418" y="316" on="0"/>
        <pt x="373" y="265" on="0"/>
        <pt x="336" y="253" on="1"/>
        <pt x="386" y="241" on="0"/>
        <pt x="439" y="182" on="0"/>
        <pt x="439" y="135" on="1"/>
        <pt x="439" y="107" on="0"/>
        <pt x="416" y="58" on="0"/>
        <pt x="371" y="21" on="0"/>
        <pt x="302" y="0" on="0"/>
        <pt x="257" y="0" on="1"/>
        <pt x="74" y="0" on="1"/>
        <pt x="74" y="472" on="1"/>
      </contour>
      <contour>
        <pt x="176" y="283" on="1"/>
        <pt x="237" y="283" on="1"/>
        <pt x="269" y="283" on="0"/>
        <pt x="313" y="308" on="0"/>
        <pt x="313" y="340" on="1"/>
        <pt x="313" y="366" on="0"/>
        <pt x="277" y="394" on="0"/>
        <pt x="235" y="394" on="1"/>
        <pt x="176" y="394" on="1"/>
      </contour>
      <contour>
        <pt x="176" y="78" on="1"/>
        <pt x="235" y="78" on="1"/>
        <pt x="282" y="78" on="0"/>
        <pt x="332" y="109" on="0"/>
        <pt x="332" y="144" on="1"/>
        <pt x="332" y="167" on="0"/>
        <pt x="297" y="207" on="0"/>
        <pt x="252" y="207" on="1"/>
        <pt x="176" y="207" on="1"/>
      </contour>
    </TTGlyph>
    <TTGlyph name="C" xMin="43" yMin="-10" xMax="531" yMax="640">
      <contour>
        <pt x="363" y="76" on="1"/>
        <pt x="412" y="76" on="0"/>
        <pt x="477" y="93" on="0"/>
        <pt x="506" y="107" on="1"/>
        <pt x="529" y="24" on="1"/>
        <pt x="497" y="9" on="0"/>
        <pt x="413" y="-10" on="0"/>
        <pt x="352" y="-10" on="1"/>
        <pt x="287" y="-10" on="0"/>
        <pt x="174" y="33" on="0"/>
        <pt x="91" y="116" on="0"/>
        <pt x="43" y="237" on="0"/>
        <pt x="43" y="315" on="1"/>
        <pt x="43" y="391" on="0"/>
        <pt x="89" y="512" on="0"/>
        <pt x="172" y="596" on="0"/>
        <pt x="287" y="640" on="0"/>
        <pt x="356" y="640" on="1"/>
        <pt x="419" y="640" on="0"/>
        <pt x="500" y="619" on="0"/>
        <pt x="531" y="602" on="1"/>
        <pt x="506" y="521" on="1"/>
        <pt x="472" y="536" on="0"/>
        <pt x="411" y="554" on="0"/>
        <pt x="369" y="554" on="1"/>
        <pt x="326" y="554" on="0"/>
        <pt x="249" y="528" on="0"/>
        <pt x="192" y="470" on="0"/>
        <pt x="158" y="379" on="0"/>
        <pt x="158" y="315" on="1"/>
        <pt x="158" y="251" on="0"/>
        <pt x="191" y="160" on="0"/>
        <pt x="246" y="103" on="0"/>
        <pt x="321" y="76" on="0"/>
      </contour>
    </TTGlyph>
    <TTGlyph name="Ca.tm" xMin="29" yMin="-8" xMax="589" yMax="498">
      <contour>
        <pt x="568" y="498" on="1"/>
        <pt x="568" y="425" on="1"/>
        <pt x="424" y="425" on="1"/>
        <pt x="424" y="297" on="1"/>
        <pt x="589" y="297" on="1"/>
        <pt x="589" y="225" on="1"/>
        <pt x="424" y="225" on="1"/>
        <pt x="424" y="152" on="1"/>
        <pt x="424" y="80" on="0"/>
        <pt x="324" y="-8" on="0"/>
        <pt x="232" y="-8" on="1"/>
        <pt x="188" y="-8" on="0"/>
        <pt x="114" y="15" on="0"/>
        <pt x="60" y="57" on="0"/>
        <pt x="29" y="117" on="0"/>
        <pt x="29" y="155" on="1"/>
        <pt x="29" y="182" on="0"/>
        <pt x="45" y="227" on="0"/>
        <pt x="72" y="261" on="0"/>
        <pt x="107" y="283" on="0"/>
        <pt x="126" y="287" on="1"/>
        <pt x="126" y="498" on="1"/>
      </contour>
      <contour>
        <pt x="203" y="224" on="1"/>
        <pt x="164" y="224" on="0"/>
        <pt x="119" y="188" on="0"/>
        <pt x="119" y="153" on="1"/>
        <pt x="119" y="114" on="0"/>
        <pt x="181" y="66" on="0"/>
        <pt x="235" y="66" on="1"/>
        <pt x="283" y="66" on="0"/>
        <pt x="337" y="115" on="0"/>
        <pt x="337" y="159" on="1"/>
        <pt x="337" y="224" on="1"/>
      </contour>
      <contour>
        <pt x="212" y="297" on="1"/>
        <pt x="338" y="297" on="1"/>
        <pt x="338" y="425" on="1"/>
        <pt x="212" y="425" on="1"/>
      </contour>
    </TTGlyph>
    <TTGlyph name="CaMatraI.tm" xMin="29" yMin="-8" xMax="771" yMax="760">
      <contour>
        <pt x="328" y="498" on="1"/>
        <pt x="315" y="535" on="0"/>
        <pt x="315" y="577" on="1"/>
        <pt x="315" y="617" on="0"/>
        <pt x="345" y="684" on="0"/>
        <pt x="402" y="733" on="0"/>
        <pt x="482" y="760" on="0"/>
        <pt x="532" y="760" on="1"/>
        <pt x="648" y="760" on="0"/>
        <pt x="771" y="619" on="0"/>
        <pt x="771" y="492" on="1"/>
        <pt x="771" y="0" on="1"/>
        <pt x="679" y="0" on="1"/>
        <pt x="679" y="488" on="1"/>
        <pt x="679" y="583" on="0"/>
        <pt x="604" y="681" on="0"/>
        <pt x="527" y="681" on="1"/>
        <pt x="468" y="681" on="0"/>
        <pt x="406" y="620" on="0"/>
        <pt x="406" y="568" on="1"/>
        <pt x="406" y="526" on="0"/>
        <pt x="418" y="498" on="1"/>
        <pt x="568" y="498" on="1"/>
        <pt x="568" y="425" on="1"/>
        <pt x="424" y="425" on="1"/>
        <pt x="424" y="297" on="1"/>
        <pt x="589" y="297" on="1"/>
        <pt x="589" y="225" on="1"/>
        <pt x="424" y="225" on="1"/>
        <pt x="424" y="152" on="1"/>
        <pt x="424" y="80" on="0"/>
        <pt x="324" y="-8" on="0"/>
        <pt x="232" y="-8" on="1"/>
        <pt x="188" y="-8" on="0"/>
        <pt x="114" y="15" on="0"/>
        <pt x="60" y="57" on="0"/>
        <pt x="29" y="117" on="0"/>
        <pt x="29" y="155" on="1"/>
        <pt x="29" y="182" on="0"/>
        <pt x="45" y="227" on="0"/>
        <pt x="72" y="261" on="0"/>
        <pt x="107" y="283" on="0"/>
        <pt x="126" y="287" on="1"/>
        <pt x="126" y="498" on="1"/>
      </contour>
      <contour>
        <pt x="203" y="224" on="1"/>
        <pt x="164" y="224" on="0"/>
        <pt x="119" y="188" on="0"/>
        <pt x="119" y="153" on="1"/>
        <pt x="119" y="114" on="0"/>
        <pt x="181" y="66" on="0"/>
        <pt x="235" y="66" on="1"/>
        <pt x="283" y="66" on="0"/>
        <pt x="337" y="115" on="0"/>
        <pt x="337" y="159" on="1"/>
        <pt x="337" y="224" on="1"/>
      </contour>
      <contour>
        <pt x="212" y="297" on="1"/>
        <pt x="338" y="297" on="1"/>
        <pt x="338" y="425" on="1"/>
        <pt x="212" y="425" on="1"/>
      </contour>
    </TTGlyph>
    <TTGlyph name="CaMatraIi.tm" xMin="29" yMin="-8" xMax="654" yMax="798">
      <contour>
        <pt x="489" y="798" on="1"/>
        <pt x="529" y="798" on="0"/>
        <pt x="591" y="778" on="0"/>
        <pt x="633" y="745" on="0"/>
        <pt x="654" y="701" on="0"/>
        <pt x="654" y="677" on="1"/>
        <pt x="654" y="626" on="0"/>
        <pt x="584" y="566" on="0"/>
        <pt x="533" y="566" on="1"/>
        <pt x="484" y="566" on="0"/>
        <pt x="421" y="624" on="0"/>
        <pt x="421" y="668" on="1"/>
        <pt x="421" y="710" on="0"/>
        <pt x="450" y="737" on="1"/>
        <pt x="412" y="729" on="0"/>
        <pt x="362" y="665" on="0"/>
        <pt x="362" y="616" on="1"/>
        <pt x="362" y="580" on="0"/>
        <pt x="391" y="517" on="0"/>
        <pt x="413" y="498" on="1"/>
        <pt x="568" y="498" on="1"/>
        <pt x="568" y="425" on="1"/>
        <pt x="424" y="425" on="1"/>
        <pt x="424" y="297" on="1"/>
        <pt x="589" y="297" on="1"/>
        <pt x="589" y="225" on="1"/>
        <pt x="424" y="225" on="1"/>
        <pt x="424" y="152" on="1"/>
        <pt x="424" y="80" on="0"/>
        <pt x="324" y="-8" on="0"/>
        <pt x="232" y="-8" on="1"/>
        <pt x="188" y="-8" on="0"/>
        <pt x="114" y="15" on="0"/>
        <pt x="60" y="57" on="0"/>
        <pt x="29" y="117" on="0"/>
        <pt x="29" y="155" on="1"/>
        <pt x="29" y="182" on="0"/>
        <pt x="45" y="227" on="0"/>
        <pt x="72" y="261" on="0"/>
        <pt x="107" y="283" on="0"/>
        <pt x="126" y="287" on="1"/>
        <pt x="126" y="498" on="1"/>
        <pt x="319" y="498" on="1"/>
        <pt x="299" y="521" on="0"/>
        <pt x="276" y="584" on="0"/>
        <pt x="276" y="616" on="1"/>
        <pt x="276" y="660" on="0"/>
        <pt x="310" y="728" on="0"/>
        <pt x="368" y="774" on="0"/>
        <pt x="445" y="798" on="0"/>
      </contour>
      <contour>
        <pt x="203" y="224" on="1"/>
        <pt x="164" y="224" on="0"/>
        <pt x="119" y="188" on="0"/>
        <pt x="119" y="153" on="1"/>
        <pt x="119" y="114" on="0"/>
        <pt x="181" y="66" on="0"/>
        <pt x="235" y="66" on="1"/>
        <pt x="283" y="66" on="0"/>
        <pt x="337" y="115" on="0"/>
        <pt x="337" y="159" on="1"/>
        <pt x="337" y="224" on="1"/>
      </contour>
      <contour>
        <pt x="212" y="297" on="1"/>
        <pt x="338" y="297" on="1"/>
        <pt x="338" y="425" on="1"/>
        <pt x="212" y="425" on="1"/>
      </contour>
      <contour>
        <pt x="582" y="679" on="1"/>
        <pt x="582" y="703" on="0"/>
        <pt x="548" y="733" on="0"/>
        <pt x="525" y="735" on="1"/>
        <pt x="508" y="728" on="0"/>
        <pt x="488" y="698" on="0"/>
        <pt x="488" y="678" on="1"/>
        <pt x="488" y="656" on="0"/>
        <pt x="515" y="631" on="0"/>
        <pt x="535" y="631" on="1"/>
        <pt x="555" y="631" on="0"/>
        <pt x="582" y="656" on="0"/>
      </contour>
    </TTGlyph>
    <TTGlyph name="CaMatraU.tm" xMin="29" yMin="-8" xMax="661" yMax="498">
      <contour>
        <pt x="575" y="498" on="1"/>
        <pt x="575" y="425" on="1"/>
        <pt x="424" y="425" on="1"/>
        <pt x="424" y="297" on="1"/>
        <pt x="661" y="297" on="1"/>
        <pt x="661" y="225" on="1"/>
        <pt x="599" y="225" on="1"/>
        <pt x="599" y="0" on="1"/>
        <pt x="512" y="0" on="1"/>
        <pt x="512" y="225" on="1"/>
        <pt x="424" y="225" on="1"/>
        <pt x="424" y="152" on="1"/>
        <pt x="424" y="80" on="0"/>
        <pt x="324" y="-8" on="0"/>
        <pt x="232" y="-8" on="1"/>
        <pt x="188" y="-8" on="0"/>
        <pt x="114" y="15" on="0"/>
        <pt x="60" y="57" on="0"/>
        <pt x="29" y="117" on="0"/>
        <pt x="29" y="155" on="1"/>
        <pt x="29" y="182" on="0"/>
        <pt x="45" y="227" on="0"/>
        <pt x="72" y="261" on="0"/>
        <pt x="107" y="283" on="0"/>
        <pt x="126" y="287" on="1"/>
        <pt x="126" y="498" on="1"/>
      </contour>
      <contour>
        <pt x="203" y="224" on="1"/>
        <pt x="164" y="224" on="0"/>
        <pt x="119" y="188" on="0"/>
        <pt x="119" y="153" on="1"/>
        <pt x="119" y="114" on="0"/>
        <pt x="181" y="66" on="0"/>
        <pt x="235" y="66" on="1"/>
        <pt x="283" y="66" on="0"/>
        <pt x="337" y="115" on="0"/>
        <pt x="337" y="159" on="1"/>
        <pt x="337" y="224" on="1"/>
      </contour>
      <contour>
        <pt x="212" y="297" on="1"/>
        <pt x="338" y="297" on="1"/>
        <pt x="338" y="425" on="1"/>
        <pt x="212" y="425" on="1"/>
      </contour>
    </TTGlyph>
    <TTGlyph name="CaMatraUu.tm" xMin="38" yMin="-280" xMax="1055" yMax="507">
      <contour>
        <pt x="922" y="189" on="1"/>
        <pt x="952" y="189" on="0"/>
        <pt x="1001" y="166" on="0"/>
        <pt x="1036" y="125" on="0"/>
        <pt x="1055" y="69" on="0"/>
        <pt x="1055" y="36" on="1"/>
        <pt x="1055" y="-32" on="0"/>
        <pt x="986" y="-147" on="0"/>
        <pt x="858" y="-232" on="0"/>
        <pt x="677" y="-280" on="0"/>
        <pt x="566" y="-280" on="1"/>
        <pt x="448" y="-280" on="0"/>
        <pt x="254" y="-219" on="0"/>
        <pt x="115" y="-106" on="0"/>
        <pt x="38" y="52" on="0"/>
        <pt x="38" y="149" on="1"/>
        <pt x="38" y="210" on="0"/>
        <pt x="63" y="316" on="0"/>
        <pt x="106" y="406" on="0"/>
        <pt x="165" y="479" on="0"/>
        <pt x="199" y="507" on="1"/>
        <pt x="259" y="451" on="1"/>
        <pt x="233" y="426" on="0"/>
        <pt x="186" y="364" on="0"/>
        <pt x="151" y="289" on="0"/>
        <pt x="130" y="201" on="0"/>
        <pt x="130" y="149" on="1"/>
        <pt x="130" y="70" on="0"/>
        <pt x="194" y="-59" on="0"/>
        <pt x="309" y="-151" on="0"/>
        <pt x="471" y="-202" on="0"/>
        <pt x="570" y="-202" on="1"/>
        <pt x="661" y="-202" on="0"/>
        <pt x="807" y="-166" on="0"/>
        <pt x="911" y="-102" on="0"/>
        <pt x="967" y="-15" on="0"/>
        <pt x="967" y="36" on="1"/>
        <pt x="967" y="72" on="0"/>
        <pt x="931" y="119" on="0"/>
        <pt x="898" y="119" on="1"/>
        <pt x="877" y="119" on="0"/>
        <pt x="842" y="95" on="0"/>
        <pt x="831" y="72" on="1"/>
        <pt x="831" y="0" on="1"/>
        <pt x="745" y="0" on="1"/>
        <pt x="745" y="224" on="1"/>
        <pt x="657" y="224" on="1"/>
        <pt x="657" y="152" on="1"/>
        <pt x="657" y="80" on="0"/>
        <pt x="557" y="-8" on="0"/>
        <pt x="465" y="-8" on="1"/>
        <pt x="421" y="-8" on="0"/>
        <pt x="347" y="15" on="0"/>
        <pt x="293" y="57" on="0"/>
        <pt x="262" y="117" on="0"/>
        <pt x="262" y="155" on="1"/>
        <pt x="262" y="182" on="0"/>
        <pt x="278" y="227" on="0"/>
        <pt x="305" y="261" on="0"/>
        <pt x="340" y="283" on="0"/>
        <pt x="359" y="287" on="1"/>
        <pt x="359" y="498" on="1"/>
        <pt x="810" y="498" on="1"/>
        <pt x="810" y="425" on="1"/>
        <pt x="657" y="425" on="1"/>
        <pt x="657" y="297" on="1"/>
        <pt x="905" y="297" on="1"/>
        <pt x="905" y="228" on="1"/>
        <pt x="827" y="228" on="1"/>
        <pt x="827" y="148" on="1"/>
        <pt x="844" y="167" on="0"/>
        <pt x="893" y="189" on="0"/>
      </contour>
      <contour>
        <pt x="436" y="224" on="1"/>
        <pt x="398" y="224" on="0"/>
        <pt x="352" y="188" on="0"/>
        <pt x="352" y="153" on="1"/>
        <pt x="352" y="114" on="0"/>
        <pt x="415" y="66" on="0"/>
        <pt x="468" y="66" on="1"/>
        <pt x="516" y="66" on="0"/>
        <pt x="570" y="115" on="0"/>
        <pt x="570" y="159" on="1"/>
        <pt x="570" y="224" on="1"/>
      </contour>
      <contour>
        <pt x="446" y="297" on="1"/>
        <pt x="571" y="297" on="1"/>
        <pt x="571" y="425" on="1"/>
        <pt x="446" y="425" on="1"/>
      </contour>
    </TTGlyph>
    <TTGlyph name="CaPulli.tm" xMin="29" yMin="-8" xMax="589" yMax="709">
      <contour>
        <pt x="568" y="498" on="1"/>
        <pt x="568" y="425" on="1"/>
        <pt x="424" y="425" on="1"/>
        <pt x="424" y="297" on="1"/>
        <pt x="589" y="297" on="1"/>
        <pt x="589" y="225" on="1"/>
        <pt x="424" y="225" on="1"/>
        <pt x="424" y="152" on="1"/>
        <pt x="424" y="80" on="0"/>
        <pt x="324" y="-8" on="0"/>
        <pt x="232" y="-8" on="1"/>
        <pt x="188" y="-8" on="0"/>
        <pt x="114" y="15" on="0"/>
        <pt x="60" y="57" on="0"/>
        <pt x="29" y="117" on="0"/>
        <pt x="29" y="155" on="1"/>
        <pt x="29" y="182" on="0"/>
        <pt x="45" y="227" on="0"/>
        <pt x="72" y="261" on="0"/>
        <pt x="107" y="283" on="0"/>
        <pt x="126" y="287" on="1"/>
        <pt x="126" y="498" on="1"/>
      </contour>
      <contour>
        <pt x="203" y="224" on="1"/>
        <pt x="164" y="224" on="0"/>
        <pt x="119" y="188" on="0"/>
        <pt x="119" y="153" on="1"/>
        <pt x="119" y="114" on="0"/>
        <pt x="181" y="66" on="0"/>
        <pt x="235" y="66" on="1"/>
        <pt x="283" y="66" on="0"/>
        <pt x="337" y="115" on="0"/>
        <pt x="337" y="159" on="1"/>
        <pt x="337" y="224" on="1"/>
      </contour>
      <contour>
        <pt x="212" y="297" on="1"/>
        <pt x="338" y="297" on="1"/>
        <pt x="338" y="425" on="1"/>
        <pt x="212" y="425" on="1"/>
      </contour>
      <contour>
        <pt x="308" y="709" on="1"/>
        <pt x="335" y="709" on="0"/>
        <pt x="371" y="673" on="0"/>
        <pt x="371" y="647" on="1"/>
        <pt x="371" y="621" on="0"/>
        <pt x="336" y="585" on="0"/>
        <pt x="310" y="585" on="1"/>
        <pt x="282" y="585" on="0"/>
        <pt x="246" y="621" on="0"/>
        <pt x="246" y="647" on="1"/>
        <pt x="246" y="673" on="0"/>
        <pt x="282" y="709" on="0"/>
      </contour>
    </TTGlyph>
    <TTGlyph name="Cacute" xMin="43" yMin="-10" xMax="531" yMax="829">
      <contour>
        <pt x="363" y="76" on="1"/>
        <pt x="412" y="76" on="0"/>
        <pt x="477" y="93" on="0"/>
        <pt x="506" y="107" on="1"/>
        <pt x="529" y="24" on="1"/>
        <pt x="497" y="9" on="0"/>
        <pt x="413" y="-10" on="0"/>
        <pt x="352" y="-10" on="1"/>
        <pt x="287" y="-10" on="0"/>
        <pt x="174" y="33" on="0"/>
        <pt x="91" y="116" on="0"/>
        <pt x="43" y="237" on="0"/>
        <pt x="43" y="315" on="1"/>
        <pt x="43" y="391" on="0"/>
        <pt x="89" y="512" on="0"/>
        <pt x="172" y="596" on="0"/>
        <pt x="287" y="640" on="0"/>
        <pt x="356" y="640" on="1"/>
        <pt x="419" y="640" on="0"/>
        <pt x="500" y="619" on="0"/>
        <pt x="531" y="602" on="1"/>
        <pt x="506" y="521" on="1"/>
        <pt x="472" y="536" on="0"/>
        <pt x="411" y="554" on="0"/>
        <pt x="369" y="554" on="1"/>
        <pt x="326" y="554" on="0"/>
        <pt x="249" y="528" on="0"/>
        <pt x="192" y="470" on="0"/>
        <pt x="158" y="379" on="0"/>
        <pt x="158" y="315" on="1"/>
        <pt x="158" y="251" on="0"/>
        <pt x="191" y="160" on="0"/>
        <pt x="246" y="103" on="0"/>
        <pt x="321" y="76" on="0"/>
      </contour>
      <contour>
        <pt x="334" y="705" on="1"/>
        <pt x="249" y="705" on="1"/>
        <pt x="329" y="829" on="1"/>
        <pt x="446" y="829" on="1"/>
      </contour>
    </TTGlyph>
    <TTGlyph name="Ccaron" xMin="43" yMin="-10" xMax="531" yMax="837">
      <contour>
        <pt x="363" y="76" on="1"/>
        <pt x="412" y="76" on="0"/>
        <pt x="477" y="93" on="0"/>
        <pt x="506" y="107" on="1"/>
        <pt x="529" y="24" on="1"/>
        <pt x="497" y="9" on="0"/>
        <pt x="413" y="-10" on="0"/>
        <pt x="352" y="-10" on="1"/>
        <pt x="287" y="-10" on="0"/>
        <pt x="174" y="33" on="0"/>
        <pt x="91" y="116" on="0"/>
        <pt x="43" y="237" on="0"/>
        <pt x="43" y="315" on="1"/>
        <pt x="43" y="391" on="0"/>
        <pt x="89" y="512" on="0"/>
        <pt x="172" y="596" on="0"/>
        <pt x="287" y="640" on="0"/>
        <pt x="356" y="640" on="1"/>
        <pt x="419" y="640" on="0"/>
        <pt x="500" y="619" on="0"/>
        <pt x="531" y="602" on="1"/>
        <pt x="506" y="521" on="1"/>
        <pt x="472" y="536" on="0"/>
        <pt x="411" y="554" on="0"/>
        <pt x="369" y="554" on="1"/>
        <pt x="326" y="554" on="0"/>
        <pt x="249" y="528" on="0"/>
        <pt x="192" y="470" on="0"/>
        <pt x="158" y="379" on="0"/>
        <pt x="158" y="315" on="1"/>
        <pt x="158" y="251" on="0"/>
        <pt x="191" y="160" on="0"/>
        <pt x="246" y="103" on="0"/>
        <pt x="321" y="76" on="0"/>
      </contour>
      <contour>
        <pt x="184" y="837" on="1"/>
        <pt x="271" y="837" on="1"/>
        <pt x="345" y="756" on="1"/>
        <pt x="419" y="837" on="1"/>
        <pt x="505" y="837" on="1"/>
        <pt x="383" y="706" on="1"/>
        <pt x="304" y="706" on="1"/>
      </contour>
    </TTGlyph>
    <TTGlyph name="Ccedilla" xMin="43" yMin="-214" xMax="531" yMax="640">
      <contour>
        <pt x="363" y="76" on="1"/>
        <pt x="412" y="76" on="0"/>
        <pt x="477" y="93" on="0"/>
        <pt x="506" y="107" on="1"/>
        <pt x="529" y="24" on="1"/>
        <pt x="498" y="10" on="0"/>
        <pt x="418" y="-8" on="0"/>
        <pt x="361" y="-10" on="1"/>
        <pt x="345" y="-47" on="1"/>
        <pt x="396" y="-49" on="0"/>
        <pt x="438" y="-97" on="0"/>
        <pt x="438" y="-126" on="1"/>
        <pt x="438" y="-169" on="0"/>
        <pt x="369" y="-214" on="0"/>
        <pt x="318" y="-214" on="1"/>
        <pt x="295" y="-214" on="0"/>
        <pt x="254" y="-207" on="0"/>
        <pt x="241" y="-202" on="1"/>
        <pt x="255" y="-155" on="1"/>
        <pt x="279" y="-164" on="0"/>
        <pt x="308" y="-164" on="1"/>
        <pt x="369" y="-164" on="0"/>
        <pt x="369" y="-125" on="1"/>
        <pt x="369" y="-116" on="0"/>
        <pt x="362" y="-99" on="0"/>
        <pt x="342" y="-86" on="0"/>
        <pt x="305" y="-78" on="0"/>
        <pt x="276" y="-78" on="1"/>
        <pt x="307" y="-7" on="1"/>
        <pt x="250" y="0" on="0"/>
        <pt x="153" y="49" on="0"/>
        <pt x="83" y="130" on="0"/>
        <pt x="43" y="244" on="0"/>
        <pt x="43" y="315" on="1"/>
        <pt x="43" y="391" on="0"/>
        <pt x="89" y="512" on="0"/>
        <pt x="172" y="596" on="0"/>
        <pt x="287" y="640" on="0"/>
        <pt x="356" y="640" on="1"/>
        <pt x="419" y="640" on="0"/>
        <pt x="500" y="619" on="0"/>
        <pt x="531" y="602" on="1"/>
        <pt x="506" y="521" on="1"/>
        <pt x="472" y="536" on="0"/>
        <pt x="411" y="554" on="0"/>
        <pt x="369" y="554" on="1"/>
        <pt x="326" y="554" on="0"/>
        <pt x="249" y="528" on="0"/>
        <pt x="192" y="470" on="0"/>
        <pt x="158" y="379" on="0"/>
        <pt x="158" y="315" on="1"/>
        <pt x="158" y="251" on="0"/>
        <pt x="191" y="160" on="0"/>
        <pt x="246" y="103" on="0"/>
        <pt x="321" y="76" on="0"/>
      </contour>
    </TTGlyph>
    <TTGlyph name="Ccircumflex" xMin="43" yMin="-10" xMax="531" yMax="836">
      <contour>
        <pt x="363" y="76" on="1"/>
        <pt x="412" y="76" on="0"/>
        <pt x="477" y="93" on="0"/>
        <pt x="506" y="107" on="1"/>
        <pt x="529" y="24" on="1"/>
        <pt x="497" y="9" on="0"/>
        <pt x="413" y="-10" on="0"/>
        <pt x="352" y="-10" on="1"/>
        <pt x="287" y="-10" on="0"/>
        <pt x="174" y="33" on="0"/>
        <pt x="91" y="116" on="0"/>
        <pt x="43" y="237" on="0"/>
        <pt x="43" y="315" on="1"/>
        <pt x="43" y="391" on="0"/>
        <pt x="89" y="512" on="0"/>
        <pt x="172" y="596" on="0"/>
        <pt x="287" y="640" on="0"/>
        <pt x="356" y="640" on="1"/>
        <pt x="419" y="640" on="0"/>
        <pt x="500" y="619" on="0"/>
        <pt x="531" y="602" on="1"/>
        <pt x="506" y="521" on="1"/>
        <pt x="472" y="536" on="0"/>
        <pt x="411" y="554" on="0"/>
        <pt x="369" y="554" on="1"/>
        <pt x="326" y="554" on="0"/>
        <pt x="249" y="528" on="0"/>
        <pt x="192" y="470" on="0"/>
        <pt x="158" y="379" on="0"/>
        <pt x="158" y="315" on="1"/>
        <pt x="158" y="251" on="0"/>
        <pt x="191" y="160" on="0"/>
        <pt x="246" y="103" on="0"/>
        <pt x="321" y="76" on="0"/>
      </contour>
      <contour>
        <pt x="297" y="836" on="1"/>
        <pt x="376" y="836" on="1"/>
        <pt x="498" y="705" on="1"/>
        <pt x="411" y="705" on="1"/>
        <pt x="336" y="784" on="1"/>
        <pt x="261" y="705" on="1"/>
        <pt x="177" y="705" on="1"/>
      </contour>
    </TTGlyph>
    <TTGlyph name="Cdotaccent" xMin="43" yMin="-10" xMax="531" yMax="820">
      <contour>
        <pt x="363" y="76" on="1"/>
        <pt x="412" y="76" on="0"/>
        <pt x="477" y="93" on="0"/>
        <pt x="506" y="107" on="1"/>
        <pt x="529" y="24" on="1"/>
        <pt x="497" y="9" on="0"/>
        <pt x="413" y="-10" on="0"/>
        <pt x="352" y="-10" on="1"/>
        <pt x="287" y="-10" on="0"/>
        <pt x="174" y="33" on="0"/>
        <pt x="91" y="116" on="0"/>
        <pt x="43" y="237" on="0"/>
        <pt x="43" y="315" on="1"/>
        <pt x="43" y="391" on="0"/>
        <pt x="89" y="512" on="0"/>
        <pt x="172" y="596" on="0"/>
        <pt x="287" y="640" on="0"/>
        <pt x="356" y="640" on="1"/>
        <pt x="419" y="640" on="0"/>
        <pt x="500" y="619" on="0"/>
        <pt x="531" y="602" on="1"/>
        <pt x="506" y="521" on="1"/>
        <pt x="472" y="536" on="0"/>
        <pt x="411" y="554" on="0"/>
        <pt x="369" y="554" on="1"/>
        <pt x="326" y="554" on="0"/>
        <pt x="249" y="528" on="0"/>
        <pt x="192" y="470" on="0"/>
        <pt x="158" y="379" on="0"/>
        <pt x="158" y="315" on="1"/>
        <pt x="158" y="251" on="0"/>
        <pt x="191" y="160" on="0"/>
        <pt x="246" y="103" on="0"/>
        <pt x="321" y="76" on="0"/>
      </contour>
      <contour>
        <pt x="293" y="762" on="1"/>
        <pt x="293" y="785" on="0"/>
        <pt x="329" y="820" on="0"/>
        <pt x="352" y="820" on="1"/>
        <pt x="377" y="820" on="0"/>
        <pt x="411" y="785" on="0"/>
        <pt x="411" y="762" on="1"/>
        <pt x="411" y="737" on="0"/>
        <pt x="377" y="702" on="0"/>
        <pt x="352" y="702" on="1"/>
        <pt x="329" y="702" on="0"/>
        <pt x="293" y="737" on="0"/>
      </contour>
    </TTGlyph>
    <TTGlyph name="CreditSign.tm" xMin="39" yMin="-8" xMax="1290" yMax="498">
      <contour>
        <pt x="909" y="402" on="1"/>
        <pt x="963" y="402" on="0"/>
        <pt x="1052" y="370" on="0"/>
        <pt x="1115" y="313" on="0"/>
        <pt x="1150" y="233" on="0"/>
        <pt x="1150" y="185" on="1"/>
        <pt x="1150" y="150" on="0"/>
        <pt x="1133" y="93" on="0"/>
        <pt x="1124" y="75" on="1"/>
        <pt x="1290" y="75" on="1"/>
        <pt x="1290" y="0" on="1"/>
        <pt x="1055" y="0" on="1"/>
        <pt x="1029" y="56" on="1"/>
        <pt x="1046" y="83" on="0"/>
        <pt x="1064" y="144" on="0"/>
        <pt x="1064" y="184" on="1"/>
        <pt x="1064" y="253" on="0"/>
        <pt x="977" y="331" on="0"/>
        <pt x="905" y="331" on="1"/>
        <pt x="859" y="331" on="0"/>
        <pt x="791" y="294" on="0"/>
        <pt x="775" y="264" on="1"/>
        <pt x="788" y="270" on="0"/>
        <pt x="816" y="277" on="0"/>
        <pt x="833" y="277" on="1"/>
        <pt x="863" y="277" on="0"/>
        <pt x="918" y="259" on="0"/>
        <pt x="958" y="223" on="0"/>
        <pt x="982" y="170" on="0"/>
        <pt x="982" y="135" on="1"/>
        <pt x="982" y="104" on="0"/>
        <pt x="959" y="52" on="0"/>
        <pt x="917" y="14" on="0"/>
        <pt x="860" y="-7" on="0"/>
        <pt x="826" y="-7" on="1"/>
        <pt x="791" y="-7" on="0"/>
        <pt x="738" y="17" on="0"/>
        <pt x="700" y="57" on="0"/>
        <pt x="680" y="110" on="0"/>
        <pt x="678" y="139" on="1"/>
        <pt x="663" y="125" on="0"/>
        <pt x="632" y="90" on="0"/>
        <pt x="605" y="53" on="0"/>
        <pt x="583" y="15" on="0"/>
        <pt x="577" y="0" on="1"/>
        <pt x="496" y="0" on="1"/>
        <pt x="496" y="423" on="1"/>
        <pt x="355" y="423" on="1"/>
        <pt x="309" y="423" on="0"/>
        <pt x="230" y="401" on="0"/>
        <pt x="171" y="358" on="0"/>
        <pt x="133" y="292" on="0"/>
        <pt x="127" y="248" on="1"/>
        <pt x="146" y="271" on="0"/>
        <pt x="202" y="297" on="0"/>
        <pt x="236" y="297" on="1"/>
        <pt x="269" y="297" on="0"/>
        <pt x="324" y="275" on="0"/>
        <pt x="364" y="235" on="0"/>
        <pt x="387" y="181" on="0"/>
        <pt x="387" y="148" on="1"/>
        <pt x="387" y="113" on="0"/>
        <pt x="362" y="55" on="0"/>
        <pt x="317" y="14" on="0"/>
        <pt x="256" y="-8" on="0"/>
        <pt x="221" y="-8" on="1"/>
        <pt x="180" y="-8" on="0"/>
        <pt x="113" y="23" on="0"/>
        <pt x="65" y="80" on="0"/>
        <pt x="39" y="161" on="0"/>
        <pt x="39" y="211" on="1"/>
        <pt x="39" y="281" on="0"/>
        <pt x="86" y="388" on="0"/>
        <pt x="171" y="461" on="0"/>
        <pt x="287" y="498" on="0"/>
        <pt x="356" y="498" on="1"/>
        <pt x="694" y="498" on="1"/>
        <pt x="694" y="423" on="1"/>
        <pt x="586" y="423" on="1"/>
        <pt x="586" y="129" on="1"/>
        <pt x="604" y="156" on="0"/>
        <pt x="656" y="206" on="0"/>
        <pt x="682" y="225" on="1"/>
        <pt x="691" y="264" on="0"/>
        <pt x="731" y="329" on="0"/>
        <pt x="791" y="376" on="0"/>
        <pt x="866" y="402" on="0"/>
      </contour>
      <contour>
        <pt x="217" y="224" on="1"/>
        <pt x="185" y="224" on="0"/>
        <pt x="142" y="185" on="0"/>
        <pt x="130" y="158" on="1"/>
        <pt x="137" y="113" on="0"/>
        <pt x="188" y="67" on="0"/>
        <pt x="220" y="67" on="1"/>
        <pt x="254" y="67" on="0"/>
        <pt x="296" y="112" on="0"/>
        <pt x="296" y="146" on="1"/>
        <pt x="296" y="181" on="0"/>
        <pt x="254" y="224" on="0"/>
      </contour>
      <contour>
        <pt x="822" y="209" on="1"/>
        <pt x="802" y="209" on="0"/>
        <pt x="771" y="197" on="0"/>
        <pt x="758" y="187" on="1"/>
        <pt x="757" y="179" on="0"/>
        <pt x="756" y="164" on="0"/>
        <pt x="756" y="156" on="1"/>
        <pt x="756" y="114" on="0"/>
        <pt x="796" y="66" on="0"/>
        <pt x="829" y="66" on="1"/>
        <pt x="858" y="66" on="0"/>
        <pt x="897" y="105" on="0"/>
        <pt x="897" y="136" on="1"/>
        <pt x="897" y="169" on="0"/>
        <pt x="855" y="209" on="0"/>
      </contour>
    </TTGlyph>
    <TTGlyph name="Csmall" xMin="43" yMin="-10" xMax="429" yMax="480">
      <contour>
        <pt x="307" y="68" on="1"/>
        <pt x="339" y="68" on="0"/>
        <pt x="388" y="83" on="0"/>
        <pt x="408" y="93" on="1"/>
        <pt x="429" y="19" on="1"/>
        <pt x="404" y="6" on="0"/>
        <pt x="336" y="-10" on="0"/>
        <pt x="296" y="-10" on="1"/>
        <pt x="242" y="-10" on="0"/>
        <pt x="150" y="21" on="0"/>
        <pt x="82" y="82" on="0"/>
        <pt x="43" y="174" on="0"/>
        <pt x="43" y="235" on="1"/>
        <pt x="43" y="291" on="0"/>
        <pt x="80" y="382" on="0"/>
        <pt x="146" y="446" on="0"/>
        <pt x="239" y="480" on="0"/>
        <pt x="296" y="480" on="1"/>
        <pt x="327" y="480" on="0"/>
        <pt x="389" y="470" on="0"/>
        <pt x="427" y="452" on="1"/>
        <pt x="405" y="377" on="1"/>
        <pt x="358" y="403" on="0"/>
        <pt x="307" y="403" on="1"/>
        <pt x="235" y="403" on="0"/>
        <pt x="148" y="317" on="0"/>
        <pt x="148" y="238" on="1"/>
        <pt x="148" y="190" on="0"/>
        <pt x="175" y="125" on="0"/>
        <pt x="220" y="85" on="0"/>
        <pt x="277" y="68" on="0"/>
      </contour>
    </TTGlyph>
    <TTGlyph name="D" xMin="76" yMin="0" xMax="602" yMax="630">
      <contour>
        <pt x="286" y="630" on="1"/>
        <pt x="355" y="630" on="0"/>
        <pt x="471" y="592" on="0"/>
        <pt x="555" y="517" on="0"/>
        <pt x="602" y="404" on="0"/>
        <pt x="602" y="329" on="1"/>
        <pt x="602" y="240" on="0"/>
        <pt x="546" y="115" on="0"/>
        <pt x="451" y="36" on="0"/>
        <pt x="324" y="0" on="0"/>
        <pt x="254" y="0" on="1"/>
        <pt x="76" y="0" on="1"/>
        <pt x="76" y="630" on="1"/>
      </contour>
      <contour>
        <pt x="183" y="86" on="1"/>
        <pt x="245" y="86" on="1"/>
        <pt x="291" y="86" on="0"/>
        <pt x="378" y="107" on="0"/>
        <pt x="446" y="162" on="0"/>
        <pt x="487" y="256" on="0"/>
        <pt x="487" y="329" on="1"/>
        <pt x="487" y="433" on="0"/>
        <pt x="368" y="544" on="0"/>
        <pt x="268" y="544" on="1"/>
        <pt x="183" y="544" on="1"/>
      </contour>
    </TTGlyph>
    <TTGlyph name="DaySign.tm" xMin="41" yMin="-8" xMax="776" yMax="504">
      <contour>
        <pt x="327" y="504" on="1"/>
        <pt x="386" y="504" on="0"/>
        <pt x="487" y="465" on="0"/>
        <pt x="561" y="394" on="0"/>
        <pt x="603" y="296" on="0"/>
        <pt x="603" y="236" on="1"/>
        <pt x="603" y="185" on="0"/>
        <pt x="577" y="99" on="0"/>
        <pt x="563" y="76" on="1"/>
        <pt x="776" y="76" on="1"/>
        <pt x="776" y="0" on="1"/>
        <pt x="483" y="0" on="1"/>
        <pt x="457" y="56" on="1"/>
        <pt x="508" y="125" on="0"/>
        <pt x="508" y="229" on="1"/>
        <pt x="508" y="273" on="0"/>
        <pt x="482" y="345" on="0"/>
        <pt x="434" y="397" on="0"/>
        <pt x="365" y="426" on="0"/>
        <pt x="322" y="426" on="1"/>
        <pt x="279" y="426" on="0"/>
        <pt x="209" y="399" on="0"/>
        <pt x="158" y="351" on="0"/>
        <pt x="128" y="284" on="0"/>
        <pt x="125" y="244" on="1"/>
        <pt x="144" y="269" on="0"/>
        <pt x="203" y="297" on="0"/>
        <pt x="238" y="297" on="1"/>
        <pt x="271" y="297" on="0"/>
        <pt x="326" y="275" on="0"/>
        <pt x="366" y="235" on="0"/>
        <pt x="389" y="181" on="0"/>
        <pt x="389" y="148" on="1"/>
        <pt x="389" y="113" on="0"/>
        <pt x="364" y="55" on="0"/>
        <pt x="319" y="14" on="0"/>
        <pt x="258" y="-8" on="0"/>
        <pt x="223" y="-8" on="1"/>
        <pt x="182" y="-8" on="0"/>
        <pt x="115" y="24" on="0"/>
        <pt x="67" y="83" on="0"/>
        <pt x="41" y="167" on="0"/>
        <pt x="41" y="219" on="1"/>
        <pt x="41" y="283" on="0"/>
        <pt x="84" y="388" on="0"/>
        <pt x="160" y="463" on="0"/>
        <pt x="265" y="504" on="0"/>
      </contour>
      <contour>
        <pt x="219" y="224" on="1"/>
        <pt x="187" y="224" on="0"/>
        <pt x="144" y="185" on="0"/>
        <pt x="132" y="158" on="1"/>
        <pt x="139" y="113" on="0"/>
        <pt x="190" y="67" on="0"/>
        <pt x="222" y="67" on="1"/>
        <pt x="256" y="67" on="0"/>
        <pt x="298" y="112" on="0"/>
        <pt x="298" y="146" on="1"/>
        <pt x="298" y="181" on="0"/>
        <pt x="256" y="224" on="0"/>
      </contour>
    </TTGlyph>
    <TTGlyph name="Dcaron" xMin="76" yMin="0" xMax="602" yMax="837">
      <contour>
        <pt x="286" y="630" on="1"/>
        <pt x="355" y="630" on="0"/>
        <pt x="471" y="592" on="0"/>
        <pt x="555" y="517" on="0"/>
        <pt x="602" y="404" on="0"/>
        <pt x="602" y="329" on="1"/>
        <pt x="602" y="240" on="0"/>
        <pt x="546" y="115" on="0"/>
        <pt x="451" y="36" on="0"/>
        <pt x="324" y="0" on="0"/>
        <pt x="254" y="0" on="1"/>
        <pt x="76" y="0" on="1"/>
        <pt x="76" y="630" on="1"/>
      </contour>
      <contour>
        <pt x="183" y="86" on="1"/>
        <pt x="245" y="86" on="1"/>
        <pt x="291" y="86" on="0"/>
        <pt x="378" y="107" on="0"/>
        <pt x="446" y="162" on="0"/>
        <pt x="487" y="256" on="0"/>
        <pt x="487" y="329" on="1"/>
        <pt x="487" y="433" on="0"/>
        <pt x="368" y="544" on="0"/>
        <pt x="268" y="544" on="1"/>
        <pt x="183" y="544" on="1"/>
      </contour>
      <contour>
        <pt x="133" y="837" on="1"/>
        <pt x="218" y="837" on="1"/>
        <pt x="293" y="758" on="1"/>
        <pt x="368" y="837" on="1"/>
        <pt x="454" y="837" on="1"/>
        <pt x="332" y="706" on="1"/>
        <pt x="253" y="706" on="1"/>
      </contour>
    </TTGlyph>
    <TTGlyph name="Dcroat" xMin="27" yMin="0" xMax="635" yMax="630">
      <contour>
        <pt x="319" y="630" on="1"/>
        <pt x="388" y="630" on="0"/>
        <pt x="504" y="592" on="0"/>
        <pt x="588" y="517" on="0"/>
        <pt x="635" y="404" on="0"/>
        <pt x="635" y="329" on="1"/>
        <pt x="635" y="240" on="0"/>
        <pt x="579" y="115" on="0"/>
        <pt x="484" y="36" on="0"/>
        <pt x="357" y="0" on="0"/>
        <pt x="286" y="0" on="1"/>
        <pt x="109" y="0" on="1"/>
        <pt x="109" y="290" on="1"/>
        <pt x="27" y="290" on="1"/>
        <pt x="27" y="362" on="1"/>
        <pt x="109" y="362" on="1"/>
        <pt x="109" y="630" on="1"/>
      </contour>
      <contour>
        <pt x="340" y="362" on="1"/>
        <pt x="340" y="290" on="1"/>
        <pt x="216" y="290" on="1"/>
        <pt x="216" y="86" on="1"/>
        <pt x="277" y="86" on="1"/>
        <pt x="323" y="86" on="0"/>
        <pt x="411" y="107" on="0"/>
        <pt x="479" y="162" on="0"/>
        <pt x="520" y="256" on="0"/>
        <pt x="520" y="329" on="1"/>
        <pt x="520" y="433" on="0"/>
        <pt x="401" y="544" on="0"/>
        <pt x="301" y="544" on="1"/>
        <pt x="216" y="544" on="1"/>
        <pt x="216" y="362" on="1"/>
      </contour>
    </TTGlyph>
    <TTGlyph name="DebitSign.tm" xMin="47" yMin="-298" xMax="826" yMax="498">
      <contour>
        <pt x="826" y="498" on="1"/>
        <pt x="826" y="-131" on="1"/>
        <pt x="591" y="-131" on="1"/>
        <pt x="584" y="-166" on="0"/>
        <pt x="539" y="-227" on="0"/>
        <pt x="466" y="-272" on="0"/>
        <pt x="363" y="-298" on="0"/>
        <pt x="299" y="-298" on="1"/>
        <pt x="242" y="-298" on="0"/>
        <pt x="149" y="-275" on="0"/>
        <pt x="83" y="-234" on="0"/>
        <pt x="47" y="-178" on="0"/>
        <pt x="47" y="-145" on="1"/>
        <pt x="47" y="-103" on="0"/>
        <pt x="105" y="-57" on="0"/>
        <pt x="156" y="-57" on="1"/>
        <pt x="508" y="-57" on="1"/>
        <pt x="508" y="0" on="1"/>
        <pt x="72" y="0" on="1"/>
        <pt x="72" y="498" on="1"/>
        <pt x="167" y="498" on="1"/>
        <pt x="167" y="79" on="1"/>
        <pt x="503" y="79" on="1"/>
        <pt x="503" y="498" on="1"/>
        <pt x="597" y="498" on="1"/>
        <pt x="597" y="-57" on="1"/>
        <pt x="733" y="-57" on="1"/>
        <pt x="733" y="498" on="1"/>
      </contour>
      <contour>
        <pt x="302" y="-224" on="1"/>
        <pt x="383" y="-224" on="0"/>
        <pt x="487" y="-173" on="0"/>
        <pt x="501" y="-131" on="1"/>
        <pt x="166" y="-131" on="1"/>
        <pt x="152" y="-131" on="0"/>
        <pt x="139" y="-145" on="0"/>
        <pt x="139" y="-155" on="1"/>
        <pt x="139" y="-185" on="0"/>
        <pt x="230" y="-224" on="0"/>
      </contour>
    </TTGlyph>
    <TTGlyph name="DottedCircle" xMin="11" yMin="-10" xMax="528" yMax="508">
      <contour>
        <pt x="236" y="23" on="1"/>
        <pt x="236" y="37" on="0"/>
        <pt x="255" y="58" on="0"/>
        <pt x="269" y="58" on="1"/>
        <pt x="283" y="58" on="0"/>
        <pt x="303" y="37" on="0"/>
        <pt x="303" y="23" on="1"/>
        <pt x="303" y="9" on="0"/>
        <pt x="283" y="-10" on="0"/>
        <pt x="269" y="-10" on="1"/>
        <pt x="255" y="-10" on="0"/>
        <pt x="236" y="10" on="0"/>
      </contour>
      <contour>
        <pt x="236" y="474" on="1"/>
        <pt x="236" y="489" on="0"/>
        <pt x="255" y="508" on="0"/>
        <pt x="269" y="508" on="1"/>
        <pt x="283" y="508" on="0"/>
        <pt x="303" y="489" on="0"/>
        <pt x="303" y="474" on="1"/>
        <pt x="303" y="460" on="0"/>
        <pt x="283" y="442" on="0"/>
        <pt x="269" y="442" on="1"/>
        <pt x="255" y="442" on="0"/>
        <pt x="236" y="460" on="0"/>
      </contour>
      <contour>
        <pt x="11" y="249" on="1"/>
        <pt x="11" y="263" on="0"/>
        <pt x="29" y="283" on="0"/>
        <pt x="43" y="283" on="1"/>
        <pt x="57" y="283" on="0"/>
        <pt x="77" y="263" on="0"/>
        <pt x="77" y="249" on="1"/>
        <pt x="77" y="235" on="0"/>
        <pt x="57" y="216" on="0"/>
        <pt x="43" y="216" on="1"/>
        <pt x="29" y="216" on="0"/>
        <pt x="11" y="235" on="0"/>
      </contour>
      <contour>
        <pt x="461" y="249" on="1"/>
        <pt x="461" y="263" on="0"/>
        <pt x="481" y="283" on="0"/>
        <pt x="495" y="283" on="1"/>
        <pt x="509" y="283" on="0"/>
        <pt x="528" y="263" on="0"/>
        <pt x="528" y="249" on="1"/>
        <pt x="528" y="235" on="0"/>
        <pt x="509" y="216" on="0"/>
        <pt x="495" y="216" on="1"/>
        <pt x="481" y="216" on="0"/>
        <pt x="461" y="235" on="0"/>
      </contour>
      <contour>
        <pt x="85" y="400" on="1"/>
        <pt x="85" y="414" on="0"/>
        <pt x="104" y="434" on="0"/>
        <pt x="118" y="434" on="1"/>
        <pt x="132" y="434" on="0"/>
        <pt x="152" y="414" on="0"/>
        <pt x="152" y="400" on="1"/>
        <pt x="152" y="386" on="0"/>
        <pt x="132" y="367" on="0"/>
        <pt x="118" y="367" on="1"/>
        <pt x="104" y="367" on="0"/>
        <pt x="85" y="386" on="0"/>
      </contour>
      <contour>
        <pt x="85" y="98" on="1"/>
        <pt x="85" y="113" on="0"/>
        <pt x="104" y="132" on="0"/>
        <pt x="118" y="132" on="1"/>
        <pt x="132" y="132" on="0"/>
        <pt x="152" y="112" on="0"/>
        <pt x="152" y="98" on="1"/>
        <pt x="152" y="84" on="0"/>
        <pt x="132" y="66" on="0"/>
        <pt x="118" y="66" on="1"/>
        <pt x="104" y="66" on="0"/>
        <pt x="85" y="84" on="0"/>
      </contour>
      <contour>
        <pt x="386" y="98" on="1"/>
        <pt x="386" y="113" on="0"/>
        <pt x="406" y="132" on="0"/>
        <pt x="420" y="132" on="1"/>
        <pt x="434" y="132" on="0"/>
        <pt x="453" y="113" on="0"/>
        <pt x="453" y="98" on="1"/>
        <pt x="453" y="84" on="0"/>
        <pt x="434" y="66" on="0"/>
        <pt x="420" y="66" on="1"/>
        <pt x="406" y="66" on="0"/>
        <pt x="386" y="84" on="0"/>
      </contour>
      <contour>
        <pt x="386" y="400" on="1"/>
        <pt x="386" y="414" on="0"/>
        <pt x="406" y="434" on="0"/>
        <pt x="420" y="434" on="1"/>
        <pt x="434" y="434" on="0"/>
        <pt x="453" y="414" on="0"/>
        <pt x="453" y="400" on="1"/>
        <pt x="453" y="386" on="0"/>
        <pt x="434" y="367" on="0"/>
        <pt x="420" y="367" on="1"/>
        <pt x="406" y="367" on="0"/>
        <pt x="386" y="386" on="0"/>
      </contour>
    </TTGlyph>
    <TTGlyph name="Dsmall" xMin="74" yMin="0" xMax="497" yMax="472">
      <contour>
        <pt x="247" y="472" on="1"/>
        <pt x="296" y="472" on="0"/>
        <pt x="387" y="448" on="0"/>
        <pt x="456" y="394" on="0"/>
        <pt x="497" y="308" on="0"/>
        <pt x="497" y="247" on="1"/>
        <pt x="497" y="182" on="0"/>
        <pt x="457" y="89" on="0"/>
        <pt x="388" y="29" on="0"/>
        <pt x="293" y="0" on="0"/>
        <pt x="239" y="0" on="1"/>
        <pt x="74" y="0" on="1"/>
        <pt x="74" y="472" on="1"/>
      </contour>
      <contour>
        <pt x="177" y="79" on="1"/>
        <pt x="221" y="79" on="1"/>
        <pt x="248" y="79" on="0"/>
        <pt x="308" y="91" on="0"/>
        <pt x="359" y="126" on="0"/>
        <pt x="392" y="191" on="0"/>
        <pt x="392" y="244" on="1"/>
        <pt x="392" y="319" on="0"/>
        <pt x="306" y="393" on="0"/>
        <pt x="221" y="393" on="1"/>
        <pt x="177" y="393" on="1"/>
      </contour>
    </TTGlyph>
    <TTGlyph name="E" xMin="76" yMin="0" xMax="469" yMax="630">
      <contour>
        <pt x="76" y="630" on="1"/>
        <pt x="466" y="630" on="1"/>
        <pt x="466" y="544" on="1"/>
        <pt x="183" y="544" on="1"/>
        <pt x="183" y="370" on="1"/>
        <pt x="440" y="370" on="1"/>
        <pt x="440" y="285" on="1"/>
        <pt x="183" y="285" on="1"/>
        <pt x="183" y="86" on="1"/>
        <pt x="469" y="86" on="1"/>
        <pt x="469" y="0" on="1"/>
        <pt x="76" y="0" on="1"/>
      </contour>
    </TTGlyph>
    <TTGlyph name="Eacute" xMin="76" yMin="0" xMax="469" yMax="829">
      <contour>
        <pt x="76" y="630" on="1"/>
        <pt x="466" y="630" on="1"/>
        <pt x="466" y="544" on="1"/>
        <pt x="183" y="544" on="1"/>
        <pt x="183" y="370" on="1"/>
        <pt x="440" y="370" on="1"/>
        <pt x="440" y="285" on="1"/>
        <pt x="183" y="285" on="1"/>
        <pt x="183" y="86" on="1"/>
        <pt x="469" y="86" on="1"/>
        <pt x="469" y="0" on="1"/>
        <pt x="76" y="0" on="1"/>
      </contour>
      <contour>
        <pt x="276" y="705" on="1"/>
        <pt x="191" y="705" on="1"/>
        <pt x="271" y="829" on="1"/>
        <pt x="388" y="829" on="1"/>
      </contour>
    </TTGlyph>
    <TTGlyph name="Ebreve" xMin="76" yMin="0" xMax="469" yMax="838">
      <contour>
        <pt x="76" y="630" on="1"/>
        <pt x="466" y="630" on="1"/>
        <pt x="466" y="544" on="1"/>
        <pt x="183" y="544" on="1"/>
        <pt x="183" y="370" on="1"/>
        <pt x="440" y="370" on="1"/>
        <pt x="440" y="285" on="1"/>
        <pt x="183" y="285" on="1"/>
        <pt x="183" y="86" on="1"/>
        <pt x="469" y="86" on="1"/>
        <pt x="469" y="0" on="1"/>
        <pt x="76" y="0" on="1"/>
      </contour>
      <contour>
        <pt x="213" y="838" on="1"/>
        <pt x="216" y="808" on="0"/>
        <pt x="243" y="773" on="0"/>
        <pt x="280" y="773" on="1"/>
        <pt x="312" y="773" on="0"/>
        <pt x="344" y="806" on="0"/>
        <pt x="347" y="838" on="1"/>
        <pt x="414" y="838" on="1"/>
        <pt x="414" y="782" on="0"/>
        <pt x="345" y="713" on="0"/>
        <pt x="280" y="713" on="1"/>
        <pt x="244" y="713" on="0"/>
        <pt x="193" y="734" on="0"/>
        <pt x="160" y="769" on="0"/>
        <pt x="145" y="814" on="0"/>
        <pt x="145" y="838" on="1"/>
      </contour>
    </TTGlyph>
    <TTGlyph name="Ecaron" xMin="76" yMin="0" xMax="469" yMax="837">
      <contour>
        <pt x="76" y="630" on="1"/>
        <pt x="466" y="630" on="1"/>
        <pt x="466" y="544" on="1"/>
        <pt x="183" y="544" on="1"/>
        <pt x="183" y="370" on="1"/>
        <pt x="440" y="370" on="1"/>
        <pt x="440" y="285" on="1"/>
        <pt x="183" y="285" on="1"/>
        <pt x="183" y="86" on="1"/>
        <pt x="469" y="86" on="1"/>
        <pt x="469" y="0" on="1"/>
        <pt x="76" y="0" on="1"/>
      </contour>
      <contour>
        <pt x="320" y="706" on="1"/>
        <pt x="241" y="706" on="1"/>
        <pt x="121" y="837" on="1"/>
        <pt x="208" y="837" on="1"/>
        <pt x="282" y="756" on="1"/>
        <pt x="356" y="837" on="1"/>
        <pt x="442" y="837" on="1"/>
      </contour>
    </TTGlyph>
    <TTGlyph name="Ecircumflex" xMin="76" yMin="0" xMax="469" yMax="836">
      <contour>
        <pt x="76" y="630" on="1"/>
        <pt x="466" y="630" on="1"/>
        <pt x="466" y="544" on="1"/>
        <pt x="183" y="544" on="1"/>
        <pt x="183" y="370" on="1"/>
        <pt x="440" y="370" on="1"/>
        <pt x="440" y="285" on="1"/>
        <pt x="183" y="285" on="1"/>
        <pt x="183" y="86" on="1"/>
        <pt x="469" y="86" on="1"/>
        <pt x="469" y="0" on="1"/>
        <pt x="76" y="0" on="1"/>
      </contour>
      <contour>
        <pt x="225" y="836" on="1"/>
        <pt x="304" y="836" on="1"/>
        <pt x="426" y="705" on="1"/>
        <pt x="339" y="705" on="1"/>
        <pt x="264" y="784" on="1"/>
        <pt x="189" y="705" on="1"/>
        <pt x="105" y="705" on="1"/>
      </contour>
    </TTGlyph>
    <TTGlyph name="Edieresis" xMin="76" yMin="0" xMax="469" yMax="811">
      <contour>
        <pt x="76" y="630" on="1"/>
        <pt x="466" y="630" on="1"/>
        <pt x="466" y="544" on="1"/>
        <pt x="183" y="544" on="1"/>
        <pt x="183" y="370" on="1"/>
        <pt x="440" y="370" on="1"/>
        <pt x="440" y="285" on="1"/>
        <pt x="183" y="285" on="1"/>
        <pt x="183" y="86" on="1"/>
        <pt x="469" y="86" on="1"/>
        <pt x="469" y="0" on="1"/>
        <pt x="76" y="0" on="1"/>
      </contour>
      <contour>
        <pt x="130" y="758" on="1"/>
        <pt x="130" y="779" on="0"/>
        <pt x="162" y="811" on="0"/>
        <pt x="185" y="811" on="1"/>
        <pt x="207" y="811" on="0"/>
        <pt x="239" y="779" on="0"/>
        <pt x="239" y="758" on="1"/>
        <pt x="239" y="735" on="0"/>
        <pt x="207" y="702" on="0"/>
        <pt x="185" y="702" on="1"/>
        <pt x="162" y="702" on="0"/>
        <pt x="130" y="735" on="0"/>
      </contour>
      <contour>
        <pt x="306" y="758" on="1"/>
        <pt x="306" y="779" on="0"/>
        <pt x="338" y="811" on="0"/>
        <pt x="360" y="811" on="1"/>
        <pt x="383" y="811" on="0"/>
        <pt x="415" y="779" on="0"/>
        <pt x="415" y="758" on="1"/>
        <pt x="415" y="735" on="0"/>
        <pt x="383" y="702" on="0"/>
        <pt x="360" y="702" on="1"/>
        <pt x="338" y="702" on="0"/>
        <pt x="306" y="735" on="0"/>
      </contour>
    </TTGlyph>
    <TTGlyph name="Edotaccent" xMin="76" yMin="0" xMax="469" yMax="820">
      <contour>
        <pt x="76" y="630" on="1"/>
        <pt x="466" y="630" on="1"/>
        <pt x="466" y="544" on="1"/>
        <pt x="183" y="544" on="1"/>
        <pt x="183" y="370" on="1"/>
        <pt x="440" y="370" on="1"/>
        <pt x="440" y="285" on="1"/>
        <pt x="183" y="285" on="1"/>
        <pt x="183" y="86" on="1"/>
        <pt x="469" y="86" on="1"/>
        <pt x="469" y="0" on="1"/>
        <pt x="76" y="0" on="1"/>
      </contour>
      <contour>
        <pt x="225" y="762" on="1"/>
        <pt x="225" y="785" on="0"/>
        <pt x="261" y="820" on="0"/>
        <pt x="284" y="820" on="1"/>
        <pt x="309" y="820" on="0"/>
        <pt x="343" y="785" on="0"/>
        <pt x="343" y="762" on="1"/>
        <pt x="343" y="737" on="0"/>
        <pt x="309" y="702" on="0"/>
        <pt x="284" y="702" on="1"/>
        <pt x="261" y="702" on="0"/>
        <pt x="225" y="737" on="0"/>
      </contour>
    </TTGlyph>
    <TTGlyph name="Egrave" xMin="76" yMin="0" xMax="469" yMax="829">
      <contour>
        <pt x="76" y="630" on="1"/>
        <pt x="466" y="630" on="1"/>
        <pt x="466" y="544" on="1"/>
        <pt x="183" y="544" on="1"/>
        <pt x="183" y="370" on="1"/>
        <pt x="440" y="370" on="1"/>
        <pt x="440" y="285" on="1"/>
        <pt x="183" y="285" on="1"/>
        <pt x="183" y="86" on="1"/>
        <pt x="469" y="86" on="1"/>
        <pt x="469" y="0" on="1"/>
        <pt x="76" y="0" on="1"/>
      </contour>
      <contour>
        <pt x="167" y="829" on="1"/>
        <pt x="284" y="829" on="1"/>
        <pt x="364" y="705" on="1"/>
        <pt x="280" y="705" on="1"/>
      </contour>
    </TTGlyph>
    <TTGlyph name="Eight.tm" xMin="16" yMin="-94" xMax="966" yMax="504">
      <contour>
        <pt x="666" y="200" on="1"/>
        <pt x="667" y="208" on="0"/>
        <pt x="669" y="229" on="0"/>
        <pt x="669" y="241" on="1"/>
        <pt x="669" y="281" on="0"/>
        <pt x="647" y="349" on="0"/>
        <pt x="604" y="399" on="0"/>
        <pt x="541" y="427" on="0"/>
        <pt x="501" y="427" on="1"/>
        <pt x="455" y="427" on="0"/>
        <pt x="404" y="383" on="0"/>
        <pt x="404" y="348" on="1"/>
        <pt x="404" y="326" on="0"/>
        <pt x="427" y="296" on="0"/>
        <pt x="442" y="288" on="1"/>
        <pt x="398" y="235" on="1"/>
        <pt x="363" y="247" on="0"/>
        <pt x="316" y="308" on="0"/>
        <pt x="316" y="351" on="1"/>
        <pt x="316" y="384" on="0"/>
        <pt x="343" y="441" on="0"/>
        <pt x="393" y="481" on="0"/>
        <pt x="463" y="504" on="0"/>
        <pt x="505" y="504" on="1"/>
        <pt x="563" y="504" on="0"/>
        <pt x="658" y="464" on="0"/>
        <pt x="724" y="393" on="0"/>
        <pt x="760" y="296" on="0"/>
        <pt x="760" y="239" on="1"/>
        <pt x="760" y="227" on="0"/>
        <pt x="759" y="207" on="0"/>
        <pt x="758" y="200" on="1"/>
        <pt x="875" y="200" on="1"/>
        <pt x="875" y="498" on="1"/>
        <pt x="966" y="498" on="1"/>
        <pt x="966" y="-94" on="1"/>
        <pt x="875" y="-94" on="1"/>
        <pt x="875" y="125" on="1"/>
        <pt x="747" y="125" on="1"/>
        <pt x="730" y="72" on="0"/>
        <pt x="656" y="-6" on="0"/>
        <pt x="553" y="-58" on="0"/>
        <pt x="426" y="-84" on="0"/>
        <pt x="354" y="-84" on="1"/>
        <pt x="280" y="-84" on="0"/>
        <pt x="156" y="-60" on="0"/>
        <pt x="66" y="-14" on="0"/>
        <pt x="16" y="53" on="0"/>
        <pt x="16" y="96" on="1"/>
        <pt x="16" y="145" on="0"/>
        <pt x="82" y="200" on="0"/>
        <pt x="143" y="200" on="1"/>
      </contour>
      <contour>
        <pt x="357" y="-4" on="1"/>
        <pt x="468" y="-4" on="0"/>
        <pt x="620" y="63" on="0"/>
        <pt x="649" y="125" on="1"/>
        <pt x="155" y="125" on="1"/>
        <pt x="132" y="125" on="0"/>
        <pt x="112" y="106" on="0"/>
        <pt x="112" y="90" on="1"/>
        <pt x="112" y="70" on="0"/>
        <pt x="147" y="36" on="0"/>
        <pt x="212" y="10" on="0"/>
        <pt x="302" y="-4" on="0"/>
      </contour>
    </TTGlyph>
    <TTGlyph name="Ek_Type" xMin="100" yMin="-312" xMax="1089" yMax="636">
      <contour>
        <pt x="800" y="531" on="1"/>
        <pt x="800" y="403" on="1"/>
        <pt x="814" y="421" on="0"/>
        <pt x="867" y="447" on="0"/>
        <pt x="902" y="447" on="1"/>
        <pt x="977" y="447" on="0"/>
        <pt x="1062" y="351" on="0"/>
        <pt x="1062" y="266" on="1"/>
        <pt x="1062" y="224" on="0"/>
        <pt x="1037" y="156" on="0"/>
        <pt x="991" y="107" on="0"/>
        <pt x="925" y="81" on="0"/>
        <pt x="885" y="81" on="1"/>
        <pt x="876" y="81" on="0"/>
        <pt x="852" y="84" on="0"/>
        <pt x="841" y="87" on="1"/>
        <pt x="854" y="184" on="1"/>
        <pt x="869" y="184" on="1"/>
        <pt x="927" y="184" on="0"/>
        <pt x="927" y="266" on="1"/>
        <pt x="927" y="301" on="0"/>
        <pt x="894" y="340" on="0"/>
        <pt x="865" y="340" on="1"/>
        <pt x="836" y="340" on="0"/>
        <pt x="807" y="299" on="0"/>
        <pt x="803" y="276" on="1"/>
        <pt x="803" y="0" on="1"/>
        <pt x="672" y="0" on="1"/>
        <pt x="672" y="113" on="1"/>
        <pt x="657" y="95" on="0"/>
        <pt x="603" y="74" on="0"/>
        <pt x="579" y="74" on="1"/>
        <pt x="549" y="74" on="0"/>
        <pt x="489" y="94" on="0"/>
        <pt x="441" y="139" on="0"/>
        <pt x="411" y="211" on="0"/>
        <pt x="411" y="263" on="1"/>
        <pt x="411" y="352" on="0"/>
        <pt x="493" y="447" on="0"/>
        <pt x="568" y="447" on="1"/>
        <pt x="600" y="447" on="0"/>
        <pt x="654" y="428" on="0"/>
        <pt x="672" y="411" on="1"/>
        <pt x="672" y="531" on="1"/>
        <pt x="330" y="531" on="1"/>
        <pt x="330" y="50" on="1"/>
        <pt x="549" y="-40" on="0"/>
        <pt x="818" y="-164" on="0"/>
        <pt x="883" y="-197" on="1"/>
        <pt x="822" y="-312" on="1"/>
        <pt x="778" y="-291" on="0"/>
        <pt x="661" y="-235" on="0"/>
        <pt x="507" y="-163" on="0"/>
        <pt x="314" y="-73" on="0"/>
        <pt x="195" y="-18" on="1"/>
        <pt x="195" y="531" on="1"/>
        <pt x="100" y="531" on="1"/>
        <pt x="100" y="636" on="1"/>
        <pt x="1089" y="636" on="1"/>
        <pt x="1089" y="531" on="1"/>
      </contour>
      <contour>
        <pt x="675" y="309" on="1"/>
        <pt x="665" y="320" on="0"/>
        <pt x="633" y="338" on="0"/>
        <pt x="613" y="338" on="1"/>
        <pt x="584" y="338" on="0"/>
        <pt x="548" y="297" on="0"/>
        <pt x="548" y="262" on="1"/>
        <pt x="548" y="225" on="0"/>
        <pt x="582" y="182" on="0"/>
        <pt x="611" y="182" on="1"/>
        <pt x="667" y="182" on="0"/>
        <pt x="675" y="236" on="1"/>
      </contour>
    </TTGlyph>
    <TTGlyph name="Emacron" xMin="76" yMin="0" xMax="469" yMax="772">
      <contour>
        <pt x="76" y="630" on="1"/>
        <pt x="466" y="630" on="1"/>
        <pt x="466" y="544" on="1"/>
        <pt x="183" y="544" on="1"/>
        <pt x="183" y="370" on="1"/>
        <pt x="440" y="370" on="1"/>
        <pt x="440" y="285" on="1"/>
        <pt x="183" y="285" on="1"/>
        <pt x="183" y="86" on="1"/>
        <pt x="469" y="86" on="1"/>
        <pt x="469" y="0" on="1"/>
        <pt x="76" y="0" on="1"/>
      </contour>
      <contour>
        <pt x="395" y="772" on="1"/>
        <pt x="395" y="705" on="1"/>
        <pt x="146" y="705" on="1"/>
        <pt x="146" y="772" on="1"/>
      </contour>
    </TTGlyph>
    <TTGlyph name="Eng" xMin="76" yMin="-242" xMax="596" yMax="630">
      <contour>
        <pt x="76" y="630" on="1"/>
        <pt x="171" y="630" on="1"/>
        <pt x="435" y="233" on="1"/>
        <pt x="453" y="207" on="0"/>
        <pt x="485" y="155" on="0"/>
        <pt x="496" y="134" on="1"/>
        <pt x="498" y="134" on="1"/>
        <pt x="493" y="208" on="0"/>
        <pt x="493" y="355" on="0"/>
        <pt x="493" y="430" on="1"/>
        <pt x="493" y="630" on="1"/>
        <pt x="596" y="630" on="1"/>
        <pt x="596" y="73" on="1"/>
        <pt x="596" y="16" on="0"/>
        <pt x="581" y="-80" on="0"/>
        <pt x="543" y="-158" on="0"/>
        <pt x="477" y="-219" on="0"/>
        <pt x="425" y="-242" on="1"/>
        <pt x="379" y="-168" on="1"/>
        <pt x="429" y="-142" on="0"/>
        <pt x="486" y="-70" on="0"/>
        <pt x="493" y="-8" on="1"/>
        <pt x="244" y="365" on="1"/>
        <pt x="225" y="392" on="0"/>
        <pt x="189" y="455" on="0"/>
        <pt x="176" y="480" on="1"/>
        <pt x="174" y="480" on="1"/>
        <pt x="179" y="402" on="0"/>
        <pt x="179" y="249" on="0"/>
        <pt x="179" y="172" on="1"/>
        <pt x="179" y="0" on="1"/>
        <pt x="76" y="0" on="1"/>
      </contour>
    </TTGlyph>
    <TTGlyph name="Eogonek" xMin="76" yMin="-206" xMax="496" yMax="630">
      <contour>
        <pt x="76" y="630" on="1"/>
        <pt x="466" y="630" on="1"/>
        <pt x="466" y="544" on="1"/>
        <pt x="183" y="544" on="1"/>
        <pt x="183" y="370" on="1"/>
        <pt x="440" y="370" on="1"/>
        <pt x="440" y="285" on="1"/>
        <pt x="183" y="285" on="1"/>
        <pt x="183" y="86" on="1"/>
        <pt x="469" y="86" on="1"/>
        <pt x="469" y="0" on="1"/>
        <pt x="431" y="-19" on="0"/>
        <pt x="383" y="-62" on="0"/>
        <pt x="383" y="-90" on="1"/>
        <pt x="383" y="-113" on="0"/>
        <pt x="411" y="-139" on="0"/>
        <pt x="434" y="-139" on="1"/>
        <pt x="448" y="-139" on="0"/>
        <pt x="472" y="-134" on="0"/>
        <pt x="482" y="-131" on="1"/>
        <pt x="496" y="-185" on="1"/>
        <pt x="463" y="-206" on="0"/>
        <pt x="415" y="-206" on="1"/>
        <pt x="369" y="-206" on="0"/>
        <pt x="308" y="-155" on="0"/>
        <pt x="308" y="-108" on="1"/>
        <pt x="308" y="-71" on="0"/>
        <pt x="351" y="-17" on="0"/>
        <pt x="379" y="-2" on="1"/>
        <pt x="379" y="0" on="1"/>
        <pt x="76" y="0" on="1"/>
      </contour>
    </TTGlyph>
    <TTGlyph name="Esmall" xMin="74" yMin="0" xMax="401" yMax="472">
      <contour>
        <pt x="74" y="472" on="1"/>
        <pt x="399" y="472" on="1"/>
        <pt x="399" y="394" on="1"/>
        <pt x="175" y="394" on="1"/>
        <pt x="175" y="281" on="1"/>
        <pt x="377" y="281" on="1"/>
        <pt x="377" y="204" on="1"/>
        <pt x="175" y="204" on="1"/>
        <pt x="175" y="78" on="1"/>
        <pt x="401" y="78" on="1"/>
        <pt x="401" y="0" on="1"/>
        <pt x="74" y="0" on="1"/>
      </contour>
    </TTGlyph>
    <TTGlyph name="Eth" xMin="27" yMin="0" xMax="635" yMax="630">
      <contour>
        <pt x="319" y="630" on="1"/>
        <pt x="388" y="630" on="0"/>
        <pt x="504" y="592" on="0"/>
        <pt x="588" y="517" on="0"/>
        <pt x="635" y="404" on="0"/>
        <pt x="635" y="329" on="1"/>
        <pt x="635" y="240" on="0"/>
        <pt x="579" y="115" on="0"/>
        <pt x="484" y="36" on="0"/>
        <pt x="357" y="0" on="0"/>
        <pt x="286" y="0" on="1"/>
        <pt x="109" y="0" on="1"/>
        <pt x="109" y="290" on="1"/>
        <pt x="27" y="290" on="1"/>
        <pt x="27" y="362" on="1"/>
        <pt x="109" y="362" on="1"/>
        <pt x="109" y="630" on="1"/>
      </contour>
      <contour>
        <pt x="340" y="362" on="1"/>
        <pt x="340" y="290" on="1"/>
        <pt x="216" y="290" on="1"/>
        <pt x="216" y="86" on="1"/>
        <pt x="277" y="86" on="1"/>
        <pt x="323" y="86" on="0"/>
        <pt x="411" y="107" on="0"/>
        <pt x="479" y="162" on="0"/>
        <pt x="520" y="256" on="0"/>
        <pt x="520" y="329" on="1"/>
        <pt x="520" y="433" on="0"/>
        <pt x="401" y="544" on="0"/>
        <pt x="301" y="544" on="1"/>
        <pt x="216" y="544" on="1"/>
        <pt x="216" y="362" on="1"/>
      </contour>
    </TTGlyph>
    <TTGlyph name="Euro" xMin="21" yMin="-8" xMax="443" yMax="512">
      <contour>
        <pt x="305" y="512" on="1"/>
        <pt x="331" y="512" on="0"/>
        <pt x="371" y="507" on="0"/>
        <pt x="404" y="498" on="0"/>
        <pt x="430" y="487" on="0"/>
        <pt x="443" y="480" on="1"/>
        <pt x="420" y="410" on="1"/>
        <pt x="394" y="423" on="0"/>
        <pt x="345" y="437" on="0"/>
        <pt x="316" y="437" on="1"/>
        <pt x="290" y="437" on="0"/>
        <pt x="242" y="422" on="0"/>
        <pt x="203" y="392" on="0"/>
        <pt x="176" y="347" on="0"/>
        <pt x="172" y="316" on="1"/>
        <pt x="380" y="316" on="1"/>
        <pt x="380" y="266" on="1"/>
        <pt x="166" y="266" on="1"/>
        <pt x="166" y="220" on="1"/>
        <pt x="380" y="220" on="1"/>
        <pt x="380" y="170" on="1"/>
        <pt x="174" y="170" on="1"/>
        <pt x="187" y="114" on="0"/>
        <pt x="263" y="68" on="0"/>
        <pt x="312" y="68" on="1"/>
        <pt x="347" y="68" on="0"/>
        <pt x="397" y="80" on="0"/>
        <pt x="420" y="92" on="1"/>
        <pt x="441" y="22" on="1"/>
        <pt x="415" y="8" on="0"/>
        <pt x="352" y="-8" on="0"/>
        <pt x="302" y="-8" on="1"/>
        <pt x="260" y="-8" on="0"/>
        <pt x="186" y="14" on="0"/>
        <pt x="128" y="59" on="0"/>
        <pt x="88" y="126" on="0"/>
        <pt x="79" y="170" on="1"/>
        <pt x="21" y="170" on="1"/>
        <pt x="21" y="220" on="1"/>
        <pt x="72" y="220" on="1"/>
        <pt x="71" y="233" on="0"/>
        <pt x="71" y="245" on="0"/>
        <pt x="71" y="253" on="1"/>
        <pt x="71" y="266" on="1"/>
        <pt x="21" y="266" on="1"/>
        <pt x="21" y="316" on="1"/>
        <pt x="78" y="316" on="1"/>
        <pt x="93" y="409" on="0"/>
        <pt x="209" y="512" on="0"/>
      </contour>
    </TTGlyph>
    <TTGlyph name="Euro.lat" xMin="5" yMin="-10" xMax="526" yMax="640">
      <contour>
        <pt x="366" y="76" on="1"/>
        <pt x="409" y="76" on="0"/>
        <pt x="472" y="93" on="0"/>
        <pt x="501" y="107" on="1"/>
        <pt x="524" y="24" on="1"/>
        <pt x="492" y="9" on="0"/>
        <pt x="415" y="-10" on="0"/>
        <pt x="354" y="-10" on="1"/>
        <pt x="302" y="-10" on="0"/>
        <pt x="211" y="19" on="0"/>
        <pt x="138" y="77" on="0"/>
        <pt x="88" y="162" on="0"/>
        <pt x="77" y="219" on="1"/>
        <pt x="5" y="219" on="1"/>
        <pt x="5" y="275" on="1"/>
        <pt x="69" y="275" on="1"/>
        <pt x="68" y="292" on="0"/>
        <pt x="68" y="307" on="0"/>
        <pt x="68" y="316" on="1"/>
        <pt x="68" y="333" on="1"/>
        <pt x="5" y="333" on="1"/>
        <pt x="5" y="389" on="1"/>
        <pt x="77" y="389" on="1"/>
        <pt x="95" y="507" on="0"/>
        <pt x="241" y="640" on="0"/>
        <pt x="359" y="640" on="1"/>
        <pt x="390" y="640" on="0"/>
        <pt x="439" y="634" on="0"/>
        <pt x="478" y="624" on="0"/>
        <pt x="511" y="610" on="0"/>
        <pt x="526" y="602" on="1"/>
        <pt x="501" y="521" on="1"/>
        <pt x="467" y="537" on="0"/>
        <pt x="408" y="554" on="0"/>
        <pt x="371" y="554" on="1"/>
        <pt x="338" y="554" on="0"/>
        <pt x="277" y="533" on="0"/>
        <pt x="227" y="492" on="0"/>
        <pt x="193" y="430" on="0"/>
        <pt x="188" y="389" on="1"/>
        <pt x="450" y="389" on="1"/>
        <pt x="450" y="333" on="1"/>
        <pt x="180" y="333" on="1"/>
        <pt x="180" y="321" on="1"/>
        <pt x="180" y="310" on="0"/>
        <pt x="180" y="292" on="0"/>
        <pt x="181" y="275" on="1"/>
        <pt x="450" y="275" on="1"/>
        <pt x="450" y="219" on="1"/>
        <pt x="191" y="219" on="1"/>
        <pt x="198" y="180" on="0"/>
        <pt x="232" y="126" on="0"/>
        <pt x="279" y="91" on="0"/>
        <pt x="336" y="76" on="0"/>
      </contour>
    </TTGlyph>
    <TTGlyph name="F" xMin="76" yMin="0" xMax="456" yMax="630">
      <contour>
        <pt x="456" y="630" on="1"/>
        <pt x="456" y="544" on="1"/>
        <pt x="183" y="544" on="1"/>
        <pt x="183" y="352" on="1"/>
        <pt x="434" y="352" on="1"/>
        <pt x="434" y="267" on="1"/>
        <pt x="183" y="267" on="1"/>
        <pt x="183" y="0" on="1"/>
        <pt x="76" y="0" on="1"/>
        <pt x="76" y="630" on="1"/>
      </contour>
    </TTGlyph>
    <TTGlyph name="Five.tm" xMin="42" yMin="-257" xMax="935" yMax="749">
      <contour>
        <pt x="766" y="318" on="1"/>
        <pt x="805" y="318" on="0"/>
        <pt x="868" y="288" on="0"/>
        <pt x="911" y="233" on="0"/>
        <pt x="935" y="156" on="0"/>
        <pt x="935" y="109" on="1"/>
        <pt x="935" y="30" on="0"/>
        <pt x="874" y="-104" on="0"/>
        <pt x="763" y="-202" on="0"/>
        <pt x="605" y="-257" on="0"/>
        <pt x="509" y="-257" on="1"/>
        <pt x="407" y="-257" on="0"/>
        <pt x="235" y="-191" on="0"/>
        <pt x="111" y="-66" on="0"/>
        <pt x="42" y="116" on="0"/>
        <pt x="42" y="232" on="1"/>
        <pt x="42" y="344" on="0"/>
        <pt x="110" y="534" on="0"/>
        <pt x="239" y="672" on="0"/>
        <pt x="425" y="749" on="0"/>
        <pt x="544" y="749" on="1"/>
        <pt x="610" y="749" on="0"/>
        <pt x="720" y="725" on="0"/>
        <pt x="809" y="689" on="0"/>
        <pt x="875" y="645" on="0"/>
        <pt x="897" y="625" on="1"/>
        <pt x="854" y="565" on="1"/>
        <pt x="830" y="584" on="0"/>
        <pt x="767" y="622" on="0"/>
        <pt x="688" y="652" on="0"/>
        <pt x="594" y="670" on="0"/>
        <pt x="539" y="670" on="1"/>
        <pt x="441" y="670" on="0"/>
        <pt x="290" y="607" on="0"/>
        <pt x="188" y="491" on="0"/>
        <pt x="136" y="330" on="0"/>
        <pt x="136" y="232" on="1"/>
        <pt x="136" y="134" on="0"/>
        <pt x="188" y="-18" on="0"/>
        <pt x="286" y="-123" on="0"/>
        <pt x="426" y="-178" on="0"/>
        <pt x="514" y="-178" on="1"/>
        <pt x="590" y="-178" on="0"/>
        <pt x="711" y="-136" on="0"/>
        <pt x="795" y="-61" on="0"/>
        <pt x="840" y="43" on="0"/>
        <pt x="840" y="105" on="1"/>
        <pt x="840" y="168" on="0"/>
        <pt x="792" y="244" on="0"/>
        <pt x="743" y="244" on="1"/>
        <pt x="719" y="244" on="0"/>
        <pt x="679" y="219" on="0"/>
        <pt x="666" y="197" on="1"/>
        <pt x="666" y="0" on="1"/>
        <pt x="574" y="0" on="1"/>
        <pt x="574" y="423" on="1"/>
        <pt x="417" y="423" on="1"/>
        <pt x="417" y="0" on="1"/>
        <pt x="325" y="0" on="1"/>
        <pt x="325" y="498" on="1"/>
        <pt x="846" y="498" on="1"/>
        <pt x="846" y="423" on="1"/>
        <pt x="666" y="423" on="1"/>
        <pt x="666" y="279" on="1"/>
        <pt x="683" y="296" on="0"/>
        <pt x="736" y="318" on="0"/>
      </contour>
    </TTGlyph>
    <TTGlyph name="Four.tm" xMin="29" yMin="-8" xMax="718" yMax="498">
      <contour>
        <pt x="718" y="498" on="1"/>
        <pt x="718" y="224" on="1"/>
        <pt x="424" y="224" on="1"/>
        <pt x="424" y="152" on="1"/>
        <pt x="424" y="80" on="0"/>
        <pt x="324" y="-8" on="0"/>
        <pt x="232" y="-8" on="1"/>
        <pt x="188" y="-8" on="0"/>
        <pt x="114" y="15" on="0"/>
        <pt x="60" y="57" on="0"/>
        <pt x="29" y="117" on="0"/>
        <pt x="29" y="155" on="1"/>
        <pt x="29" y="182" on="0"/>
        <pt x="45" y="227" on="0"/>
        <pt x="72" y="261" on="0"/>
        <pt x="107" y="283" on="0"/>
        <pt x="126" y="287" on="1"/>
        <pt x="126" y="498" on="1"/>
        <pt x="562" y="498" on="1"/>
        <pt x="562" y="425" on="1"/>
        <pt x="424" y="425" on="1"/>
        <pt x="424" y="295" on="1"/>
        <pt x="632" y="295" on="1"/>
        <pt x="632" y="498" on="1"/>
      </contour>
      <contour>
        <pt x="203" y="224" on="1"/>
        <pt x="164" y="224" on="0"/>
        <pt x="119" y="188" on="0"/>
        <pt x="119" y="153" on="1"/>
        <pt x="119" y="114" on="0"/>
        <pt x="181" y="66" on="0"/>
        <pt x="235" y="66" on="1"/>
        <pt x="283" y="66" on="0"/>
        <pt x="337" y="115" on="0"/>
        <pt x="337" y="159" on="1"/>
        <pt x="337" y="224" on="1"/>
      </contour>
      <contour>
        <pt x="212" y="297" on="1"/>
        <pt x="338" y="297" on="1"/>
        <pt x="338" y="425" on="1"/>
        <pt x="212" y="425" on="1"/>
      </contour>
    </TTGlyph>
    <TTGlyph name="Fsmall" xMin="74" yMin="0" xMax="390" yMax="472">
      <contour>
        <pt x="390" y="472" on="1"/>
        <pt x="390" y="394" on="1"/>
        <pt x="177" y="394" on="1"/>
        <pt x="177" y="267" on="1"/>
        <pt x="372" y="267" on="1"/>
        <pt x="372" y="189" on="1"/>
        <pt x="177" y="189" on="1"/>
        <pt x="177" y="0" on="1"/>
        <pt x="74" y="0" on="1"/>
        <pt x="74" y="472" on="1"/>
      </contour>
    </TTGlyph>
    <TTGlyph name="G" xMin="43" yMin="-10" xMax="567" yMax="640">
      <contour>
        <pt x="360" y="640" on="1"/>
        <pt x="470" y="640" on="0"/>
        <pt x="544" y="603" on="1"/>
        <pt x="520" y="524" on="1"/>
        <pt x="484" y="541" on="0"/>
        <pt x="411" y="557" on="0"/>
        <pt x="372" y="557" on="1"/>
        <pt x="329" y="557" on="0"/>
        <pt x="252" y="531" on="0"/>
        <pt x="193" y="473" on="0"/>
        <pt x="158" y="381" on="0"/>
        <pt x="158" y="314" on="1"/>
        <pt x="158" y="197" on="0"/>
        <pt x="264" y="74" on="0"/>
        <pt x="361" y="74" on="1"/>
        <pt x="395" y="74" on="0"/>
        <pt x="444" y="81" on="0"/>
        <pt x="466" y="89" on="1"/>
        <pt x="466" y="255" on="1"/>
        <pt x="352" y="255" on="1"/>
        <pt x="352" y="337" on="1"/>
        <pt x="567" y="337" on="1"/>
        <pt x="567" y="28" on="1"/>
        <pt x="527" y="12" on="0"/>
        <pt x="427" y="-10" on="0"/>
        <pt x="360" y="-10" on="1"/>
        <pt x="294" y="-10" on="0"/>
        <pt x="178" y="32" on="0"/>
        <pt x="92" y="114" on="0"/>
        <pt x="43" y="235" on="0"/>
        <pt x="43" y="314" on="1"/>
        <pt x="43" y="393" on="0"/>
        <pt x="91" y="515" on="0"/>
        <pt x="176" y="598" on="0"/>
        <pt x="292" y="640" on="0"/>
      </contour>
    </TTGlyph>
    <TTGlyph name="Gbreve" xMin="43" yMin="-10" xMax="567" yMax="838">
      <contour>
        <pt x="360" y="640" on="1"/>
        <pt x="470" y="640" on="0"/>
        <pt x="544" y="603" on="1"/>
        <pt x="520" y="524" on="1"/>
        <pt x="484" y="541" on="0"/>
        <pt x="411" y="557" on="0"/>
        <pt x="372" y="557" on="1"/>
        <pt x="329" y="557" on="0"/>
        <pt x="252" y="531" on="0"/>
        <pt x="193" y="473" on="0"/>
        <pt x="158" y="381" on="0"/>
        <pt x="158" y="314" on="1"/>
        <pt x="158" y="197" on="0"/>
        <pt x="264" y="74" on="0"/>
        <pt x="361" y="74" on="1"/>
        <pt x="395" y="74" on="0"/>
        <pt x="444" y="81" on="0"/>
        <pt x="466" y="89" on="1"/>
        <pt x="466" y="255" on="1"/>
        <pt x="352" y="255" on="1"/>
        <pt x="352" y="337" on="1"/>
        <pt x="567" y="337" on="1"/>
        <pt x="567" y="28" on="1"/>
        <pt x="527" y="12" on="0"/>
        <pt x="427" y="-10" on="0"/>
        <pt x="360" y="-10" on="1"/>
        <pt x="294" y="-10" on="0"/>
        <pt x="178" y="32" on="0"/>
        <pt x="92" y="114" on="0"/>
        <pt x="43" y="235" on="0"/>
        <pt x="43" y="314" on="1"/>
        <pt x="43" y="393" on="0"/>
        <pt x="91" y="515" on="0"/>
        <pt x="176" y="598" on="0"/>
        <pt x="292" y="640" on="0"/>
      </contour>
      <contour>
        <pt x="296" y="838" on="1"/>
        <pt x="299" y="808" on="0"/>
        <pt x="326" y="773" on="0"/>
        <pt x="363" y="773" on="1"/>
        <pt x="395" y="773" on="0"/>
        <pt x="427" y="806" on="0"/>
        <pt x="430" y="838" on="1"/>
        <pt x="497" y="838" on="1"/>
        <pt x="497" y="782" on="0"/>
        <pt x="428" y="713" on="0"/>
        <pt x="363" y="713" on="1"/>
        <pt x="327" y="713" on="0"/>
        <pt x="276" y="734" on="0"/>
        <pt x="243" y="769" on="0"/>
        <pt x="228" y="814" on="0"/>
        <pt x="228" y="838" on="1"/>
      </contour>
    </TTGlyph>
    <TTGlyph name="Gcircumflex" xMin="43" yMin="-10" xMax="567" yMax="836">
      <contour>
        <pt x="360" y="640" on="1"/>
        <pt x="470" y="640" on="0"/>
        <pt x="544" y="603" on="1"/>
        <pt x="520" y="524" on="1"/>
        <pt x="484" y="541" on="0"/>
        <pt x="411" y="557" on="0"/>
        <pt x="372" y="557" on="1"/>
        <pt x="329" y="557" on="0"/>
        <pt x="252" y="531" on="0"/>
        <pt x="193" y="473" on="0"/>
        <pt x="158" y="381" on="0"/>
        <pt x="158" y="314" on="1"/>
        <pt x="158" y="197" on="0"/>
        <pt x="264" y="74" on="0"/>
        <pt x="361" y="74" on="1"/>
        <pt x="395" y="74" on="0"/>
        <pt x="444" y="81" on="0"/>
        <pt x="466" y="89" on="1"/>
        <pt x="466" y="255" on="1"/>
        <pt x="352" y="255" on="1"/>
        <pt x="352" y="337" on="1"/>
        <pt x="567" y="337" on="1"/>
        <pt x="567" y="28" on="1"/>
        <pt x="527" y="12" on="0"/>
        <pt x="427" y="-10" on="0"/>
        <pt x="360" y="-10" on="1"/>
        <pt x="294" y="-10" on="0"/>
        <pt x="178" y="32" on="0"/>
        <pt x="92" y="114" on="0"/>
        <pt x="43" y="235" on="0"/>
        <pt x="43" y="314" on="1"/>
        <pt x="43" y="393" on="0"/>
        <pt x="91" y="515" on="0"/>
        <pt x="176" y="598" on="0"/>
        <pt x="292" y="640" on="0"/>
      </contour>
      <contour>
        <pt x="303" y="836" on="1"/>
        <pt x="382" y="836" on="1"/>
        <pt x="504" y="705" on="1"/>
        <pt x="417" y="705" on="1"/>
        <pt x="342" y="784" on="1"/>
        <pt x="267" y="705" on="1"/>
        <pt x="183" y="705" on="1"/>
      </contour>
    </TTGlyph>
    <TTGlyph name="Gcommaaccent" xMin="43" yMin="-323" xMax="567" yMax="640">
      <contour>
        <pt x="360" y="640" on="1"/>
        <pt x="470" y="640" on="0"/>
        <pt x="544" y="603" on="1"/>
        <pt x="520" y="524" on="1"/>
        <pt x="484" y="541" on="0"/>
        <pt x="411" y="557" on="0"/>
        <pt x="372" y="557" on="1"/>
        <pt x="329" y="557" on="0"/>
        <pt x="252" y="531" on="0"/>
        <pt x="193" y="473" on="0"/>
        <pt x="158" y="381" on="0"/>
        <pt x="158" y="314" on="1"/>
        <pt x="158" y="197" on="0"/>
        <pt x="264" y="74" on="0"/>
        <pt x="361" y="74" on="1"/>
        <pt x="395" y="74" on="0"/>
        <pt x="444" y="81" on="0"/>
        <pt x="466" y="89" on="1"/>
        <pt x="466" y="255" on="1"/>
        <pt x="352" y="255" on="1"/>
        <pt x="352" y="337" on="1"/>
        <pt x="567" y="337" on="1"/>
        <pt x="567" y="28" on="1"/>
        <pt x="527" y="12" on="0"/>
        <pt x="427" y="-10" on="0"/>
        <pt x="360" y="-10" on="1"/>
        <pt x="294" y="-10" on="0"/>
        <pt x="178" y="32" on="0"/>
        <pt x="92" y="114" on="0"/>
        <pt x="43" y="235" on="0"/>
        <pt x="43" y="314" on="1"/>
        <pt x="43" y="393" on="0"/>
        <pt x="91" y="515" on="0"/>
        <pt x="176" y="598" on="0"/>
        <pt x="292" y="640" on="0"/>
      </contour>
      <contour>
        <pt x="345" y="-187" on="1"/>
        <pt x="327" y="-184" on="0"/>
        <pt x="292" y="-153" on="0"/>
        <pt x="292" y="-126" on="1"/>
        <pt x="292" y="-101" on="0"/>
        <pt x="325" y="-65" on="0"/>
        <pt x="354" y="-65" on="1"/>
        <pt x="366" y="-65" on="0"/>
        <pt x="392" y="-75" on="0"/>
        <pt x="413" y="-97" on="0"/>
        <pt x="427" y="-131" on="0"/>
        <pt x="427" y="-156" on="1"/>
        <pt x="427" y="-181" on="0"/>
        <pt x="410" y="-230" on="0"/>
        <pt x="380" y="-274" on="0"/>
        <pt x="339" y="-311" on="0"/>
        <pt x="316" y="-323" on="1"/>
        <pt x="289" y="-286" on="1"/>
        <pt x="316" y="-269" on="0"/>
        <pt x="360" y="-217" on="0"/>
        <pt x="363" y="-191" on="1"/>
      </contour>
    </TTGlyph>
    <TTGlyph name="Gdotaccent" xMin="43" yMin="-10" xMax="567" yMax="820">
      <contour>
        <pt x="360" y="640" on="1"/>
        <pt x="470" y="640" on="0"/>
        <pt x="544" y="603" on="1"/>
        <pt x="520" y="524" on="1"/>
        <pt x="484" y="541" on="0"/>
        <pt x="411" y="557" on="0"/>
        <pt x="372" y="557" on="1"/>
        <pt x="329" y="557" on="0"/>
        <pt x="252" y="531" on="0"/>
        <pt x="193" y="473" on="0"/>
        <pt x="158" y="381" on="0"/>
        <pt x="158" y="314" on="1"/>
        <pt x="158" y="197" on="0"/>
        <pt x="264" y="74" on="0"/>
        <pt x="361" y="74" on="1"/>
        <pt x="395" y="74" on="0"/>
        <pt x="444" y="81" on="0"/>
        <pt x="466" y="89" on="1"/>
        <pt x="466" y="255" on="1"/>
        <pt x="352" y="255" on="1"/>
        <pt x="352" y="337" on="1"/>
        <pt x="567" y="337" on="1"/>
        <pt x="567" y="28" on="1"/>
        <pt x="527" y="12" on="0"/>
        <pt x="427" y="-10" on="0"/>
        <pt x="360" y="-10" on="1"/>
        <pt x="294" y="-10" on="0"/>
        <pt x="178" y="32" on="0"/>
        <pt x="92" y="114" on="0"/>
        <pt x="43" y="235" on="0"/>
        <pt x="43" y="314" on="1"/>
        <pt x="43" y="393" on="0"/>
        <pt x="91" y="515" on="0"/>
        <pt x="176" y="598" on="0"/>
        <pt x="292" y="640" on="0"/>
      </contour>
      <contour>
        <pt x="301" y="762" on="1"/>
        <pt x="301" y="785" on="0"/>
        <pt x="337" y="820" on="0"/>
        <pt x="360" y="820" on="1"/>
        <pt x="385" y="820" on="0"/>
        <pt x="419" y="785" on="0"/>
        <pt x="419" y="762" on="1"/>
        <pt x="419" y="737" on="0"/>
        <pt x="385" y="702" on="0"/>
        <pt x="360" y="702" on="1"/>
        <pt x="337" y="702" on="0"/>
        <pt x="301" y="737" on="0"/>
      </contour>
    </TTGlyph>
    <TTGlyph name="Gsmall" xMin="43" yMin="-10" xMax="456" yMax="480">
      <contour>
        <pt x="303" y="68" on="1"/>
        <pt x="320" y="68" on="0"/>
        <pt x="354" y="72" on="0"/>
        <pt x="368" y="77" on="1"/>
        <pt x="368" y="181" on="1"/>
        <pt x="279" y="181" on="1"/>
        <pt x="279" y="256" on="1"/>
        <pt x="456" y="256" on="1"/>
        <pt x="456" y="18" on="1"/>
        <pt x="424" y="4" on="0"/>
        <pt x="340" y="-10" on="0"/>
        <pt x="296" y="-10" on="1"/>
        <pt x="242" y="-10" on="0"/>
        <pt x="150" y="21" on="0"/>
        <pt x="82" y="82" on="0"/>
        <pt x="43" y="173" on="0"/>
        <pt x="43" y="234" on="1"/>
        <pt x="43" y="291" on="0"/>
        <pt x="80" y="382" on="0"/>
        <pt x="146" y="446" on="0"/>
        <pt x="239" y="480" on="0"/>
        <pt x="296" y="480" on="1"/>
        <pt x="329" y="480" on="0"/>
        <pt x="404" y="471" on="0"/>
        <pt x="442" y="454" on="1"/>
        <pt x="420" y="379" on="1"/>
        <pt x="396" y="392" on="0"/>
        <pt x="336" y="403" on="0"/>
        <pt x="307" y="403" on="1"/>
        <pt x="233" y="403" on="0"/>
        <pt x="148" y="315" on="0"/>
        <pt x="148" y="237" on="1"/>
        <pt x="148" y="189" on="0"/>
        <pt x="174" y="124" on="0"/>
        <pt x="218" y="85" on="0"/>
        <pt x="273" y="68" on="0"/>
      </contour>
    </TTGlyph>
    <TTGlyph name="H" xMin="76" yMin="0" xMax="569" yMax="630">
      <contour>
        <pt x="76" y="0" on="1"/>
        <pt x="76" y="630" on="1"/>
        <pt x="183" y="630" on="1"/>
        <pt x="183" y="370" on="1"/>
        <pt x="462" y="370" on="1"/>
        <pt x="462" y="630" on="1"/>
        <pt x="569" y="630" on="1"/>
        <pt x="569" y="0" on="1"/>
        <pt x="462" y="0" on="1"/>
        <pt x="462" y="282" on="1"/>
        <pt x="183" y="282" on="1"/>
        <pt x="183" y="0" on="1"/>
      </contour>
    </TTGlyph>
    <TTGlyph name="Ha.tm" xMin="15" yMin="-288" xMax="1324" yMax="504">
      <contour>
        <pt x="865" y="504" on="1"/>
        <pt x="891" y="504" on="0"/>
        <pt x="934" y="489" on="0"/>
        <pt x="967" y="465" on="0"/>
        <pt x="989" y="435" on="0"/>
        <pt x="995" y="420" on="1"/>
        <pt x="999" y="435" on="0"/>
        <pt x="1019" y="465" on="0"/>
        <pt x="1050" y="489" on="0"/>
        <pt x="1093" y="504" on="0"/>
        <pt x="1120" y="504" on="1"/>
        <pt x="1157" y="504" on="0"/>
        <pt x="1231" y="469" on="0"/>
        <pt x="1288" y="394" on="0"/>
        <pt x="1324" y="276" on="0"/>
        <pt x="1324" y="194" on="1"/>
        <pt x="1324" y="28" on="0"/>
        <pt x="1154" y="-147" on="0"/>
        <pt x="980" y="-147" on="1"/>
        <pt x="165" y="-147" on="1"/>
        <pt x="136" y="-147" on="0"/>
        <pt x="109" y="-173" on="0"/>
        <pt x="109" y="-195" on="1"/>
        <pt x="109" y="-211" on="0"/>
        <pt x="121" y="-240" on="0"/>
        <pt x="129" y="-253" on="1"/>
        <pt x="51" y="-288" on="1"/>
        <pt x="37" y="-268" on="0"/>
        <pt x="15" y="-216" on="0"/>
        <pt x="15" y="-185" on="1"/>
        <pt x="15" y="-153" on="0"/>
        <pt x="37" y="-109" on="0"/>
        <pt x="72" y="-83" on="0"/>
        <pt x="117" y="-72" on="0"/>
        <pt x="140" y="-72" on="1"/>
        <pt x="991" y="-72" on="1"/>
        <pt x="1118" y="-72" on="0"/>
        <pt x="1229" y="69" on="0"/>
        <pt x="1229" y="197" on="1"/>
        <pt x="1229" y="258" on="0"/>
        <pt x="1209" y="344" on="0"/>
        <pt x="1176" y="399" on="0"/>
        <pt x="1133" y="425" on="0"/>
        <pt x="1110" y="425" on="1"/>
        <pt x="1075" y="425" on="0"/>
        <pt x="1041" y="381" on="0"/>
        <pt x="1041" y="341" on="1"/>
        <pt x="1041" y="0" on="1"/>
        <pt x="948" y="0" on="1"/>
        <pt x="948" y="336" on="1"/>
        <pt x="948" y="375" on="0"/>
        <pt x="910" y="425" on="0"/>
        <pt x="872" y="425" on="1"/>
        <pt x="837" y="425" on="0"/>
        <pt x="802" y="379" on="0"/>
        <pt x="802" y="338" on="1"/>
        <pt x="802" y="0" on="1"/>
        <pt x="483" y="0" on="1"/>
        <pt x="457" y="56" on="1"/>
        <pt x="508" y="125" on="0"/>
        <pt x="508" y="229" on="1"/>
        <pt x="508" y="273" on="0"/>
        <pt x="482" y="345" on="0"/>
        <pt x="434" y="397" on="0"/>
        <pt x="365" y="426" on="0"/>
        <pt x="322" y="426" on="1"/>
        <pt x="279" y="426" on="0"/>
        <pt x="209" y="399" on="0"/>
        <pt x="158" y="351" on="0"/>
        <pt x="128" y="284" on="0"/>
        <pt x="125" y="244" on="1"/>
        <pt x="144" y="269" on="0"/>
        <pt x="203" y="297" on="0"/>
        <pt x="238" y="297" on="1"/>
        <pt x="271" y="297" on="0"/>
        <pt x="326" y="275" on="0"/>
        <pt x="366" y="235" on="0"/>
        <pt x="389" y="181" on="0"/>
        <pt x="389" y="148" on="1"/>
        <pt x="389" y="113" on="0"/>
        <pt x="364" y="55" on="0"/>
        <pt x="319" y="14" on="0"/>
        <pt x="258" y="-8" on="0"/>
        <pt x="223" y="-8" on="1"/>
        <pt x="182" y="-8" on="0"/>
        <pt x="115" y="24" on="0"/>
        <pt x="67" y="83" on="0"/>
        <pt x="41" y="167" on="0"/>
        <pt x="41" y="219" on="1"/>
        <pt x="41" y="283" on="0"/>
        <pt x="84" y="388" on="0"/>
        <pt x="160" y="463" on="0"/>
        <pt x="265" y="504" on="0"/>
        <pt x="327" y="504" on="1"/>
        <pt x="386" y="504" on="0"/>
        <pt x="487" y="465" on="0"/>
        <pt x="561" y="394" on="0"/>
        <pt x="603" y="296" on="0"/>
        <pt x="603" y="236" on="1"/>
        <pt x="603" y="184" on="0"/>
        <pt x="577" y="98" on="0"/>
        <pt x="563" y="75" on="1"/>
        <pt x="710" y="75" on="1"/>
        <pt x="710" y="334" on="1"/>
        <pt x="710" y="380" on="0"/>
        <pt x="734" y="444" on="0"/>
        <pt x="775" y="485" on="0"/>
        <pt x="832" y="504" on="0"/>
      </contour>
      <contour>
        <pt x="219" y="224" on="1"/>
        <pt x="187" y="224" on="0"/>
        <pt x="144" y="185" on="0"/>
        <pt x="132" y="158" on="1"/>
        <pt x="139" y="113" on="0"/>
        <pt x="190" y="67" on="0"/>
        <pt x="222" y="67" on="1"/>
        <pt x="256" y="67" on="0"/>
        <pt x="298" y="112" on="0"/>
        <pt x="298" y="146" on="1"/>
        <pt x="298" y="181" on="0"/>
        <pt x="256" y="224" on="0"/>
      </contour>
    </TTGlyph>
    <TTGlyph name="HaMatraI.tm" xMin="15" yMin="-288" xMax="1528" yMax="755">
      <contour>
        <pt x="219" y="224" on="1"/>
        <pt x="187" y="224" on="0"/>
        <pt x="144" y="185" on="0"/>
        <pt x="132" y="158" on="1"/>
        <pt x="139" y="113" on="0"/>
        <pt x="190" y="67" on="0"/>
        <pt x="222" y="67" on="1"/>
        <pt x="256" y="67" on="0"/>
        <pt x="298" y="112" on="0"/>
        <pt x="298" y="146" on="1"/>
        <pt x="298" y="181" on="0"/>
        <pt x="256" y="224" on="0"/>
      </contour>
      <contour>
        <pt x="1324" y="194" on="1"/>
        <pt x="1324" y="28" on="0"/>
        <pt x="1155" y="-147" on="0"/>
        <pt x="980" y="-147" on="1"/>
        <pt x="165" y="-147" on="1"/>
        <pt x="136" y="-147" on="0"/>
        <pt x="109" y="-173" on="0"/>
        <pt x="109" y="-195" on="1"/>
        <pt x="109" y="-211" on="0"/>
        <pt x="121" y="-240" on="0"/>
        <pt x="129" y="-253" on="1"/>
        <pt x="51" y="-288" on="1"/>
        <pt x="37" y="-268" on="0"/>
        <pt x="15" y="-216" on="0"/>
        <pt x="15" y="-185" on="1"/>
        <pt x="15" y="-153" on="0"/>
        <pt x="37" y="-109" on="0"/>
        <pt x="72" y="-83" on="0"/>
        <pt x="117" y="-72" on="0"/>
        <pt x="140" y="-72" on="1"/>
        <pt x="991" y="-72" on="1"/>
        <pt x="1119" y="-72" on="0"/>
        <pt x="1229" y="69" on="0"/>
        <pt x="1229" y="197" on="1"/>
        <pt x="1229" y="257" on="0"/>
        <pt x="1209" y="344" on="0"/>
        <pt x="1176" y="399" on="0"/>
        <pt x="1133" y="425" on="0"/>
        <pt x="1110" y="425" on="1"/>
        <pt x="1075" y="425" on="0"/>
        <pt x="1040" y="381" on="0"/>
        <pt x="1040" y="341" on="1"/>
        <pt x="1040" y="0" on="1"/>
        <pt x="948" y="0" on="1"/>
        <pt x="948" y="336" on="1"/>
        <pt x="948" y="375" on="0"/>
        <pt x="909" y="425" on="0"/>
        <pt x="871" y="425" on="1"/>
        <pt x="835" y="425" on="0"/>
        <pt x="802" y="379" on="0"/>
        <pt x="802" y="338" on="1"/>
        <pt x="802" y="0" on="1"/>
        <pt x="483" y="0" on="1"/>
        <pt x="457" y="56" on="1"/>
        <pt x="508" y="125" on="0"/>
        <pt x="508" y="229" on="1"/>
        <pt x="508" y="273" on="0"/>
        <pt x="482" y="345" on="0"/>
        <pt x="434" y="397" on="0"/>
        <pt x="365" y="426" on="0"/>
        <pt x="322" y="426" on="1"/>
        <pt x="279" y="426" on="0"/>
        <pt x="209" y="399" on="0"/>
        <pt x="158" y="351" on="0"/>
        <pt x="128" y="284" on="0"/>
        <pt x="125" y="244" on="1"/>
        <pt x="144" y="269" on="0"/>
        <pt x="203" y="297" on="0"/>
        <pt x="238" y="297" on="1"/>
        <pt x="271" y="297" on="0"/>
        <pt x="326" y="275" on="0"/>
        <pt x="366" y="235" on="0"/>
        <pt x="389" y="181" on="0"/>
        <pt x="389" y="148" on="1"/>
        <pt x="389" y="113" on="0"/>
        <pt x="364" y="55" on="0"/>
        <pt x="319" y="14" on="0"/>
        <pt x="258" y="-8" on="0"/>
        <pt x="223" y="-8" on="1"/>
        <pt x="182" y="-8" on="0"/>
        <pt x="115" y="24" on="0"/>
        <pt x="67" y="83" on="0"/>
        <pt x="41" y="167" on="0"/>
        <pt x="41" y="219" on="1"/>
        <pt x="41" y="283" on="0"/>
        <pt x="84" y="388" on="0"/>
        <pt x="160" y="463" on="0"/>
        <pt x="265" y="504" on="0"/>
        <pt x="327" y="504" on="1"/>
        <pt x="386" y="504" on="0"/>
        <pt x="487" y="465" on="0"/>
        <pt x="561" y="394" on="0"/>
        <pt x="603" y="296" on="0"/>
        <pt x="603" y="236" on="1"/>
        <pt x="603" y="184" on="0"/>
        <pt x="577" y="98" on="0"/>
        <pt x="563" y="75" on="1"/>
        <pt x="710" y="75" on="1"/>
        <pt x="710" y="334" on="1"/>
        <pt x="710" y="380" on="0"/>
        <pt x="734" y="444" on="0"/>
        <pt x="775" y="485" on="0"/>
        <pt x="831" y="504" on="0"/>
        <pt x="864" y="504" on="1"/>
        <pt x="890" y="504" on="0"/>
        <pt x="934" y="489" on="0"/>
        <pt x="967" y="465" on="0"/>
        <pt x="989" y="435" on="0"/>
        <pt x="995" y="420" on="1"/>
        <pt x="999" y="435" on="0"/>
        <pt x="1018" y="463" on="0"/>
        <pt x="1049" y="486" on="0"/>
        <pt x="1091" y="500" on="0"/>
        <pt x="1118" y="500" on="1"/>
        <pt x="1122" y="500" on="0"/>
        <pt x="1130" y="500" on="0"/>
        <pt x="1134" y="499" on="1"/>
        <pt x="1126" y="515" on="0"/>
        <pt x="1116" y="553" on="0"/>
        <pt x="1116" y="576" on="1"/>
        <pt x="1116" y="614" on="0"/>
        <pt x="1144" y="679" on="0"/>
        <pt x="1197" y="727" on="0"/>
        <pt x="1273" y="755" on="0"/>
        <pt x="1320" y="755" on="1"/>
        <pt x="1416" y="755" on="0"/>
        <pt x="1528" y="642" on="0"/>
        <pt x="1528" y="538" on="1"/>
        <pt x="1528" y="0" on="1"/>
        <pt x="1436" y="0" on="1"/>
        <pt x="1436" y="533" on="1"/>
        <pt x="1436" y="603" on="0"/>
        <pt x="1376" y="677" on="0"/>
        <pt x="1317" y="677" on="1"/>
        <pt x="1265" y="677" on="0"/>
        <pt x="1206" y="618" on="0"/>
        <pt x="1206" y="569" on="1"/>
        <pt x="1206" y="536" on="0"/>
        <pt x="1230" y="472" on="0"/>
        <pt x="1253" y="434" on="1"/>
        <pt x="1280" y="390" on="0"/>
        <pt x="1324" y="277" on="0"/>
      </contour>
    </TTGlyph>
    <TTGlyph name="HaMatraIi.tm" xMin="15" yMin="-288" xMax="1426" yMax="793">
      <contour>
        <pt x="1229" y="197" on="1"/>
        <pt x="1229" y="258" on="0"/>
        <pt x="1208" y="344" on="0"/>
        <pt x="1174" y="399" on="0"/>
        <pt x="1131" y="425" on="0"/>
        <pt x="1110" y="425" on="1"/>
        <pt x="1075" y="425" on="0"/>
        <pt x="1041" y="381" on="0"/>
        <pt x="1041" y="341" on="1"/>
        <pt x="1041" y="0" on="1"/>
        <pt x="948" y="0" on="1"/>
        <pt x="948" y="336" on="1"/>
        <pt x="948" y="375" on="0"/>
        <pt x="910" y="425" on="0"/>
        <pt x="872" y="425" on="1"/>
        <pt x="836" y="425" on="0"/>
        <pt x="802" y="379" on="0"/>
        <pt x="802" y="338" on="1"/>
        <pt x="802" y="0" on="1"/>
        <pt x="483" y="0" on="1"/>
        <pt x="457" y="56" on="1"/>
        <pt x="508" y="125" on="0"/>
        <pt x="508" y="229" on="1"/>
        <pt x="508" y="273" on="0"/>
        <pt x="482" y="345" on="0"/>
        <pt x="434" y="397" on="0"/>
        <pt x="365" y="426" on="0"/>
        <pt x="322" y="426" on="1"/>
        <pt x="279" y="426" on="0"/>
        <pt x="209" y="399" on="0"/>
        <pt x="158" y="351" on="0"/>
        <pt x="128" y="284" on="0"/>
        <pt x="125" y="244" on="1"/>
        <pt x="144" y="269" on="0"/>
        <pt x="203" y="297" on="0"/>
        <pt x="238" y="297" on="1"/>
        <pt x="271" y="297" on="0"/>
        <pt x="326" y="275" on="0"/>
        <pt x="366" y="235" on="0"/>
        <pt x="389" y="181" on="0"/>
        <pt x="389" y="148" on="1"/>
        <pt x="389" y="113" on="0"/>
        <pt x="364" y="55" on="0"/>
        <pt x="319" y="14" on="0"/>
        <pt x="258" y="-8" on="0"/>
        <pt x="223" y="-8" on="1"/>
        <pt x="182" y="-8" on="0"/>
        <pt x="115" y="24" on="0"/>
        <pt x="67" y="83" on="0"/>
        <pt x="41" y="167" on="0"/>
        <pt x="41" y="219" on="1"/>
        <pt x="41" y="283" on="0"/>
        <pt x="84" y="388" on="0"/>
        <pt x="160" y="463" on="0"/>
        <pt x="265" y="504" on="0"/>
        <pt x="327" y="504" on="1"/>
        <pt x="386" y="504" on="0"/>
        <pt x="487" y="465" on="0"/>
        <pt x="561" y="394" on="0"/>
        <pt x="603" y="296" on="0"/>
        <pt x="603" y="236" on="1"/>
        <pt x="603" y="184" on="0"/>
        <pt x="577" y="98" on="0"/>
        <pt x="563" y="75" on="1"/>
        <pt x="710" y="75" on="1"/>
        <pt x="710" y="334" on="1"/>
        <pt x="710" y="380" on="0"/>
        <pt x="734" y="444" on="0"/>
        <pt x="775" y="485" on="0"/>
        <pt x="832" y="504" on="0"/>
        <pt x="865" y="504" on="1"/>
        <pt x="891" y="504" on="0"/>
        <pt x="934" y="489" on="0"/>
        <pt x="967" y="465" on="0"/>
        <pt x="989" y="435" on="0"/>
        <pt x="995" y="420" on="1"/>
        <pt x="1003" y="446" on="0"/>
        <pt x="1050" y="493" on="0"/>
        <pt x="1092" y="500" on="1"/>
        <pt x="1072" y="522" on="0"/>
        <pt x="1049" y="582" on="0"/>
        <pt x="1049" y="612" on="1"/>
        <pt x="1049" y="652" on="0"/>
        <pt x="1080" y="718" on="0"/>
        <pt x="1135" y="766" on="0"/>
        <pt x="1214" y="793" on="0"/>
        <pt x="1262" y="793" on="1"/>
        <pt x="1302" y="793" on="0"/>
        <pt x="1364" y="773" on="0"/>
        <pt x="1405" y="740" on="0"/>
        <pt x="1426" y="697" on="0"/>
        <pt x="1426" y="673" on="1"/>
        <pt x="1426" y="623" on="0"/>
        <pt x="1359" y="561" on="0"/>
        <pt x="1306" y="561" on="1"/>
        <pt x="1255" y="561" on="0"/>
        <pt x="1193" y="621" on="0"/>
        <pt x="1193" y="663" on="1"/>
        <pt x="1193" y="705" on="0"/>
        <pt x="1222" y="732" on="1"/>
        <pt x="1183" y="724" on="0"/>
        <pt x="1135" y="659" on="0"/>
        <pt x="1135" y="611" on="1"/>
        <pt x="1135" y="587" on="0"/>
        <pt x="1151" y="546" on="0"/>
        <pt x="1176" y="509" on="0"/>
        <pt x="1207" y="477" on="0"/>
        <pt x="1223" y="462" on="1"/>
        <pt x="1243" y="443" on="0"/>
        <pt x="1280" y="393" on="0"/>
        <pt x="1308" y="328" on="0"/>
        <pt x="1324" y="245" on="0"/>
        <pt x="1324" y="194" on="1"/>
        <pt x="1324" y="28" on="0"/>
        <pt x="1154" y="-147" on="0"/>
        <pt x="980" y="-147" on="1"/>
        <pt x="165" y="-147" on="1"/>
        <pt x="136" y="-147" on="0"/>
        <pt x="109" y="-173" on="0"/>
        <pt x="109" y="-195" on="1"/>
        <pt x="109" y="-211" on="0"/>
        <pt x="121" y="-240" on="0"/>
        <pt x="129" y="-253" on="1"/>
        <pt x="51" y="-288" on="1"/>
        <pt x="37" y="-268" on="0"/>
        <pt x="15" y="-216" on="0"/>
        <pt x="15" y="-185" on="1"/>
        <pt x="15" y="-153" on="0"/>
        <pt x="37" y="-109" on="0"/>
        <pt x="72" y="-83" on="0"/>
        <pt x="117" y="-72" on="0"/>
        <pt x="140" y="-72" on="1"/>
        <pt x="991" y="-72" on="1"/>
        <pt x="1118" y="-72" on="0"/>
        <pt x="1229" y="69" on="0"/>
      </contour>
      <contour>
        <pt x="219" y="224" on="1"/>
        <pt x="187" y="224" on="0"/>
        <pt x="144" y="185" on="0"/>
        <pt x="132" y="158" on="1"/>
        <pt x="139" y="113" on="0"/>
        <pt x="190" y="67" on="0"/>
        <pt x="222" y="67" on="1"/>
        <pt x="256" y="67" on="0"/>
        <pt x="298" y="112" on="0"/>
        <pt x="298" y="146" on="1"/>
        <pt x="298" y="181" on="0"/>
        <pt x="256" y="224" on="0"/>
      </contour>
      <contour>
        <pt x="1354" y="674" on="1"/>
        <pt x="1354" y="699" on="0"/>
        <pt x="1321" y="729" on="0"/>
        <pt x="1298" y="731" on="1"/>
        <pt x="1281" y="723" on="0"/>
        <pt x="1260" y="693" on="0"/>
        <pt x="1260" y="673" on="1"/>
        <pt x="1260" y="652" on="0"/>
        <pt x="1287" y="626" on="0"/>
        <pt x="1308" y="626" on="1"/>
        <pt x="1328" y="626" on="0"/>
        <pt x="1354" y="652" on="0"/>
      </contour>
    </TTGlyph>
    <TTGlyph name="HaMatraU.tm" xMin="15" yMin="-288" xMax="1669" yMax="504">
      <contour>
        <pt x="865" y="504" on="1"/>
        <pt x="891" y="504" on="0"/>
        <pt x="934" y="489" on="0"/>
        <pt x="967" y="465" on="0"/>
        <pt x="989" y="435" on="0"/>
        <pt x="995" y="420" on="1"/>
        <pt x="999" y="434" on="0"/>
        <pt x="1019" y="462" on="0"/>
        <pt x="1050" y="484" on="0"/>
        <pt x="1093" y="498" on="0"/>
        <pt x="1120" y="498" on="1"/>
        <pt x="1491" y="498" on="1"/>
        <pt x="1576" y="498" on="0"/>
        <pt x="1669" y="424" on="0"/>
        <pt x="1669" y="363" on="1"/>
        <pt x="1669" y="337" on="0"/>
        <pt x="1651" y="293" on="0"/>
        <pt x="1617" y="260" on="0"/>
        <pt x="1568" y="241" on="0"/>
        <pt x="1537" y="241" on="1"/>
        <pt x="1508" y="241" on="0"/>
        <pt x="1461" y="259" on="0"/>
        <pt x="1427" y="289" on="0"/>
        <pt x="1408" y="330" on="0"/>
        <pt x="1408" y="353" on="1"/>
        <pt x="1408" y="401" on="0"/>
        <pt x="1440" y="431" on="1"/>
        <pt x="1247" y="431" on="1"/>
        <pt x="1281" y="397" on="0"/>
        <pt x="1324" y="276" on="0"/>
        <pt x="1324" y="194" on="1"/>
        <pt x="1324" y="28" on="0"/>
        <pt x="1154" y="-147" on="0"/>
        <pt x="980" y="-147" on="1"/>
        <pt x="165" y="-147" on="1"/>
        <pt x="136" y="-147" on="0"/>
        <pt x="109" y="-173" on="0"/>
        <pt x="109" y="-195" on="1"/>
        <pt x="109" y="-211" on="0"/>
        <pt x="121" y="-240" on="0"/>
        <pt x="129" y="-253" on="1"/>
        <pt x="51" y="-288" on="1"/>
        <pt x="37" y="-268" on="0"/>
        <pt x="15" y="-216" on="0"/>
        <pt x="15" y="-185" on="1"/>
        <pt x="15" y="-153" on="0"/>
        <pt x="37" y="-109" on="0"/>
        <pt x="72" y="-83" on="0"/>
        <pt x="117" y="-72" on="0"/>
        <pt x="140" y="-72" on="1"/>
        <pt x="991" y="-72" on="1"/>
        <pt x="1118" y="-72" on="0"/>
        <pt x="1229" y="69" on="0"/>
        <pt x="1229" y="197" on="1"/>
        <pt x="1229" y="257" on="0"/>
        <pt x="1209" y="343" on="0"/>
        <pt x="1176" y="398" on="0"/>
        <pt x="1133" y="424" on="0"/>
        <pt x="1110" y="424" on="1"/>
        <pt x="1075" y="424" on="0"/>
        <pt x="1041" y="381" on="0"/>
        <pt x="1041" y="341" on="1"/>
        <pt x="1041" y="0" on="1"/>
        <pt x="948" y="0" on="1"/>
        <pt x="948" y="336" on="1"/>
        <pt x="948" y="375" on="0"/>
        <pt x="910" y="425" on="0"/>
        <pt x="872" y="425" on="1"/>
        <pt x="837" y="425" on="0"/>
        <pt x="802" y="379" on="0"/>
        <pt x="802" y="338" on="1"/>
        <pt x="802" y="0" on="1"/>
        <pt x="483" y="0" on="1"/>
        <pt x="457" y="56" on="1"/>
        <pt x="508" y="125" on="0"/>
        <pt x="508" y="229" on="1"/>
        <pt x="508" y="273" on="0"/>
        <pt x="482" y="345" on="0"/>
        <pt x="434" y="397" on="0"/>
        <pt x="365" y="426" on="0"/>
        <pt x="322" y="426" on="1"/>
        <pt x="279" y="426" on="0"/>
        <pt x="209" y="399" on="0"/>
        <pt x="158" y="351" on="0"/>
        <pt x="128" y="284" on="0"/>
        <pt x="125" y="244" on="1"/>
        <pt x="144" y="269" on="0"/>
        <pt x="203" y="297" on="0"/>
        <pt x="238" y="297" on="1"/>
        <pt x="271" y="297" on="0"/>
        <pt x="326" y="275" on="0"/>
        <pt x="366" y="235" on="0"/>
        <pt x="389" y="181" on="0"/>
        <pt x="389" y="148" on="1"/>
        <pt x="389" y="113" on="0"/>
        <pt x="364" y="55" on="0"/>
        <pt x="319" y="14" on="0"/>
        <pt x="258" y="-8" on="0"/>
        <pt x="223" y="-8" on="1"/>
        <pt x="182" y="-8" on="0"/>
        <pt x="115" y="24" on="0"/>
        <pt x="67" y="83" on="0"/>
        <pt x="41" y="167" on="0"/>
        <pt x="41" y="219" on="1"/>
        <pt x="41" y="283" on="0"/>
        <pt x="83" y="388" on="0"/>
        <pt x="159" y="463" on="0"/>
        <pt x="264" y="504" on="0"/>
        <pt x="327" y="504" on="1"/>
        <pt x="386" y="504" on="0"/>
        <pt x="487" y="465" on="0"/>
        <pt x="561" y="394" on="0"/>
        <pt x="603" y="296" on="0"/>
        <pt x="603" y="236" on="1"/>
        <pt x="603" y="184" on="0"/>
        <pt x="577" y="98" on="0"/>
        <pt x="563" y="75" on="1"/>
        <pt x="710" y="75" on="1"/>
        <pt x="710" y="334" on="1"/>
        <pt x="710" y="380" on="0"/>
        <pt x="734" y="444" on="0"/>
        <pt x="775" y="485" on="0"/>
        <pt x="832" y="504" on="0"/>
      </contour>
      <contour>
        <pt x="219" y="224" on="1"/>
        <pt x="187" y="224" on="0"/>
        <pt x="144" y="185" on="0"/>
        <pt x="132" y="158" on="1"/>
        <pt x="139" y="113" on="0"/>
        <pt x="190" y="67" on="0"/>
        <pt x="222" y="67" on="1"/>
        <pt x="256" y="67" on="0"/>
        <pt x="298" y="112" on="0"/>
        <pt x="298" y="146" on="1"/>
        <pt x="298" y="181" on="0"/>
        <pt x="256" y="224" on="0"/>
      </contour>
      <contour>
        <pt x="1591" y="363" on="1"/>
        <pt x="1591" y="392" on="0"/>
        <pt x="1554" y="425" on="0"/>
        <pt x="1528" y="427" on="1"/>
        <pt x="1507" y="419" on="0"/>
        <pt x="1485" y="382" on="0"/>
        <pt x="1485" y="361" on="1"/>
        <pt x="1485" y="337" on="0"/>
        <pt x="1516" y="308" on="0"/>
        <pt x="1539" y="308" on="1"/>
        <pt x="1560" y="308" on="0"/>
        <pt x="1591" y="337" on="0"/>
      </contour>
    </TTGlyph>
    <TTGlyph name="HaMatraUu.tm" xMin="15" yMin="-288" xMax="1880" yMax="627">
      <contour>
        <pt x="1646" y="627" on="1"/>
        <pt x="1698" y="627" on="0"/>
        <pt x="1785" y="595" on="0"/>
        <pt x="1846" y="536" on="0"/>
        <pt x="1880" y="453" on="0"/>
        <pt x="1880" y="402" on="1"/>
        <pt x="1880" y="359" on="0"/>
        <pt x="1856" y="284" on="0"/>
        <pt x="1813" y="223" on="0"/>
        <pt x="1755" y="176" on="0"/>
        <pt x="1722" y="160" on="1"/>
        <pt x="1679" y="225" on="1"/>
        <pt x="1729" y="251" on="0"/>
        <pt x="1791" y="342" on="0"/>
        <pt x="1791" y="402" on="1"/>
        <pt x="1791" y="474" on="0"/>
        <pt x="1713" y="557" on="0"/>
        <pt x="1642" y="557" on="1"/>
        <pt x="1601" y="557" on="0"/>
        <pt x="1534" y="522" on="0"/>
        <pt x="1518" y="495" on="1"/>
        <pt x="1594" y="494" on="0"/>
        <pt x="1671" y="424" on="0"/>
        <pt x="1671" y="372" on="1"/>
        <pt x="1671" y="348" on="0"/>
        <pt x="1652" y="305" on="0"/>
        <pt x="1618" y="274" on="0"/>
        <pt x="1571" y="256" on="0"/>
        <pt x="1543" y="256" on="1"/>
        <pt x="1512" y="256" on="0"/>
        <pt x="1463" y="278" on="0"/>
        <pt x="1430" y="316" on="0"/>
        <pt x="1413" y="365" on="0"/>
        <pt x="1413" y="391" on="1"/>
        <pt x="1413" y="401" on="0"/>
        <pt x="1415" y="421" on="0"/>
        <pt x="1417" y="430" on="1"/>
        <pt x="1248" y="430" on="1"/>
        <pt x="1282" y="396" on="0"/>
        <pt x="1324" y="275" on="0"/>
        <pt x="1324" y="194" on="1"/>
        <pt x="1324" y="28" on="0"/>
        <pt x="1154" y="-147" on="0"/>
        <pt x="980" y="-147" on="1"/>
        <pt x="165" y="-147" on="1"/>
        <pt x="136" y="-147" on="0"/>
        <pt x="109" y="-173" on="0"/>
        <pt x="109" y="-195" on="1"/>
        <pt x="109" y="-211" on="0"/>
        <pt x="121" y="-240" on="0"/>
        <pt x="129" y="-253" on="1"/>
        <pt x="51" y="-288" on="1"/>
        <pt x="37" y="-268" on="0"/>
        <pt x="15" y="-216" on="0"/>
        <pt x="15" y="-185" on="1"/>
        <pt x="15" y="-153" on="0"/>
        <pt x="37" y="-109" on="0"/>
        <pt x="72" y="-83" on="0"/>
        <pt x="117" y="-72" on="0"/>
        <pt x="140" y="-72" on="1"/>
        <pt x="991" y="-72" on="1"/>
        <pt x="1118" y="-72" on="0"/>
        <pt x="1229" y="69" on="0"/>
        <pt x="1229" y="197" on="1"/>
        <pt x="1229" y="257" on="0"/>
        <pt x="1209" y="343" on="0"/>
        <pt x="1176" y="398" on="0"/>
        <pt x="1133" y="424" on="0"/>
        <pt x="1110" y="424" on="1"/>
        <pt x="1075" y="424" on="0"/>
        <pt x="1041" y="381" on="0"/>
        <pt x="1041" y="341" on="1"/>
        <pt x="1041" y="0" on="1"/>
        <pt x="948" y="0" on="1"/>
        <pt x="948" y="336" on="1"/>
        <pt x="948" y="375" on="0"/>
        <pt x="910" y="425" on="0"/>
        <pt x="872" y="425" on="1"/>
        <pt x="837" y="425" on="0"/>
        <pt x="802" y="379" on="0"/>
        <pt x="802" y="338" on="1"/>
        <pt x="802" y="0" on="1"/>
        <pt x="483" y="0" on="1"/>
        <pt x="457" y="56" on="1"/>
        <pt x="508" y="125" on="0"/>
        <pt x="508" y="229" on="1"/>
        <pt x="508" y="273" on="0"/>
        <pt x="482" y="345" on="0"/>
        <pt x="434" y="397" on="0"/>
        <pt x="365" y="426" on="0"/>
        <pt x="322" y="426" on="1"/>
        <pt x="279" y="426" on="0"/>
        <pt x="209" y="399" on="0"/>
        <pt x="158" y="351" on="0"/>
        <pt x="128" y="284" on="0"/>
        <pt x="125" y="244" on="1"/>
        <pt x="144" y="269" on="0"/>
        <pt x="203" y="297" on="0"/>
        <pt x="238" y="297" on="1"/>
        <pt x="271" y="297" on="0"/>
        <pt x="326" y="275" on="0"/>
        <pt x="366" y="235" on="0"/>
        <pt x="389" y="181" on="0"/>
        <pt x="389" y="148" on="1"/>
        <pt x="389" y="113" on="0"/>
        <pt x="364" y="55" on="0"/>
        <pt x="319" y="14" on="0"/>
        <pt x="258" y="-8" on="0"/>
        <pt x="223" y="-8" on="1"/>
        <pt x="182" y="-8" on="0"/>
        <pt x="115" y="24" on="0"/>
        <pt x="67" y="83" on="0"/>
        <pt x="41" y="167" on="0"/>
        <pt x="41" y="219" on="1"/>
        <pt x="41" y="283" on="0"/>
        <pt x="83" y="388" on="0"/>
        <pt x="159" y="463" on="0"/>
        <pt x="264" y="504" on="0"/>
        <pt x="327" y="504" on="1"/>
        <pt x="386" y="504" on="0"/>
        <pt x="487" y="465" on="0"/>
        <pt x="561" y="394" on="0"/>
        <pt x="603" y="296" on="0"/>
        <pt x="603" y="236" on="1"/>
        <pt x="603" y="184" on="0"/>
        <pt x="577" y="98" on="0"/>
        <pt x="563" y="75" on="1"/>
        <pt x="710" y="75" on="1"/>
        <pt x="710" y="334" on="1"/>
        <pt x="710" y="380" on="0"/>
        <pt x="734" y="444" on="0"/>
        <pt x="775" y="485" on="0"/>
        <pt x="832" y="504" on="0"/>
        <pt x="865" y="504" on="1"/>
        <pt x="891" y="504" on="0"/>
        <pt x="934" y="489" on="0"/>
        <pt x="967" y="465" on="0"/>
        <pt x="989" y="435" on="0"/>
        <pt x="995" y="420" on="1"/>
        <pt x="999" y="434" on="0"/>
        <pt x="1019" y="462" on="0"/>
        <pt x="1050" y="484" on="0"/>
        <pt x="1093" y="498" on="0"/>
        <pt x="1120" y="498" on="1"/>
        <pt x="1436" y="498" on="1"/>
        <pt x="1447" y="522" on="0"/>
        <pt x="1485" y="569" on="0"/>
        <pt x="1538" y="605" on="0"/>
        <pt x="1606" y="627" on="0"/>
      </contour>
      <contour>
        <pt x="219" y="224" on="1"/>
        <pt x="187" y="224" on="0"/>
        <pt x="144" y="185" on="0"/>
        <pt x="132" y="158" on="1"/>
        <pt x="139" y="113" on="0"/>
        <pt x="190" y="67" on="0"/>
        <pt x="222" y="67" on="1"/>
        <pt x="256" y="67" on="0"/>
        <pt x="298" y="112" on="0"/>
        <pt x="298" y="146" on="1"/>
        <pt x="298" y="181" on="0"/>
        <pt x="256" y="224" on="0"/>
      </contour>
      <contour>
        <pt x="1496" y="427" on="1"/>
        <pt x="1491" y="409" on="0"/>
        <pt x="1491" y="390" on="1"/>
        <pt x="1491" y="361" on="0"/>
        <pt x="1520" y="324" on="0"/>
        <pt x="1546" y="324" on="1"/>
        <pt x="1569" y="324" on="0"/>
        <pt x="1593" y="351" on="0"/>
        <pt x="1593" y="371" on="1"/>
        <pt x="1593" y="399" on="0"/>
        <pt x="1552" y="427" on="0"/>
        <pt x="1514" y="427" on="1"/>
      </contour>
    </TTGlyph>
    <TTGlyph name="HaPulli.tm" xMin="30" yMin="-288" xMax="1339" yMax="709">
      <contour>
        <pt x="880" y="504" on="1"/>
        <pt x="906" y="504" on="0"/>
        <pt x="949" y="489" on="0"/>
        <pt x="982" y="465" on="0"/>
        <pt x="1004" y="435" on="0"/>
        <pt x="1010" y="420" on="1"/>
        <pt x="1014" y="435" on="0"/>
        <pt x="1034" y="465" on="0"/>
        <pt x="1065" y="489" on="0"/>
        <pt x="1108" y="504" on="0"/>
        <pt x="1135" y="504" on="1"/>
        <pt x="1172" y="504" on="0"/>
        <pt x="1246" y="469" on="0"/>
        <pt x="1303" y="394" on="0"/>
        <pt x="1339" y="276" on="0"/>
        <pt x="1339" y="194" on="1"/>
        <pt x="1339" y="28" on="0"/>
        <pt x="1169" y="-147" on="0"/>
        <pt x="995" y="-147" on="1"/>
        <pt x="180" y="-147" on="1"/>
        <pt x="151" y="-147" on="0"/>
        <pt x="124" y="-173" on="0"/>
        <pt x="124" y="-195" on="1"/>
        <pt x="124" y="-211" on="0"/>
        <pt x="136" y="-240" on="0"/>
        <pt x="144" y="-253" on="1"/>
        <pt x="66" y="-288" on="1"/>
        <pt x="52" y="-268" on="0"/>
        <pt x="30" y="-216" on="0"/>
        <pt x="30" y="-185" on="1"/>
        <pt x="30" y="-153" on="0"/>
        <pt x="52" y="-109" on="0"/>
        <pt x="87" y="-83" on="0"/>
        <pt x="132" y="-72" on="0"/>
        <pt x="155" y="-72" on="1"/>
        <pt x="1006" y="-72" on="1"/>
        <pt x="1133" y="-72" on="0"/>
        <pt x="1244" y="69" on="0"/>
        <pt x="1244" y="197" on="1"/>
        <pt x="1244" y="258" on="0"/>
        <pt x="1224" y="344" on="0"/>
        <pt x="1191" y="399" on="0"/>
        <pt x="1148" y="425" on="0"/>
        <pt x="1125" y="425" on="1"/>
        <pt x="1090" y="425" on="0"/>
        <pt x="1056" y="381" on="0"/>
        <pt x="1056" y="341" on="1"/>
        <pt x="1056" y="0" on="1"/>
        <pt x="963" y="0" on="1"/>
        <pt x="963" y="336" on="1"/>
        <pt x="963" y="375" on="0"/>
        <pt x="925" y="425" on="0"/>
        <pt x="887" y="425" on="1"/>
        <pt x="852" y="425" on="0"/>
        <pt x="817" y="379" on="0"/>
        <pt x="817" y="338" on="1"/>
        <pt x="817" y="0" on="1"/>
        <pt x="498" y="0" on="1"/>
        <pt x="472" y="56" on="1"/>
        <pt x="523" y="125" on="0"/>
        <pt x="523" y="229" on="1"/>
        <pt x="523" y="273" on="0"/>
        <pt x="497" y="345" on="0"/>
        <pt x="449" y="397" on="0"/>
        <pt x="380" y="426" on="0"/>
        <pt x="337" y="426" on="1"/>
        <pt x="294" y="426" on="0"/>
        <pt x="224" y="399" on="0"/>
        <pt x="173" y="351" on="0"/>
        <pt x="143" y="284" on="0"/>
        <pt x="140" y="244" on="1"/>
        <pt x="159" y="269" on="0"/>
        <pt x="218" y="297" on="0"/>
        <pt x="253" y="297" on="1"/>
        <pt x="286" y="297" on="0"/>
        <pt x="341" y="275" on="0"/>
        <pt x="381" y="235" on="0"/>
        <pt x="404" y="181" on="0"/>
        <pt x="404" y="148" on="1"/>
        <pt x="404" y="113" on="0"/>
        <pt x="379" y="55" on="0"/>
        <pt x="334" y="14" on="0"/>
        <pt x="273" y="-8" on="0"/>
        <pt x="238" y="-8" on="1"/>
        <pt x="197" y="-8" on="0"/>
        <pt x="130" y="24" on="0"/>
        <pt x="82" y="83" on="0"/>
        <pt x="56" y="167" on="0"/>
        <pt x="56" y="219" on="1"/>
        <pt x="56" y="283" on="0"/>
        <pt x="99" y="388" on="0"/>
        <pt x="175" y="463" on="0"/>
        <pt x="280" y="504" on="0"/>
        <pt x="342" y="504" on="1"/>
        <pt x="401" y="504" on="0"/>
        <pt x="502" y="465" on="0"/>
        <pt x="576" y="394" on="0"/>
        <pt x="618" y="296" on="0"/>
        <pt x="618" y="236" on="1"/>
        <pt x="618" y="184" on="0"/>
        <pt x="592" y="98" on="0"/>
        <pt x="578" y="75" on="1"/>
        <pt x="725" y="75" on="1"/>
        <pt x="725" y="334" on="1"/>
        <pt x="725" y="380" on="0"/>
        <pt x="749" y="444" on="0"/>
        <pt x="790" y="485" on="0"/>
        <pt x="847" y="504" on="0"/>
      </contour>
      <contour>
        <pt x="234" y="224" on="1"/>
        <pt x="202" y="224" on="0"/>
        <pt x="159" y="185" on="0"/>
        <pt x="147" y="158" on="1"/>
        <pt x="154" y="113" on="0"/>
        <pt x="205" y="67" on="0"/>
        <pt x="237" y="67" on="1"/>
        <pt x="271" y="67" on="0"/>
        <pt x="313" y="112" on="0"/>
        <pt x="313" y="146" on="1"/>
        <pt x="313" y="181" on="0"/>
        <pt x="271" y="224" on="0"/>
      </contour>
      <contour>
        <pt x="668" y="709" on="1"/>
        <pt x="695" y="709" on="0"/>
        <pt x="731" y="673" on="0"/>
        <pt x="731" y="647" on="1"/>
        <pt x="731" y="621" on="0"/>
        <pt x="696" y="585" on="0"/>
        <pt x="670" y="585" on="1"/>
        <pt x="642" y="585" on="0"/>
        <pt x="606" y="621" on="0"/>
        <pt x="606" y="647" on="1"/>
        <pt x="606" y="673" on="0"/>
        <pt x="642" y="709" on="0"/>
      </contour>
    </TTGlyph>
    <TTGlyph name="Hbar" xMin="20" yMin="0" xMax="633" yMax="630">
      <contour>
        <pt x="80" y="0" on="1"/>
        <pt x="80" y="483" on="1"/>
        <pt x="20" y="483" on="1"/>
        <pt x="20" y="552" on="1"/>
        <pt x="80" y="552" on="1"/>
        <pt x="80" y="630" on="1"/>
        <pt x="187" y="630" on="1"/>
        <pt x="187" y="552" on="1"/>
        <pt x="466" y="552" on="1"/>
        <pt x="466" y="630" on="1"/>
        <pt x="573" y="630" on="1"/>
        <pt x="573" y="552" on="1"/>
        <pt x="633" y="552" on="1"/>
        <pt x="633" y="483" on="1"/>
        <pt x="573" y="483" on="1"/>
        <pt x="573" y="0" on="1"/>
        <pt x="466" y="0" on="1"/>
        <pt x="466" y="282" on="1"/>
        <pt x="187" y="282" on="1"/>
        <pt x="187" y="0" on="1"/>
      </contour>
      <contour>
        <pt x="466" y="370" on="1"/>
        <pt x="466" y="483" on="1"/>
        <pt x="187" y="483" on="1"/>
        <pt x="187" y="370" on="1"/>
      </contour>
    </TTGlyph>
    <TTGlyph name="Hcircumflex" xMin="76" yMin="0" xMax="569" yMax="836">
      <contour>
        <pt x="76" y="0" on="1"/>
        <pt x="76" y="630" on="1"/>
        <pt x="183" y="630" on="1"/>
        <pt x="183" y="370" on="1"/>
        <pt x="462" y="370" on="1"/>
        <pt x="462" y="630" on="1"/>
        <pt x="569" y="630" on="1"/>
        <pt x="569" y="0" on="1"/>
        <pt x="462" y="0" on="1"/>
        <pt x="462" y="282" on="1"/>
        <pt x="183" y="282" on="1"/>
        <pt x="183" y="0" on="1"/>
      </contour>
      <contour>
        <pt x="286" y="836" on="1"/>
        <pt x="365" y="836" on="1"/>
        <pt x="487" y="705" on="1"/>
        <pt x="400" y="705" on="1"/>
        <pt x="325" y="784" on="1"/>
        <pt x="250" y="705" on="1"/>
        <pt x="166" y="705" on="1"/>
      </contour>
    </TTGlyph>
    <TTGlyph name="Hsmall" xMin="74" yMin="0" xMax="480" yMax="472">
      <contour>
        <pt x="74" y="0" on="1"/>
        <pt x="74" y="472" on="1"/>
        <pt x="174" y="472" on="1"/>
        <pt x="174" y="288" on="1"/>
        <pt x="379" y="288" on="1"/>
        <pt x="379" y="472" on="1"/>
        <pt x="480" y="472" on="1"/>
        <pt x="480" y="0" on="1"/>
        <pt x="379" y="0" on="1"/>
        <pt x="379" y="207" on="1"/>
        <pt x="174" y="207" on="1"/>
        <pt x="174" y="0" on="1"/>
      </contour>
    </TTGlyph>
    <TTGlyph name="Hundred.tm" xMin="63" yMin="0" xMax="781" yMax="503">
      <contour>
        <pt x="781" y="498" on="1"/>
        <pt x="781" y="423" on="1"/>
        <pt x="680" y="423" on="1"/>
        <pt x="680" y="0" on="1"/>
        <pt x="588" y="0" on="1"/>
        <pt x="588" y="423" on="1"/>
        <pt x="400" y="423" on="1"/>
        <pt x="400" y="0" on="1"/>
        <pt x="309" y="0" on="1"/>
        <pt x="309" y="326" on="1"/>
        <pt x="308" y="367" on="0"/>
        <pt x="270" y="425" on="0"/>
        <pt x="229" y="425" on="1"/>
        <pt x="155" y="425" on="0"/>
        <pt x="155" y="334" on="1"/>
        <pt x="155" y="0" on="1"/>
        <pt x="63" y="0" on="1"/>
        <pt x="63" y="333" on="1"/>
        <pt x="63" y="420" on="0"/>
        <pt x="145" y="503" on="0"/>
        <pt x="211" y="503" on="1"/>
        <pt x="245" y="503" on="0"/>
        <pt x="301" y="469" on="0"/>
        <pt x="316" y="446" on="1"/>
        <pt x="316" y="498" on="1"/>
      </contour>
    </TTGlyph>
    <TTGlyph name="I" xMin="76" yMin="0" xMax="183" yMax="630">
      <contour>
        <pt x="183" y="630" on="1"/>
        <pt x="183" y="0" on="1"/>
        <pt x="76" y="0" on="1"/>
        <pt x="76" y="630" on="1"/>
      </contour>
    </TTGlyph>
    <TTGlyph name="IJ" xMin="76" yMin="-160" xMax="436" yMax="630">
      <contour>
        <pt x="183" y="630" on="1"/>
        <pt x="183" y="0" on="1"/>
        <pt x="76" y="0" on="1"/>
        <pt x="76" y="630" on="1"/>
      </contour>
      <contour>
        <pt x="436" y="630" on="1"/>
        <pt x="436" y="115" on="1"/>
        <pt x="436" y="42" on="0"/>
        <pt x="421" y="-51" on="0"/>
        <pt x="393" y="-86" on="1"/>
        <pt x="362" y="-128" on="0"/>
        <pt x="265" y="-159" on="0"/>
        <pt x="214" y="-160" on="1"/>
        <pt x="214" y="-75" on="1"/>
        <pt x="271" y="-74" on="0"/>
        <pt x="300" y="-41" on="1"/>
        <pt x="318" y="-23" on="0"/>
        <pt x="329" y="34" on="0"/>
        <pt x="329" y="66" on="1"/>
        <pt x="329" y="630" on="1"/>
      </contour>
    </TTGlyph>
    <TTGlyph name="Iacute" xMin="76" yMin="0" xMax="285" yMax="829">
      <contour>
        <pt x="183" y="630" on="1"/>
        <pt x="183" y="0" on="1"/>
        <pt x="76" y="0" on="1"/>
        <pt x="76" y="630" on="1"/>
      </contour>
      <contour>
        <pt x="173" y="705" on="1"/>
        <pt x="88" y="705" on="1"/>
        <pt x="168" y="829" on="1"/>
        <pt x="285" y="829" on="1"/>
      </contour>
    </TTGlyph>
    <TTGlyph name="Ibreve" xMin="-4" yMin="0" xMax="265" yMax="829">
      <contour>
        <pt x="183" y="630" on="1"/>
        <pt x="183" y="0" on="1"/>
        <pt x="76" y="0" on="1"/>
        <pt x="76" y="630" on="1"/>
      </contour>
      <contour>
        <pt x="64" y="829" on="1"/>
        <pt x="67" y="799" on="0"/>
        <pt x="94" y="764" on="0"/>
        <pt x="132" y="764" on="1"/>
        <pt x="164" y="764" on="0"/>
        <pt x="195" y="797" on="0"/>
        <pt x="198" y="829" on="1"/>
        <pt x="265" y="829" on="1"/>
        <pt x="265" y="773" on="0"/>
        <pt x="196" y="704" on="0"/>
        <pt x="131" y="704" on="1"/>
        <pt x="95" y="704" on="0"/>
        <pt x="44" y="725" on="0"/>
        <pt x="11" y="760" on="0"/>
        <pt x="-4" y="805" on="0"/>
        <pt x="-4" y="829" on="1"/>
      </contour>
    </TTGlyph>
    <TTGlyph name="Icircumflex" xMin="-29" yMin="0" xMax="292" yMax="836">
      <contour>
        <pt x="183" y="630" on="1"/>
        <pt x="183" y="0" on="1"/>
        <pt x="76" y="0" on="1"/>
        <pt x="76" y="630" on="1"/>
      </contour>
      <contour>
        <pt x="91" y="836" on="1"/>
        <pt x="170" y="836" on="1"/>
        <pt x="292" y="705" on="1"/>
        <pt x="205" y="705" on="1"/>
        <pt x="130" y="784" on="1"/>
        <pt x="55" y="705" on="1"/>
        <pt x="-29" y="705" on="1"/>
      </contour>
    </TTGlyph>
    <TTGlyph name="Idieresis" xMin="-14" yMin="0" xMax="270" yMax="811">
      <contour>
        <pt x="183" y="630" on="1"/>
        <pt x="183" y="0" on="1"/>
        <pt x="76" y="0" on="1"/>
        <pt x="76" y="630" on="1"/>
      </contour>
      <contour>
        <pt x="-14" y="758" on="1"/>
        <pt x="-14" y="779" on="0"/>
        <pt x="18" y="811" on="0"/>
        <pt x="40" y="811" on="1"/>
        <pt x="63" y="811" on="0"/>
        <pt x="95" y="779" on="0"/>
        <pt x="95" y="758" on="1"/>
        <pt x="95" y="735" on="0"/>
        <pt x="63" y="702" on="0"/>
        <pt x="40" y="702" on="1"/>
        <pt x="18" y="702" on="0"/>
        <pt x="-14" y="735" on="0"/>
      </contour>
      <contour>
        <pt x="162" y="758" on="1"/>
        <pt x="162" y="779" on="0"/>
        <pt x="193" y="811" on="0"/>
        <pt x="216" y="811" on="1"/>
        <pt x="239" y="811" on="0"/>
        <pt x="270" y="779" on="0"/>
        <pt x="270" y="758" on="1"/>
        <pt x="270" y="735" on="0"/>
        <pt x="239" y="702" on="0"/>
        <pt x="216" y="702" on="1"/>
        <pt x="193" y="702" on="0"/>
        <pt x="162" y="735" on="0"/>
      </contour>
    </TTGlyph>
    <TTGlyph name="Idotaccent" xMin="69" yMin="0" xMax="187" yMax="820">
      <contour>
        <pt x="183" y="630" on="1"/>
        <pt x="183" y="0" on="1"/>
        <pt x="76" y="0" on="1"/>
        <pt x="76" y="630" on="1"/>
      </contour>
      <contour>
        <pt x="69" y="762" on="1"/>
        <pt x="69" y="785" on="0"/>
        <pt x="105" y="820" on="0"/>
        <pt x="128" y="820" on="1"/>
        <pt x="153" y="820" on="0"/>
        <pt x="187" y="785" on="0"/>
        <pt x="187" y="762" on="1"/>
        <pt x="187" y="737" on="0"/>
        <pt x="153" y="702" on="0"/>
        <pt x="128" y="702" on="1"/>
        <pt x="105" y="702" on="0"/>
        <pt x="69" y="737" on="0"/>
      </contour>
    </TTGlyph>
    <TTGlyph name="Igrave" xMin="-26" yMin="0" xMax="183" yMax="829">
      <contour>
        <pt x="183" y="630" on="1"/>
        <pt x="183" y="0" on="1"/>
        <pt x="76" y="0" on="1"/>
        <pt x="76" y="630" on="1"/>
      </contour>
      <contour>
        <pt x="-26" y="829" on="1"/>
        <pt x="91" y="829" on="1"/>
        <pt x="171" y="705" on="1"/>
        <pt x="86" y="705" on="1"/>
      </contour>
    </TTGlyph>
    <TTGlyph name="Imacron" xMin="7" yMin="0" xMax="256" yMax="772">
      <contour>
        <pt x="183" y="630" on="1"/>
        <pt x="183" y="0" on="1"/>
        <pt x="76" y="0" on="1"/>
        <pt x="76" y="630" on="1"/>
      </contour>
      <contour>
        <pt x="256" y="772" on="1"/>
        <pt x="256" y="705" on="1"/>
        <pt x="7" y="705" on="1"/>
        <pt x="7" y="772" on="1"/>
      </contour>
    </TTGlyph>
    <TTGlyph name="Iogonek" xMin="8" yMin="-206" xMax="197" yMax="630">
      <contour>
        <pt x="183" y="630" on="1"/>
        <pt x="183" y="0" on="1"/>
        <pt x="162" y="0" on="1"/>
        <pt x="127" y="-20" on="0"/>
        <pt x="83" y="-64" on="0"/>
        <pt x="83" y="-90" on="1"/>
        <pt x="83" y="-113" on="0"/>
        <pt x="112" y="-139" on="0"/>
        <pt x="135" y="-139" on="1"/>
        <pt x="149" y="-139" on="0"/>
        <pt x="173" y="-134" on="0"/>
        <pt x="182" y="-131" on="1"/>
        <pt x="197" y="-185" on="1"/>
        <pt x="162" y="-206" on="0"/>
        <pt x="115" y="-206" on="1"/>
        <pt x="69" y="-206" on="0"/>
        <pt x="8" y="-153" on="0"/>
        <pt x="8" y="-106" on="1"/>
        <pt x="8" y="-68" on="0"/>
        <pt x="51" y="-14" on="0"/>
        <pt x="76" y="0" on="1"/>
        <pt x="76" y="630" on="1"/>
      </contour>
    </TTGlyph>
    <TTGlyph name="Ismall" xMin="74" yMin="0" xMax="177" yMax="472">
      <contour>
        <pt x="177" y="472" on="1"/>
        <pt x="177" y="0" on="1"/>
        <pt x="74" y="0" on="1"/>
        <pt x="74" y="472" on="1"/>
      </contour>
    </TTGlyph>
    <TTGlyph name="Itilde" xMin="-27" yMin="0" xMax="276" yMax="821">
      <contour>
        <pt x="183" y="630" on="1"/>
        <pt x="183" y="0" on="1"/>
        <pt x="76" y="0" on="1"/>
        <pt x="76" y="630" on="1"/>
      </contour>
      <contour>
        <pt x="-27" y="706" on="1"/>
        <pt x="-27" y="753" on="0"/>
        <pt x="16" y="818" on="0"/>
        <pt x="61" y="818" on="1"/>
        <pt x="81" y="818" on="0"/>
        <pt x="113" y="805" on="0"/>
        <pt x="142" y="790" on="0"/>
        <pt x="169" y="777" on="0"/>
        <pt x="184" y="777" on="1"/>
        <pt x="202" y="777" on="0"/>
        <pt x="219" y="804" on="0"/>
        <pt x="221" y="821" on="1"/>
        <pt x="276" y="821" on="1"/>
        <pt x="276" y="799" on="0"/>
        <pt x="265" y="758" on="0"/>
        <pt x="244" y="727" on="0"/>
        <pt x="212" y="709" on="0"/>
        <pt x="191" y="709" on="1"/>
        <pt x="170" y="709" on="0"/>
        <pt x="135" y="721" on="0"/>
        <pt x="103" y="736" on="0"/>
        <pt x="77" y="749" on="0"/>
        <pt x="65" y="749" on="1"/>
        <pt x="45" y="749" on="0"/>
        <pt x="29" y="724" on="0"/>
        <pt x="28" y="706" on="1"/>
      </contour>
    </TTGlyph>
    <TTGlyph name="J" xMin="-16" yMin="-160" xMax="206" yMax="630">
      <contour>
        <pt x="206" y="630" on="1"/>
        <pt x="206" y="115" on="1"/>
        <pt x="206" y="42" on="0"/>
        <pt x="190" y="-51" on="0"/>
        <pt x="163" y="-86" on="1"/>
        <pt x="131" y="-128" on="0"/>
        <pt x="35" y="-159" on="0"/>
        <pt x="-16" y="-160" on="1"/>
        <pt x="-16" y="-75" on="1"/>
        <pt x="13" y="-74" on="0"/>
        <pt x="55" y="-57" on="0"/>
        <pt x="70" y="-41" on="1"/>
        <pt x="88" y="-23" on="0"/>
        <pt x="99" y="34" on="0"/>
        <pt x="99" y="66" on="1"/>
        <pt x="99" y="630" on="1"/>
      </contour>
    </TTGlyph>
    <TTGlyph name="Ja.tm" xMin="41" yMin="-281" xMax="790" yMax="504">
      <contour>
        <pt x="245" y="504" on="1"/>
        <pt x="318" y="504" on="0"/>
        <pt x="415" y="429" on="0"/>
        <pt x="434" y="375" on="1"/>
        <pt x="445" y="430" on="0"/>
        <pt x="529" y="504" on="0"/>
        <pt x="596" y="504" on="1"/>
        <pt x="637" y="504" on="0"/>
        <pt x="706" y="476" on="0"/>
        <pt x="756" y="426" on="0"/>
        <pt x="784" y="357" on="0"/>
        <pt x="784" y="315" on="1"/>
        <pt x="784" y="262" on="0"/>
        <pt x="746" y="183" on="0"/>
        <pt x="677" y="126" on="0"/>
        <pt x="582" y="89" on="0"/>
        <pt x="526" y="77" on="1"/>
        <pt x="288" y="25" on="1"/>
        <pt x="222" y="11" on="0"/>
        <pt x="151" y="-55" on="0"/>
        <pt x="151" y="-106" on="1"/>
        <pt x="151" y="-150" on="0"/>
        <pt x="202" y="-201" on="0"/>
        <pt x="242" y="-201" on="1"/>
        <pt x="276" y="-201" on="0"/>
        <pt x="335" y="-167" on="0"/>
        <pt x="367" y="-131" on="1"/>
        <pt x="420" y="-73" on="1"/>
        <pt x="472" y="-16" on="0"/>
        <pt x="567" y="43" on="0"/>
        <pt x="625" y="43" on="1"/>
        <pt x="700" y="43" on="0"/>
        <pt x="790" y="-47" on="0"/>
        <pt x="790" y="-121" on="1"/>
        <pt x="790" y="-157" on="0"/>
        <pt x="765" y="-216" on="0"/>
        <pt x="721" y="-258" on="0"/>
        <pt x="659" y="-281" on="0"/>
        <pt x="623" y="-281" on="1"/>
        <pt x="600" y="-281" on="0"/>
        <pt x="560" y="-270" on="0"/>
        <pt x="528" y="-252" on="0"/>
        <pt x="503" y="-230" on="0"/>
        <pt x="495" y="-220" on="1"/>
        <pt x="550" y="-165" on="1"/>
        <pt x="559" y="-176" on="0"/>
        <pt x="595" y="-202" on="0"/>
        <pt x="622" y="-202" on="1"/>
        <pt x="656" y="-202" on="0"/>
        <pt x="696" y="-157" on="0"/>
        <pt x="696" y="-120" on="1"/>
        <pt x="696" y="-82" on="0"/>
        <pt x="654" y="-37" on="0"/>
        <pt x="619" y="-37" on="1"/>
        <pt x="588" y="-37" on="0"/>
        <pt x="532" y="-72" on="0"/>
        <pt x="497" y="-114" on="1"/>
        <pt x="444" y="-176" on="1"/>
        <pt x="399" y="-229" on="0"/>
        <pt x="302" y="-281" on="0"/>
        <pt x="240" y="-281" on="1"/>
        <pt x="201" y="-281" on="0"/>
        <pt x="134" y="-256" on="0"/>
        <pt x="85" y="-211" on="0"/>
        <pt x="57" y="-147" on="0"/>
        <pt x="57" y="-107" on="1"/>
        <pt x="57" y="-18" on="0"/>
        <pt x="167" y="79" on="0"/>
        <pt x="275" y="103" on="1"/>
        <pt x="525" y="160" on="1"/>
        <pt x="603" y="178" on="0"/>
        <pt x="689" y="251" on="0"/>
        <pt x="689" y="314" on="1"/>
        <pt x="689" y="362" on="0"/>
        <pt x="635" y="425" on="0"/>
        <pt x="587" y="425" on="1"/>
        <pt x="541" y="425" on="0"/>
        <pt x="480" y="354" on="0"/>
        <pt x="480" y="283" on="1"/>
        <pt x="480" y="209" on="1"/>
        <pt x="388" y="209" on="1"/>
        <pt x="388" y="272" on="1"/>
        <pt x="388" y="343" on="0"/>
        <pt x="310" y="429" on="0"/>
        <pt x="243" y="429" on="1"/>
        <pt x="201" y="429" on="0"/>
        <pt x="132" y="387" on="0"/>
        <pt x="122" y="341" on="1"/>
        <pt x="136" y="357" on="0"/>
        <pt x="179" y="377" on="0"/>
        <pt x="205" y="377" on="1"/>
        <pt x="228" y="377" on="0"/>
        <pt x="271" y="362" on="0"/>
        <pt x="304" y="332" on="0"/>
        <pt x="324" y="289" on="0"/>
        <pt x="324" y="261" on="1"/>
        <pt x="324" y="232" on="0"/>
        <pt x="302" y="184" on="0"/>
        <pt x="265" y="150" on="0"/>
        <pt x="214" y="132" on="0"/>
        <pt x="185" y="132" on="1"/>
        <pt x="156" y="132" on="0"/>
        <pt x="104" y="154" on="0"/>
        <pt x="65" y="196" on="0"/>
        <pt x="41" y="258" on="0"/>
        <pt x="41" y="298" on="1"/>
        <pt x="41" y="347" on="0"/>
        <pt x="73" y="424" on="0"/>
        <pt x="129" y="477" on="0"/>
        <pt x="203" y="504" on="0"/>
      </contour>
      <contour>
        <pt x="185" y="317" on="1"/>
        <pt x="162" y="317" on="0"/>
        <pt x="131" y="290" on="0"/>
        <pt x="121" y="270" on="1"/>
        <pt x="125" y="234" on="0"/>
        <pt x="163" y="202" on="0"/>
        <pt x="186" y="202" on="1"/>
        <pt x="212" y="202" on="0"/>
        <pt x="243" y="234" on="0"/>
        <pt x="243" y="260" on="1"/>
        <pt x="243" y="286" on="0"/>
        <pt x="211" y="317" on="0"/>
      </contour>
    </TTGlyph>
    <TTGlyph name="JaAlt.tm" xMin="45" yMin="-13" xMax="641" yMax="509">
      <contour>
        <pt x="211" y="509" on="1"/>
        <pt x="268" y="509" on="0"/>
        <pt x="341" y="456" on="0"/>
        <pt x="357" y="415" on="1"/>
        <pt x="368" y="457" on="0"/>
        <pt x="439" y="509" on="0"/>
        <pt x="490" y="509" on="1"/>
        <pt x="556" y="509" on="0"/>
        <pt x="636" y="432" on="0"/>
        <pt x="636" y="368" on="1"/>
        <pt x="636" y="317" on="0"/>
        <pt x="584" y="242" on="0"/>
        <pt x="541" y="226" on="1"/>
        <pt x="586" y="218" on="0"/>
        <pt x="641" y="157" on="0"/>
        <pt x="641" y="111" on="1"/>
        <pt x="641" y="54" on="0"/>
        <pt x="563" y="-13" on="0"/>
        <pt x="497" y="-13" on="1"/>
        <pt x="459" y="-13" on="0"/>
        <pt x="400" y="17" on="0"/>
        <pt x="380" y="44" on="1"/>
        <pt x="426" y="91" on="1"/>
        <pt x="440" y="74" on="0"/>
        <pt x="474" y="55" on="0"/>
        <pt x="497" y="55" on="1"/>
        <pt x="526" y="55" on="0"/>
        <pt x="561" y="90" on="0"/>
        <pt x="561" y="121" on="1"/>
        <pt x="561" y="152" on="0"/>
        <pt x="525" y="186" on="0"/>
        <pt x="494" y="186" on="1"/>
        <pt x="471" y="186" on="0"/>
        <pt x="433" y="163" on="0"/>
        <pt x="412" y="141" on="1"/>
        <pt x="344" y="69" on="1"/>
        <pt x="313" y="35" on="0"/>
        <pt x="238" y="-13" on="0"/>
        <pt x="184" y="-13" on="1"/>
        <pt x="125" y="-13" on="0"/>
        <pt x="53" y="47" on="0"/>
        <pt x="53" y="98" on="1"/>
        <pt x="53" y="149" on="0"/>
        <pt x="118" y="212" on="0"/>
        <pt x="181" y="217" on="1"/>
        <pt x="401" y="236" on="1"/>
        <pt x="479" y="243" on="0"/>
        <pt x="553" y="310" on="0"/>
        <pt x="553" y="357" on="1"/>
        <pt x="553" y="395" on="0"/>
        <pt x="513" y="438" on="0"/>
        <pt x="478" y="438" on="1"/>
        <pt x="440" y="438" on="0"/>
        <pt x="398" y="388" on="0"/>
        <pt x="398" y="343" on="1"/>
        <pt x="398" y="278" on="1"/>
        <pt x="319" y="278" on="1"/>
        <pt x="319" y="334" on="1"/>
        <pt x="319" y="386" on="0"/>
        <pt x="260" y="447" on="0"/>
        <pt x="209" y="447" on="1"/>
        <pt x="177" y="447" on="0"/>
        <pt x="124" y="421" on="0"/>
        <pt x="113" y="394" on="1"/>
        <pt x="136" y="417" on="0"/>
        <pt x="171" y="417" on="1"/>
        <pt x="207" y="417" on="0"/>
        <pt x="259" y="373" on="0"/>
        <pt x="259" y="330" on="1"/>
        <pt x="259" y="285" on="0"/>
        <pt x="199" y="234" on="0"/>
        <pt x="154" y="234" on="1"/>
        <pt x="133" y="234" on="0"/>
        <pt x="93" y="250" on="0"/>
        <pt x="63" y="280" on="0"/>
        <pt x="45" y="324" on="0"/>
        <pt x="45" y="353" on="1"/>
        <pt x="45" y="390" on="0"/>
        <pt x="71" y="449" on="0"/>
        <pt x="116" y="488" on="0"/>
        <pt x="177" y="509" on="0"/>
      </contour>
      <contour>
        <pt x="373" y="181" on="1"/>
        <pt x="194" y="158" on="1"/>
        <pt x="132" y="150" on="0"/>
        <pt x="132" y="100" on="1"/>
        <pt x="132" y="78" on="0"/>
        <pt x="162" y="53" on="0"/>
        <pt x="188" y="53" on="1"/>
        <pt x="212" y="53" on="0"/>
        <pt x="255" y="76" on="0"/>
        <pt x="277" y="96" on="1"/>
        <pt x="327" y="140" on="1"/>
      </contour>
      <contour>
        <pt x="153" y="370" on="1"/>
        <pt x="137" y="370" on="0"/>
        <pt x="116" y="353" on="0"/>
        <pt x="109" y="341" on="1"/>
        <pt x="109" y="340" on="1"/>
        <pt x="110" y="314" on="0"/>
        <pt x="137" y="289" on="0"/>
        <pt x="154" y="289" on="1"/>
        <pt x="171" y="289" on="0"/>
        <pt x="193" y="313" on="0"/>
        <pt x="193" y="330" on="1"/>
        <pt x="193" y="347" on="0"/>
        <pt x="172" y="370" on="0"/>
      </contour>
    </TTGlyph>
    <TTGlyph name="JaAltMatraI.tm" xMin="45" yMin="-13" xMax="838" yMax="746">
      <contour>
        <pt x="646" y="746" on="1"/>
        <pt x="689" y="746" on="0"/>
        <pt x="760" y="718" on="0"/>
        <pt x="810" y="665" on="0"/>
        <pt x="838" y="587" on="0"/>
        <pt x="838" y="537" on="1"/>
        <pt x="838" y="0" on="1"/>
        <pt x="747" y="0" on="1"/>
        <pt x="747" y="531" on="1"/>
        <pt x="747" y="598" on="0"/>
        <pt x="691" y="668" on="0"/>
        <pt x="642" y="668" on="1"/>
        <pt x="600" y="668" on="0"/>
        <pt x="551" y="616" on="0"/>
        <pt x="551" y="574" on="1"/>
        <pt x="551" y="539" on="0"/>
        <pt x="584" y="478" on="0"/>
        <pt x="610" y="441" on="1"/>
        <pt x="621" y="426" on="0"/>
        <pt x="636" y="386" on="0"/>
        <pt x="636" y="362" on="1"/>
        <pt x="636" y="314" on="0"/>
        <pt x="584" y="242" on="0"/>
        <pt x="541" y="226" on="1"/>
        <pt x="586" y="218" on="0"/>
        <pt x="641" y="156" on="0"/>
        <pt x="641" y="111" on="1"/>
        <pt x="641" y="54" on="0"/>
        <pt x="563" y="-13" on="0"/>
        <pt x="497" y="-13" on="1"/>
        <pt x="459" y="-13" on="0"/>
        <pt x="400" y="17" on="0"/>
        <pt x="380" y="44" on="1"/>
        <pt x="426" y="91" on="1"/>
        <pt x="440" y="74" on="0"/>
        <pt x="474" y="55" on="0"/>
        <pt x="497" y="55" on="1"/>
        <pt x="526" y="55" on="0"/>
        <pt x="561" y="90" on="0"/>
        <pt x="561" y="121" on="1"/>
        <pt x="561" y="152" on="0"/>
        <pt x="525" y="186" on="0"/>
        <pt x="494" y="186" on="1"/>
        <pt x="471" y="186" on="0"/>
        <pt x="433" y="163" on="0"/>
        <pt x="412" y="141" on="1"/>
        <pt x="344" y="69" on="1"/>
        <pt x="313" y="35" on="0"/>
        <pt x="238" y="-13" on="0"/>
        <pt x="184" y="-13" on="1"/>
        <pt x="125" y="-13" on="0"/>
        <pt x="53" y="47" on="0"/>
        <pt x="53" y="98" on="1"/>
        <pt x="53" y="149" on="0"/>
        <pt x="118" y="212" on="0"/>
        <pt x="181" y="217" on="1"/>
        <pt x="401" y="236" on="1"/>
        <pt x="479" y="243" on="0"/>
        <pt x="553" y="309" on="0"/>
        <pt x="553" y="355" on="1"/>
        <pt x="553" y="393" on="0"/>
        <pt x="513" y="437" on="0"/>
        <pt x="478" y="437" on="1"/>
        <pt x="440" y="437" on="0"/>
        <pt x="398" y="387" on="0"/>
        <pt x="398" y="342" on="1"/>
        <pt x="398" y="278" on="1"/>
        <pt x="319" y="278" on="1"/>
        <pt x="319" y="334" on="1"/>
        <pt x="319" y="386" on="0"/>
        <pt x="260" y="447" on="0"/>
        <pt x="209" y="447" on="1"/>
        <pt x="177" y="447" on="0"/>
        <pt x="124" y="421" on="0"/>
        <pt x="113" y="394" on="1"/>
        <pt x="136" y="417" on="0"/>
        <pt x="171" y="417" on="1"/>
        <pt x="207" y="417" on="0"/>
        <pt x="259" y="373" on="0"/>
        <pt x="259" y="330" on="1"/>
        <pt x="259" y="285" on="0"/>
        <pt x="199" y="234" on="0"/>
        <pt x="154" y="234" on="1"/>
        <pt x="133" y="234" on="0"/>
        <pt x="93" y="250" on="0"/>
        <pt x="63" y="280" on="0"/>
        <pt x="45" y="324" on="0"/>
        <pt x="45" y="353" on="1"/>
        <pt x="45" y="390" on="0"/>
        <pt x="71" y="449" on="0"/>
        <pt x="116" y="488" on="0"/>
        <pt x="177" y="509" on="0"/>
        <pt x="211" y="509" on="1"/>
        <pt x="268" y="509" on="0"/>
        <pt x="341" y="456" on="0"/>
        <pt x="357" y="415" on="1"/>
        <pt x="368" y="451" on="0"/>
        <pt x="435" y="498" on="0"/>
        <pt x="485" y="500" on="1"/>
        <pt x="462" y="535" on="0"/>
        <pt x="462" y="583" on="1"/>
        <pt x="462" y="618" on="0"/>
        <pt x="487" y="678" on="0"/>
        <pt x="535" y="721" on="0"/>
        <pt x="603" y="746" on="0"/>
      </contour>
      <contour>
        <pt x="373" y="181" on="1"/>
        <pt x="194" y="158" on="1"/>
        <pt x="132" y="150" on="0"/>
        <pt x="132" y="100" on="1"/>
        <pt x="132" y="78" on="0"/>
        <pt x="162" y="53" on="0"/>
        <pt x="188" y="53" on="1"/>
        <pt x="212" y="53" on="0"/>
        <pt x="255" y="76" on="0"/>
        <pt x="277" y="96" on="1"/>
        <pt x="327" y="140" on="1"/>
      </contour>
      <contour>
        <pt x="153" y="370" on="1"/>
        <pt x="137" y="370" on="0"/>
        <pt x="116" y="353" on="0"/>
        <pt x="109" y="341" on="1"/>
        <pt x="109" y="340" on="1"/>
        <pt x="110" y="314" on="0"/>
        <pt x="137" y="289" on="0"/>
        <pt x="154" y="289" on="1"/>
        <pt x="171" y="289" on="0"/>
        <pt x="193" y="313" on="0"/>
        <pt x="193" y="330" on="1"/>
        <pt x="193" y="347" on="0"/>
        <pt x="172" y="370" on="0"/>
      </contour>
    </TTGlyph>
    <TTGlyph name="JaAltMatraIi.tm" xMin="45" yMin="-13" xMax="791" yMax="797">
      <contour>
        <pt x="626" y="797" on="1"/>
        <pt x="666" y="797" on="0"/>
        <pt x="728" y="777" on="0"/>
        <pt x="770" y="744" on="0"/>
        <pt x="791" y="700" on="0"/>
        <pt x="791" y="676" on="1"/>
        <pt x="791" y="625" on="0"/>
        <pt x="721" y="565" on="0"/>
        <pt x="670" y="565" on="1"/>
        <pt x="621" y="565" on="0"/>
        <pt x="558" y="623" on="0"/>
        <pt x="558" y="667" on="1"/>
        <pt x="558" y="709" on="0"/>
        <pt x="586" y="735" on="1"/>
        <pt x="548" y="727" on="0"/>
        <pt x="499" y="662" on="0"/>
        <pt x="499" y="613" on="1"/>
        <pt x="499" y="590" on="0"/>
        <pt x="513" y="552" on="0"/>
        <pt x="537" y="517" on="0"/>
        <pt x="568" y="484" on="0"/>
        <pt x="586" y="467" on="1"/>
        <pt x="610" y="444" on="0"/>
        <pt x="636" y="396" on="0"/>
        <pt x="636" y="362" on="1"/>
        <pt x="636" y="314" on="0"/>
        <pt x="584" y="242" on="0"/>
        <pt x="541" y="226" on="1"/>
        <pt x="586" y="218" on="0"/>
        <pt x="641" y="156" on="0"/>
        <pt x="641" y="111" on="1"/>
        <pt x="641" y="54" on="0"/>
        <pt x="563" y="-13" on="0"/>
        <pt x="497" y="-13" on="1"/>
        <pt x="459" y="-13" on="0"/>
        <pt x="400" y="17" on="0"/>
        <pt x="380" y="44" on="1"/>
        <pt x="426" y="91" on="1"/>
        <pt x="440" y="74" on="0"/>
        <pt x="474" y="55" on="0"/>
        <pt x="497" y="55" on="1"/>
        <pt x="526" y="55" on="0"/>
        <pt x="561" y="90" on="0"/>
        <pt x="561" y="121" on="1"/>
        <pt x="561" y="152" on="0"/>
        <pt x="525" y="186" on="0"/>
        <pt x="494" y="186" on="1"/>
        <pt x="471" y="186" on="0"/>
        <pt x="433" y="163" on="0"/>
        <pt x="412" y="141" on="1"/>
        <pt x="344" y="69" on="1"/>
        <pt x="313" y="35" on="0"/>
        <pt x="238" y="-13" on="0"/>
        <pt x="184" y="-13" on="1"/>
        <pt x="125" y="-13" on="0"/>
        <pt x="53" y="47" on="0"/>
        <pt x="53" y="98" on="1"/>
        <pt x="53" y="149" on="0"/>
        <pt x="118" y="212" on="0"/>
        <pt x="181" y="217" on="1"/>
        <pt x="401" y="236" on="1"/>
        <pt x="479" y="243" on="0"/>
        <pt x="553" y="309" on="0"/>
        <pt x="553" y="355" on="1"/>
        <pt x="553" y="393" on="0"/>
        <pt x="513" y="437" on="0"/>
        <pt x="478" y="437" on="1"/>
        <pt x="440" y="437" on="0"/>
        <pt x="398" y="387" on="0"/>
        <pt x="398" y="342" on="1"/>
        <pt x="398" y="278" on="1"/>
        <pt x="319" y="278" on="1"/>
        <pt x="319" y="334" on="1"/>
        <pt x="319" y="386" on="0"/>
        <pt x="260" y="447" on="0"/>
        <pt x="209" y="447" on="1"/>
        <pt x="177" y="447" on="0"/>
        <pt x="124" y="421" on="0"/>
        <pt x="113" y="394" on="1"/>
        <pt x="136" y="417" on="0"/>
        <pt x="171" y="417" on="1"/>
        <pt x="207" y="417" on="0"/>
        <pt x="259" y="373" on="0"/>
        <pt x="259" y="330" on="1"/>
        <pt x="259" y="285" on="0"/>
        <pt x="199" y="234" on="0"/>
        <pt x="154" y="234" on="1"/>
        <pt x="133" y="234" on="0"/>
        <pt x="93" y="250" on="0"/>
        <pt x="63" y="280" on="0"/>
        <pt x="45" y="324" on="0"/>
        <pt x="45" y="353" on="1"/>
        <pt x="45" y="390" on="0"/>
        <pt x="71" y="449" on="0"/>
        <pt x="116" y="488" on="0"/>
        <pt x="177" y="509" on="0"/>
        <pt x="211" y="509" on="1"/>
        <pt x="268" y="509" on="0"/>
        <pt x="341" y="456" on="0"/>
        <pt x="357" y="415" on="1"/>
        <pt x="366" y="447" on="0"/>
        <pt x="419" y="490" on="0"/>
        <pt x="458" y="497" on="1"/>
        <pt x="438" y="520" on="0"/>
        <pt x="413" y="582" on="0"/>
        <pt x="413" y="614" on="1"/>
        <pt x="413" y="658" on="0"/>
        <pt x="447" y="726" on="0"/>
        <pt x="505" y="773" on="0"/>
        <pt x="582" y="797" on="0"/>
      </contour>
      <contour>
        <pt x="373" y="181" on="1"/>
        <pt x="194" y="158" on="1"/>
        <pt x="132" y="150" on="0"/>
        <pt x="132" y="100" on="1"/>
        <pt x="132" y="78" on="0"/>
        <pt x="162" y="53" on="0"/>
        <pt x="188" y="53" on="1"/>
        <pt x="212" y="53" on="0"/>
        <pt x="255" y="76" on="0"/>
        <pt x="277" y="96" on="1"/>
        <pt x="327" y="140" on="1"/>
      </contour>
      <contour>
        <pt x="719" y="678" on="1"/>
        <pt x="719" y="702" on="0"/>
        <pt x="685" y="732" on="0"/>
        <pt x="662" y="734" on="1"/>
        <pt x="645" y="727" on="0"/>
        <pt x="625" y="697" on="0"/>
        <pt x="625" y="677" on="1"/>
        <pt x="625" y="655" on="0"/>
        <pt x="653" y="629" on="0"/>
        <pt x="673" y="629" on="1"/>
        <pt x="692" y="629" on="0"/>
        <pt x="719" y="655" on="0"/>
      </contour>
      <contour>
        <pt x="153" y="370" on="1"/>
        <pt x="137" y="370" on="0"/>
        <pt x="116" y="353" on="0"/>
        <pt x="109" y="341" on="1"/>
        <pt x="109" y="340" on="1"/>
        <pt x="110" y="314" on="0"/>
        <pt x="137" y="289" on="0"/>
        <pt x="154" y="289" on="1"/>
        <pt x="171" y="289" on="0"/>
        <pt x="193" y="313" on="0"/>
        <pt x="193" y="330" on="1"/>
        <pt x="193" y="347" on="0"/>
        <pt x="172" y="370" on="0"/>
      </contour>
    </TTGlyph>
    <TTGlyph name="JaAltMatraU.tm" xMin="45" yMin="-13" xMax="994" yMax="509">
      <contour>
        <pt x="211" y="509" on="1"/>
        <pt x="268" y="509" on="0"/>
        <pt x="341" y="456" on="0"/>
        <pt x="357" y="415" on="1"/>
        <pt x="368" y="451" on="0"/>
        <pt x="439" y="498" on="0"/>
        <pt x="490" y="498" on="1"/>
        <pt x="815" y="498" on="1"/>
        <pt x="900" y="498" on="0"/>
        <pt x="994" y="424" on="0"/>
        <pt x="994" y="363" on="1"/>
        <pt x="994" y="337" on="0"/>
        <pt x="976" y="293" on="0"/>
        <pt x="942" y="260" on="0"/>
        <pt x="893" y="241" on="0"/>
        <pt x="862" y="241" on="1"/>
        <pt x="833" y="241" on="0"/>
        <pt x="786" y="259" on="0"/>
        <pt x="752" y="289" on="0"/>
        <pt x="733" y="330" on="0"/>
        <pt x="733" y="353" on="1"/>
        <pt x="733" y="401" on="0"/>
        <pt x="765" y="431" on="1"/>
        <pt x="612" y="431" on="1"/>
        <pt x="636" y="399" on="0"/>
        <pt x="636" y="359" on="1"/>
        <pt x="636" y="312" on="0"/>
        <pt x="584" y="241" on="0"/>
        <pt x="541" y="226" on="1"/>
        <pt x="586" y="218" on="0"/>
        <pt x="641" y="156" on="0"/>
        <pt x="641" y="111" on="1"/>
        <pt x="641" y="54" on="0"/>
        <pt x="563" y="-13" on="0"/>
        <pt x="497" y="-13" on="1"/>
        <pt x="459" y="-13" on="0"/>
        <pt x="400" y="17" on="0"/>
        <pt x="380" y="44" on="1"/>
        <pt x="426" y="91" on="1"/>
        <pt x="440" y="74" on="0"/>
        <pt x="474" y="55" on="0"/>
        <pt x="497" y="55" on="1"/>
        <pt x="526" y="55" on="0"/>
        <pt x="561" y="90" on="0"/>
        <pt x="561" y="121" on="1"/>
        <pt x="561" y="152" on="0"/>
        <pt x="525" y="186" on="0"/>
        <pt x="494" y="186" on="1"/>
        <pt x="471" y="186" on="0"/>
        <pt x="433" y="163" on="0"/>
        <pt x="412" y="141" on="1"/>
        <pt x="344" y="69" on="1"/>
        <pt x="313" y="35" on="0"/>
        <pt x="238" y="-13" on="0"/>
        <pt x="184" y="-13" on="1"/>
        <pt x="125" y="-13" on="0"/>
        <pt x="53" y="47" on="0"/>
        <pt x="53" y="98" on="1"/>
        <pt x="53" y="149" on="0"/>
        <pt x="118" y="212" on="0"/>
        <pt x="181" y="217" on="1"/>
        <pt x="401" y="236" on="1"/>
        <pt x="479" y="243" on="0"/>
        <pt x="554" y="309" on="0"/>
        <pt x="554" y="355" on="1"/>
        <pt x="554" y="392" on="0"/>
        <pt x="513" y="435" on="0"/>
        <pt x="478" y="435" on="1"/>
        <pt x="440" y="435" on="0"/>
        <pt x="398" y="385" on="0"/>
        <pt x="398" y="342" on="1"/>
        <pt x="398" y="278" on="1"/>
        <pt x="319" y="278" on="1"/>
        <pt x="319" y="334" on="1"/>
        <pt x="319" y="386" on="0"/>
        <pt x="260" y="447" on="0"/>
        <pt x="209" y="447" on="1"/>
        <pt x="177" y="447" on="0"/>
        <pt x="124" y="421" on="0"/>
        <pt x="113" y="394" on="1"/>
        <pt x="136" y="417" on="0"/>
        <pt x="171" y="417" on="1"/>
        <pt x="207" y="417" on="0"/>
        <pt x="259" y="373" on="0"/>
        <pt x="259" y="330" on="1"/>
        <pt x="259" y="285" on="0"/>
        <pt x="199" y="234" on="0"/>
        <pt x="154" y="234" on="1"/>
        <pt x="133" y="234" on="0"/>
        <pt x="93" y="250" on="0"/>
        <pt x="63" y="280" on="0"/>
        <pt x="45" y="324" on="0"/>
        <pt x="45" y="353" on="1"/>
        <pt x="45" y="390" on="0"/>
        <pt x="71" y="449" on="0"/>
        <pt x="116" y="488" on="0"/>
        <pt x="177" y="509" on="0"/>
      </contour>
      <contour>
        <pt x="373" y="181" on="1"/>
        <pt x="194" y="158" on="1"/>
        <pt x="132" y="150" on="0"/>
        <pt x="132" y="100" on="1"/>
        <pt x="132" y="78" on="0"/>
        <pt x="162" y="53" on="0"/>
        <pt x="188" y="53" on="1"/>
        <pt x="212" y="53" on="0"/>
        <pt x="255" y="76" on="0"/>
        <pt x="277" y="96" on="1"/>
        <pt x="327" y="140" on="1"/>
      </contour>
      <contour>
        <pt x="915" y="363" on="1"/>
        <pt x="915" y="392" on="0"/>
        <pt x="879" y="425" on="0"/>
        <pt x="853" y="427" on="1"/>
        <pt x="832" y="419" on="0"/>
        <pt x="809" y="382" on="0"/>
        <pt x="809" y="361" on="1"/>
        <pt x="809" y="337" on="0"/>
        <pt x="841" y="308" on="0"/>
        <pt x="864" y="308" on="1"/>
        <pt x="885" y="308" on="0"/>
        <pt x="915" y="337" on="0"/>
      </contour>
      <contour>
        <pt x="153" y="370" on="1"/>
        <pt x="137" y="370" on="0"/>
        <pt x="116" y="353" on="0"/>
        <pt x="109" y="341" on="1"/>
        <pt x="109" y="340" on="1"/>
        <pt x="110" y="314" on="0"/>
        <pt x="137" y="289" on="0"/>
        <pt x="154" y="289" on="1"/>
        <pt x="171" y="289" on="0"/>
        <pt x="193" y="313" on="0"/>
        <pt x="193" y="330" on="1"/>
        <pt x="193" y="347" on="0"/>
        <pt x="172" y="370" on="0"/>
      </contour>
    </TTGlyph>
    <TTGlyph name="JaAltMatraUu.tm" xMin="45" yMin="-13" xMax="1172" yMax="627">
      <contour>
        <pt x="939" y="627" on="1"/>
        <pt x="991" y="627" on="0"/>
        <pt x="1077" y="595" on="0"/>
        <pt x="1139" y="536" on="0"/>
        <pt x="1172" y="453" on="0"/>
        <pt x="1172" y="402" on="1"/>
        <pt x="1172" y="359" on="0"/>
        <pt x="1148" y="284" on="0"/>
        <pt x="1106" y="223" on="0"/>
        <pt x="1048" y="176" on="0"/>
        <pt x="1014" y="160" on="1"/>
        <pt x="971" y="225" on="1"/>
        <pt x="1021" y="251" on="0"/>
        <pt x="1084" y="342" on="0"/>
        <pt x="1084" y="402" on="1"/>
        <pt x="1084" y="474" on="0"/>
        <pt x="1005" y="557" on="0"/>
        <pt x="934" y="557" on="1"/>
        <pt x="892" y="557" on="0"/>
        <pt x="827" y="522" on="0"/>
        <pt x="810" y="495" on="1"/>
        <pt x="886" y="494" on="0"/>
        <pt x="963" y="424" on="0"/>
        <pt x="963" y="372" on="1"/>
        <pt x="963" y="348" on="0"/>
        <pt x="944" y="305" on="0"/>
        <pt x="910" y="274" on="0"/>
        <pt x="863" y="256" on="0"/>
        <pt x="835" y="256" on="1"/>
        <pt x="804" y="256" on="0"/>
        <pt x="756" y="278" on="0"/>
        <pt x="723" y="316" on="0"/>
        <pt x="705" y="365" on="0"/>
        <pt x="705" y="391" on="1"/>
        <pt x="705" y="401" on="0"/>
        <pt x="707" y="421" on="0"/>
        <pt x="709" y="430" on="1"/>
        <pt x="591" y="430" on="1"/>
        <pt x="613" y="399" on="0"/>
        <pt x="613" y="354" on="1"/>
        <pt x="613" y="309" on="0"/>
        <pt x="564" y="241" on="0"/>
        <pt x="526" y="226" on="1"/>
        <pt x="568" y="218" on="0"/>
        <pt x="620" y="156" on="0"/>
        <pt x="620" y="111" on="1"/>
        <pt x="620" y="54" on="0"/>
        <pt x="545" y="-13" on="0"/>
        <pt x="482" y="-13" on="1"/>
        <pt x="447" y="-13" on="0"/>
        <pt x="389" y="15" on="0"/>
        <pt x="369" y="40" on="1"/>
        <pt x="415" y="87" on="1"/>
        <pt x="429" y="72" on="0"/>
        <pt x="460" y="54" on="0"/>
        <pt x="482" y="54" on="1"/>
        <pt x="509" y="54" on="0"/>
        <pt x="541" y="90" on="0"/>
        <pt x="541" y="122" on="1"/>
        <pt x="541" y="152" on="0"/>
        <pt x="508" y="189" on="0"/>
        <pt x="480" y="189" on="1"/>
        <pt x="459" y="189" on="0"/>
        <pt x="425" y="164" on="0"/>
        <pt x="405" y="143" on="1"/>
        <pt x="337" y="68" on="1"/>
        <pt x="306" y="34" on="0"/>
        <pt x="233" y="-13" on="0"/>
        <pt x="180" y="-13" on="1"/>
        <pt x="123" y="-13" on="0"/>
        <pt x="53" y="47" on="0"/>
        <pt x="53" y="98" on="1"/>
        <pt x="53" y="149" on="0"/>
        <pt x="118" y="212" on="0"/>
        <pt x="181" y="217" on="1"/>
        <pt x="394" y="234" on="1"/>
        <pt x="429" y="237" on="0"/>
        <pt x="481" y="258" on="0"/>
        <pt x="516" y="290" on="0"/>
        <pt x="533" y="331" on="0"/>
        <pt x="533" y="354" on="1"/>
        <pt x="533" y="392" on="0"/>
        <pt x="496" y="435" on="0"/>
        <pt x="464" y="435" on="1"/>
        <pt x="430" y="435" on="0"/>
        <pt x="391" y="389" on="0"/>
        <pt x="391" y="347" on="1"/>
        <pt x="391" y="278" on="1"/>
        <pt x="312" y="278" on="1"/>
        <pt x="312" y="338" on="1"/>
        <pt x="312" y="389" on="0"/>
        <pt x="255" y="448" on="0"/>
        <pt x="205" y="448" on="1"/>
        <pt x="173" y="448" on="0"/>
        <pt x="124" y="421" on="0"/>
        <pt x="113" y="394" on="1"/>
        <pt x="136" y="417" on="0"/>
        <pt x="171" y="417" on="1"/>
        <pt x="207" y="417" on="0"/>
        <pt x="259" y="373" on="0"/>
        <pt x="259" y="330" on="1"/>
        <pt x="259" y="285" on="0"/>
        <pt x="199" y="234" on="0"/>
        <pt x="154" y="234" on="1"/>
        <pt x="133" y="234" on="0"/>
        <pt x="93" y="250" on="0"/>
        <pt x="63" y="280" on="0"/>
        <pt x="45" y="324" on="0"/>
        <pt x="45" y="353" on="1"/>
        <pt x="45" y="390" on="0"/>
        <pt x="71" y="449" on="0"/>
        <pt x="115" y="488" on="0"/>
        <pt x="175" y="509" on="0"/>
        <pt x="208" y="509" on="1"/>
        <pt x="263" y="509" on="0"/>
        <pt x="334" y="456" on="0"/>
        <pt x="350" y="415" on="1"/>
        <pt x="361" y="451" on="0"/>
        <pt x="427" y="498" on="0"/>
        <pt x="476" y="498" on="1"/>
        <pt x="728" y="498" on="1"/>
        <pt x="739" y="522" on="0"/>
        <pt x="778" y="569" on="0"/>
        <pt x="831" y="605" on="0"/>
        <pt x="898" y="627" on="0"/>
      </contour>
      <contour>
        <pt x="320" y="140" on="1"/>
        <pt x="336" y="156" on="0"/>
        <pt x="355" y="173" on="0"/>
        <pt x="365" y="181" on="1"/>
        <pt x="194" y="159" on="1"/>
        <pt x="131" y="151" on="0"/>
        <pt x="131" y="99" on="1"/>
        <pt x="131" y="77" on="0"/>
        <pt x="161" y="52" on="0"/>
        <pt x="185" y="52" on="1"/>
        <pt x="208" y="52" on="0"/>
        <pt x="250" y="74" on="0"/>
        <pt x="271" y="94" on="1"/>
      </contour>
      <contour>
        <pt x="788" y="427" on="1"/>
        <pt x="783" y="409" on="0"/>
        <pt x="783" y="390" on="1"/>
        <pt x="783" y="361" on="0"/>
        <pt x="812" y="324" on="0"/>
        <pt x="839" y="324" on="1"/>
        <pt x="861" y="324" on="0"/>
        <pt x="886" y="351" on="0"/>
        <pt x="886" y="371" on="1"/>
        <pt x="886" y="399" on="0"/>
        <pt x="844" y="427" on="0"/>
        <pt x="806" y="427" on="1"/>
      </contour>
      <contour>
        <pt x="153" y="370" on="1"/>
        <pt x="137" y="370" on="0"/>
        <pt x="116" y="353" on="0"/>
        <pt x="109" y="341" on="1"/>
        <pt x="109" y="340" on="1"/>
        <pt x="111" y="314" on="0"/>
        <pt x="137" y="289" on="0"/>
        <pt x="154" y="289" on="1"/>
        <pt x="171" y="289" on="0"/>
        <pt x="193" y="313" on="0"/>
        <pt x="193" y="330" on="1"/>
        <pt x="193" y="347" on="0"/>
        <pt x="172" y="370" on="0"/>
      </contour>
    </TTGlyph>
    <TTGlyph name="JaAltPulli.tm" xMin="45" yMin="-13" xMax="641" yMax="709">
      <contour>
        <pt x="211" y="509" on="1"/>
        <pt x="268" y="509" on="0"/>
        <pt x="341" y="456" on="0"/>
        <pt x="357" y="415" on="1"/>
        <pt x="368" y="457" on="0"/>
        <pt x="439" y="509" on="0"/>
        <pt x="490" y="509" on="1"/>
        <pt x="556" y="509" on="0"/>
        <pt x="636" y="432" on="0"/>
        <pt x="636" y="368" on="1"/>
        <pt x="636" y="317" on="0"/>
        <pt x="584" y="242" on="0"/>
        <pt x="541" y="226" on="1"/>
        <pt x="586" y="218" on="0"/>
        <pt x="641" y="157" on="0"/>
        <pt x="641" y="111" on="1"/>
        <pt x="641" y="54" on="0"/>
        <pt x="563" y="-13" on="0"/>
        <pt x="497" y="-13" on="1"/>
        <pt x="459" y="-13" on="0"/>
        <pt x="400" y="17" on="0"/>
        <pt x="380" y="44" on="1"/>
        <pt x="426" y="91" on="1"/>
        <pt x="440" y="74" on="0"/>
        <pt x="474" y="55" on="0"/>
        <pt x="497" y="55" on="1"/>
        <pt x="526" y="55" on="0"/>
        <pt x="561" y="90" on="0"/>
        <pt x="561" y="121" on="1"/>
        <pt x="561" y="152" on="0"/>
        <pt x="525" y="186" on="0"/>
        <pt x="494" y="186" on="1"/>
        <pt x="471" y="186" on="0"/>
        <pt x="433" y="163" on="0"/>
        <pt x="412" y="141" on="1"/>
        <pt x="344" y="69" on="1"/>
        <pt x="313" y="35" on="0"/>
        <pt x="238" y="-13" on="0"/>
        <pt x="184" y="-13" on="1"/>
        <pt x="125" y="-13" on="0"/>
        <pt x="53" y="47" on="0"/>
        <pt x="53" y="98" on="1"/>
        <pt x="53" y="149" on="0"/>
        <pt x="118" y="212" on="0"/>
        <pt x="181" y="217" on="1"/>
        <pt x="401" y="236" on="1"/>
        <pt x="479" y="243" on="0"/>
        <pt x="553" y="310" on="0"/>
        <pt x="553" y="357" on="1"/>
        <pt x="553" y="395" on="0"/>
        <pt x="513" y="438" on="0"/>
        <pt x="478" y="438" on="1"/>
        <pt x="440" y="438" on="0"/>
        <pt x="398" y="388" on="0"/>
        <pt x="398" y="343" on="1"/>
        <pt x="398" y="278" on="1"/>
        <pt x="319" y="278" on="1"/>
        <pt x="319" y="334" on="1"/>
        <pt x="319" y="386" on="0"/>
        <pt x="260" y="447" on="0"/>
        <pt x="209" y="447" on="1"/>
        <pt x="177" y="447" on="0"/>
        <pt x="124" y="421" on="0"/>
        <pt x="113" y="394" on="1"/>
        <pt x="136" y="417" on="0"/>
        <pt x="171" y="417" on="1"/>
        <pt x="207" y="417" on="0"/>
        <pt x="259" y="373" on="0"/>
        <pt x="259" y="330" on="1"/>
        <pt x="259" y="285" on="0"/>
        <pt x="199" y="234" on="0"/>
        <pt x="154" y="234" on="1"/>
        <pt x="133" y="234" on="0"/>
        <pt x="93" y="250" on="0"/>
        <pt x="63" y="280" on="0"/>
        <pt x="45" y="324" on="0"/>
        <pt x="45" y="353" on="1"/>
        <pt x="45" y="390" on="0"/>
        <pt x="71" y="449" on="0"/>
        <pt x="116" y="488" on="0"/>
        <pt x="177" y="509" on="0"/>
      </contour>
      <contour>
        <pt x="373" y="181" on="1"/>
        <pt x="194" y="158" on="1"/>
        <pt x="132" y="150" on="0"/>
        <pt x="132" y="100" on="1"/>
        <pt x="132" y="78" on="0"/>
        <pt x="162" y="53" on="0"/>
        <pt x="188" y="53" on="1"/>
        <pt x="212" y="53" on="0"/>
        <pt x="255" y="76" on="0"/>
        <pt x="277" y="96" on="1"/>
        <pt x="327" y="140" on="1"/>
      </contour>
      <contour>
        <pt x="335" y="709" on="1"/>
        <pt x="362" y="709" on="0"/>
        <pt x="398" y="673" on="0"/>
        <pt x="398" y="647" on="1"/>
        <pt x="398" y="621" on="0"/>
        <pt x="363" y="585" on="0"/>
        <pt x="337" y="585" on="1"/>
        <pt x="309" y="585" on="0"/>
        <pt x="273" y="621" on="0"/>
        <pt x="273" y="647" on="1"/>
        <pt x="273" y="673" on="0"/>
        <pt x="309" y="709" on="0"/>
      </contour>
      <contour>
        <pt x="153" y="370" on="1"/>
        <pt x="137" y="370" on="0"/>
        <pt x="116" y="353" on="0"/>
        <pt x="109" y="341" on="1"/>
        <pt x="109" y="340" on="1"/>
        <pt x="110" y="314" on="0"/>
        <pt x="137" y="289" on="0"/>
        <pt x="154" y="289" on="1"/>
        <pt x="171" y="289" on="0"/>
        <pt x="193" y="313" on="0"/>
        <pt x="193" y="330" on="1"/>
        <pt x="193" y="347" on="0"/>
        <pt x="172" y="370" on="0"/>
      </contour>
    </TTGlyph>
    <TTGlyph name="JaMatraI.tm" xMin="41" yMin="-281" xMax="985" yMax="749">
      <contour>
        <pt x="782" y="749" on="1"/>
        <pt x="877" y="749" on="0"/>
        <pt x="985" y="640" on="0"/>
        <pt x="985" y="539" on="1"/>
        <pt x="985" y="0" on="1"/>
        <pt x="894" y="0" on="1"/>
        <pt x="894" y="533" on="1"/>
        <pt x="894" y="601" on="0"/>
        <pt x="836" y="671" on="0"/>
        <pt x="779" y="671" on="1"/>
        <pt x="729" y="671" on="0"/>
        <pt x="677" y="619" on="0"/>
        <pt x="677" y="575" on="1"/>
        <pt x="677" y="541" on="0"/>
        <pt x="706" y="478" on="0"/>
        <pt x="733" y="441" on="1"/>
        <pt x="756" y="409" on="0"/>
        <pt x="784" y="349" on="0"/>
        <pt x="784" y="315" on="1"/>
        <pt x="784" y="262" on="0"/>
        <pt x="746" y="183" on="0"/>
        <pt x="677" y="126" on="0"/>
        <pt x="582" y="89" on="0"/>
        <pt x="526" y="77" on="1"/>
        <pt x="288" y="25" on="1"/>
        <pt x="222" y="11" on="0"/>
        <pt x="151" y="-55" on="0"/>
        <pt x="151" y="-106" on="1"/>
        <pt x="151" y="-150" on="0"/>
        <pt x="202" y="-201" on="0"/>
        <pt x="242" y="-201" on="1"/>
        <pt x="276" y="-201" on="0"/>
        <pt x="335" y="-167" on="0"/>
        <pt x="367" y="-131" on="1"/>
        <pt x="420" y="-73" on="1"/>
        <pt x="472" y="-16" on="0"/>
        <pt x="567" y="43" on="0"/>
        <pt x="625" y="43" on="1"/>
        <pt x="700" y="43" on="0"/>
        <pt x="790" y="-47" on="0"/>
        <pt x="790" y="-121" on="1"/>
        <pt x="790" y="-157" on="0"/>
        <pt x="765" y="-216" on="0"/>
        <pt x="721" y="-258" on="0"/>
        <pt x="660" y="-281" on="0"/>
        <pt x="624" y="-281" on="1"/>
        <pt x="600" y="-281" on="0"/>
        <pt x="560" y="-270" on="0"/>
        <pt x="528" y="-252" on="0"/>
        <pt x="503" y="-230" on="0"/>
        <pt x="495" y="-220" on="1"/>
        <pt x="550" y="-165" on="1"/>
        <pt x="559" y="-176" on="0"/>
        <pt x="595" y="-202" on="0"/>
        <pt x="622" y="-202" on="1"/>
        <pt x="656" y="-202" on="0"/>
        <pt x="696" y="-157" on="0"/>
        <pt x="696" y="-120" on="1"/>
        <pt x="696" y="-82" on="0"/>
        <pt x="654" y="-37" on="0"/>
        <pt x="619" y="-37" on="1"/>
        <pt x="588" y="-37" on="0"/>
        <pt x="532" y="-72" on="0"/>
        <pt x="497" y="-114" on="1"/>
        <pt x="444" y="-176" on="1"/>
        <pt x="399" y="-229" on="0"/>
        <pt x="302" y="-281" on="0"/>
        <pt x="240" y="-281" on="1"/>
        <pt x="201" y="-281" on="0"/>
        <pt x="134" y="-256" on="0"/>
        <pt x="85" y="-211" on="0"/>
        <pt x="57" y="-147" on="0"/>
        <pt x="57" y="-107" on="1"/>
        <pt x="57" y="-18" on="0"/>
        <pt x="167" y="79" on="0"/>
        <pt x="275" y="103" on="1"/>
        <pt x="525" y="160" on="1"/>
        <pt x="603" y="178" on="0"/>
        <pt x="689" y="251" on="0"/>
        <pt x="689" y="314" on="1"/>
        <pt x="689" y="361" on="0"/>
        <pt x="635" y="424" on="0"/>
        <pt x="587" y="424" on="1"/>
        <pt x="541" y="424" on="0"/>
        <pt x="480" y="353" on="0"/>
        <pt x="480" y="283" on="1"/>
        <pt x="480" y="209" on="1"/>
        <pt x="388" y="209" on="1"/>
        <pt x="388" y="272" on="1"/>
        <pt x="388" y="343" on="0"/>
        <pt x="310" y="429" on="0"/>
        <pt x="243" y="429" on="1"/>
        <pt x="201" y="429" on="0"/>
        <pt x="132" y="387" on="0"/>
        <pt x="122" y="341" on="1"/>
        <pt x="136" y="357" on="0"/>
        <pt x="179" y="377" on="0"/>
        <pt x="205" y="377" on="1"/>
        <pt x="228" y="377" on="0"/>
        <pt x="271" y="362" on="0"/>
        <pt x="304" y="332" on="0"/>
        <pt x="324" y="289" on="0"/>
        <pt x="324" y="261" on="1"/>
        <pt x="324" y="232" on="0"/>
        <pt x="302" y="184" on="0"/>
        <pt x="265" y="150" on="0"/>
        <pt x="214" y="132" on="0"/>
        <pt x="185" y="132" on="1"/>
        <pt x="156" y="132" on="0"/>
        <pt x="104" y="154" on="0"/>
        <pt x="65" y="196" on="0"/>
        <pt x="41" y="258" on="0"/>
        <pt x="41" y="298" on="1"/>
        <pt x="41" y="347" on="0"/>
        <pt x="73" y="424" on="0"/>
        <pt x="129" y="477" on="0"/>
        <pt x="203" y="504" on="0"/>
        <pt x="245" y="504" on="1"/>
        <pt x="318" y="504" on="0"/>
        <pt x="415" y="429" on="0"/>
        <pt x="434" y="375" on="1"/>
        <pt x="439" y="402" on="0"/>
        <pt x="466" y="448" on="0"/>
        <pt x="508" y="482" on="0"/>
        <pt x="563" y="501" on="0"/>
        <pt x="596" y="501" on="1"/>
        <pt x="599" y="501" on="0"/>
        <pt x="606" y="501" on="0"/>
        <pt x="609" y="500" on="1"/>
        <pt x="587" y="536" on="0"/>
        <pt x="587" y="583" on="1"/>
        <pt x="587" y="618" on="0"/>
        <pt x="613" y="679" on="0"/>
        <pt x="663" y="724" on="0"/>
        <pt x="736" y="749" on="0"/>
      </contour>
      <contour>
        <pt x="185" y="317" on="1"/>
        <pt x="162" y="317" on="0"/>
        <pt x="131" y="290" on="0"/>
        <pt x="121" y="270" on="1"/>
        <pt x="125" y="234" on="0"/>
        <pt x="163" y="202" on="0"/>
        <pt x="186" y="202" on="1"/>
        <pt x="212" y="202" on="0"/>
        <pt x="243" y="234" on="0"/>
        <pt x="243" y="260" on="1"/>
        <pt x="243" y="286" on="0"/>
        <pt x="211" y="317" on="0"/>
      </contour>
    </TTGlyph>
</ttFont>
